<svg xmlns="http://www.w3.org/2000/svg" xmlns:xlink="http://www.w3.org/1999/xlink" width="100" zoomAndPan="magnify" viewBox="0 0 75 74.999997" height="100" preserveAspectRatio="xMidYMid meet" version="1.0"><defs><clipPath id="9b6d5d7de4"><path d="M 3.601562 3.601562 L 71.398438 3.601562 L 71.398438 71.398438 L 3.601562 71.398438 Z M 3.601562 3.601562 " clip-rule="nonzero"/></clipPath><clipPath id="da829c3865"><path d="M 37.5 3.601562 C 56.222656 3.601562 71.398438 18.777344 71.398438 37.5 C 71.398438 56.222656 56.222656 71.398438 37.5 71.398438 C 18.777344 71.398438 3.601562 56.222656 3.601562 37.5 C 3.601562 18.777344 18.777344 3.601562 37.5 3.601562 L 37.5 13.769531 C 24.394531 13.769531 13.769531 24.394531 13.769531 37.5 C 13.769531 50.605469 24.394531 61.230469 37.5 61.230469 C 50.605469 61.230469 61.230469 50.605469 61.230469 37.5 C 61.230469 24.394531 50.605469 13.769531 37.5 13.769531 Z M 37.5 3.601562 " clip-rule="nonzero"/></clipPath><clipPath id="1a5a5f3ef8"><path d="M 37 4 L 72 4 L 72 44.914062 L 37 44.914062 Z M 37 4 " clip-rule="nonzero"/></clipPath><clipPath id="bd4fbafb3a"><path d="M 43.480469 4.132812 C 60.574219 7.199219 72.589844 22.683594 71.304688 40.003906 C 71.097656 42.804688 68.660156 44.90625 65.859375 44.699219 C 63.058594 44.492188 60.957031 42.054688 61.164062 39.253906 C 62.0625 27.128906 53.652344 16.289062 41.6875 14.144531 C 39.898438 13.824219 38.417969 12.574219 37.800781 10.863281 C 37.183594 9.15625 37.527344 7.246094 38.699219 5.859375 C 39.871094 4.46875 41.695312 3.8125 43.480469 4.132812 Z M 43.480469 4.132812 " clip-rule="nonzero"/></clipPath></defs><g clip-path="url(#9b6d5d7de4)"><g clip-path="url(#da829c3865)"><path fill="#bff5ef" d="M 3.601562 3.601562 L 71.398438 3.601562 L 71.398438 71.398438 L 3.601562 71.398438 Z M 3.601562 3.601562 " fill-opacity="1" fill-rule="nonzero"/></g></g><g clip-path="url(#1a5a5f3ef8)"><g clip-path="url(#bd4fbafb3a)"><path fill="#9ecbc6" d="M 3.601562 3.601562 L 71.398438 3.601562 L 71.398438 71.398438 L 3.601562 71.398438 Z M 3.601562 3.601562 " fill-opacity="1" fill-rule="nonzero"/></g></g></svg>