<svg xmlns="http://www.w3.org/2000/svg" xmlns:xlink="http://www.w3.org/1999/xlink" width="100" zoomAndPan="magnify" viewBox="0 0 75 74.999997" height="100" preserveAspectRatio="xMidYMid meet" version="1.0"><defs><g/></defs><g fill="#ffffff" fill-opacity="1"><g transform="translate(11.039063, 48.19846)"><g><path d="M 3.234375 0 L 3.234375 -2.75 L 13.5625 -14.046875 C 14.769531 -15.378906 15.765625 -16.535156 16.546875 -17.515625 C 17.335938 -18.492188 17.921875 -19.414062 18.296875 -20.28125 C 18.679688 -21.15625 18.875 -22.070312 18.875 -23.03125 C 18.875 -24.6875 18.300781 -25.992188 17.15625 -26.953125 C 16.007812 -27.921875 14.585938 -28.40625 12.890625 -28.40625 C 11.078125 -28.40625 9.632812 -27.863281 8.5625 -26.78125 C 7.5 -25.695312 6.96875 -24.265625 6.96875 -22.484375 L 3.359375 -22.484375 C 3.359375 -24.316406 3.78125 -25.925781 4.625 -27.3125 C 5.46875 -28.695312 6.617188 -29.773438 8.078125 -30.546875 C 9.546875 -31.328125 11.191406 -31.71875 13.015625 -31.71875 C 14.847656 -31.71875 16.472656 -31.328125 17.890625 -30.546875 C 19.304688 -29.773438 20.414062 -28.734375 21.21875 -27.421875 C 22.019531 -26.109375 22.421875 -24.644531 22.421875 -23.03125 C 22.421875 -21.882812 22.210938 -20.765625 21.796875 -19.671875 C 21.390625 -18.578125 20.675781 -17.359375 19.65625 -16.015625 C 18.644531 -14.671875 17.242188 -13.039062 15.453125 -11.125 L 8.4375 -3.609375 L 8.4375 -3.359375 L 22.96875 -3.359375 L 22.96875 0 Z M 3.234375 0 "/></g></g></g><g fill="#ffffff" fill-opacity="1"><g transform="translate(37.063704, 48.19846)"><g><path d="M 13.4375 0.421875 C 9.988281 0.421875 7.3125 -0.972656 5.40625 -3.765625 C 3.507812 -6.566406 2.5625 -10.523438 2.5625 -15.640625 C 2.5625 -20.710938 3.519531 -24.660156 5.4375 -27.484375 C 7.351562 -30.304688 10.019531 -31.71875 13.4375 -31.71875 C 16.863281 -31.71875 19.53125 -30.304688 21.4375 -27.484375 C 23.351562 -24.660156 24.3125 -20.710938 24.3125 -15.640625 C 24.3125 -10.523438 23.363281 -6.566406 21.46875 -3.765625 C 19.570312 -0.972656 16.894531 0.421875 13.4375 0.421875 Z M 13.4375 -2.9375 C 15.71875 -2.9375 17.488281 -4.035156 18.75 -6.234375 C 20.019531 -8.429688 20.65625 -11.566406 20.65625 -15.640625 C 20.65625 -19.703125 20.015625 -22.84375 18.734375 -25.0625 C 17.460938 -27.289062 15.695312 -28.40625 13.4375 -28.40625 C 11.175781 -28.40625 9.410156 -27.289062 8.140625 -25.0625 C 6.867188 -22.84375 6.234375 -19.703125 6.234375 -15.640625 C 6.234375 -11.566406 6.863281 -8.429688 8.125 -6.234375 C 9.394531 -4.035156 11.164062 -2.9375 13.4375 -2.9375 Z M 13.4375 -2.9375 "/></g></g></g><g fill="#d9d9d9" fill-opacity="1"><g transform="translate(20.203094, 61.798462)"><g><path d="M 4.046875 -3 L 3.515625 -3 C 3.472656 -3.195312 3.390625 -3.363281 3.265625 -3.5 C 3.140625 -3.644531 2.992188 -3.75 2.828125 -3.8125 C 2.660156 -3.882812 2.476562 -3.921875 2.28125 -3.921875 C 2.019531 -3.921875 1.78125 -3.851562 1.5625 -3.71875 C 1.351562 -3.59375 1.1875 -3.398438 1.0625 -3.140625 C 0.9375 -2.878906 0.875 -2.5625 0.875 -2.1875 C 0.875 -1.800781 0.9375 -1.476562 1.0625 -1.21875 C 1.1875 -0.957031 1.351562 -0.757812 1.5625 -0.625 C 1.78125 -0.5 2.019531 -0.4375 2.28125 -0.4375 C 2.476562 -0.4375 2.660156 -0.46875 2.828125 -0.53125 C 2.992188 -0.601562 3.140625 -0.707031 3.265625 -0.84375 C 3.390625 -0.988281 3.472656 -1.160156 3.515625 -1.359375 L 4.046875 -1.359375 C 3.984375 -1.066406 3.867188 -0.8125 3.703125 -0.59375 C 3.535156 -0.382812 3.328125 -0.222656 3.078125 -0.109375 C 2.835938 0.00390625 2.570312 0.0625 2.28125 0.0625 C 1.90625 0.0625 1.570312 -0.0234375 1.28125 -0.203125 C 1 -0.390625 0.773438 -0.648438 0.609375 -0.984375 C 0.441406 -1.316406 0.359375 -1.71875 0.359375 -2.1875 C 0.359375 -2.644531 0.441406 -3.039062 0.609375 -3.375 C 0.773438 -3.707031 1 -3.960938 1.28125 -4.140625 C 1.570312 -4.328125 1.90625 -4.421875 2.28125 -4.421875 C 2.570312 -4.421875 2.835938 -4.363281 3.078125 -4.25 C 3.328125 -4.132812 3.535156 -3.972656 3.703125 -3.765625 C 3.867188 -3.554688 3.984375 -3.300781 4.046875 -3 Z M 4.046875 -3 "/></g></g></g><g fill="#d9d9d9" fill-opacity="1"><g transform="translate(24.566608, 61.798462)"><g><path d="M 4.203125 -2.1875 C 4.203125 -1.71875 4.117188 -1.316406 3.953125 -0.984375 C 3.796875 -0.648438 3.570312 -0.390625 3.28125 -0.203125 C 2.988281 -0.0234375 2.65625 0.0625 2.28125 0.0625 C 1.90625 0.0625 1.570312 -0.0234375 1.28125 -0.203125 C 1 -0.390625 0.773438 -0.648438 0.609375 -0.984375 C 0.441406 -1.316406 0.359375 -1.71875 0.359375 -2.1875 C 0.359375 -2.644531 0.441406 -3.039062 0.609375 -3.375 C 0.773438 -3.707031 1 -3.960938 1.28125 -4.140625 C 1.570312 -4.328125 1.90625 -4.421875 2.28125 -4.421875 C 2.65625 -4.421875 2.988281 -4.328125 3.28125 -4.140625 C 3.570312 -3.960938 3.796875 -3.707031 3.953125 -3.375 C 4.117188 -3.039062 4.203125 -2.644531 4.203125 -2.1875 Z M 3.703125 -2.1875 C 3.703125 -2.5625 3.640625 -2.878906 3.515625 -3.140625 C 3.390625 -3.398438 3.21875 -3.59375 3 -3.71875 C 2.789062 -3.851562 2.550781 -3.921875 2.28125 -3.921875 C 2.019531 -3.921875 1.78125 -3.851562 1.5625 -3.71875 C 1.351562 -3.59375 1.1875 -3.398438 1.0625 -3.140625 C 0.9375 -2.878906 0.875 -2.5625 0.875 -2.1875 C 0.875 -1.800781 0.9375 -1.476562 1.0625 -1.21875 C 1.1875 -0.957031 1.351562 -0.757812 1.5625 -0.625 C 1.78125 -0.5 2.019531 -0.4375 2.28125 -0.4375 C 2.550781 -0.4375 2.789062 -0.5 3 -0.625 C 3.21875 -0.757812 3.390625 -0.957031 3.515625 -1.21875 C 3.640625 -1.476562 3.703125 -1.800781 3.703125 -2.1875 Z M 3.703125 -2.1875 "/></g></g></g><g fill="#d9d9d9" fill-opacity="1"><g transform="translate(29.134666, 61.798462)"><g><path d="M 3.390625 -4.359375 L 3.921875 -4.359375 L 3.921875 -1.46875 C 3.921875 -1.144531 3.84375 -0.867188 3.6875 -0.640625 C 3.53125 -0.410156 3.320312 -0.234375 3.0625 -0.109375 C 2.8125 0.015625 2.53125 0.078125 2.21875 0.078125 C 1.914062 0.078125 1.632812 0.015625 1.375 -0.109375 C 1.125 -0.234375 0.921875 -0.410156 0.765625 -0.640625 C 0.609375 -0.867188 0.53125 -1.144531 0.53125 -1.46875 L 0.53125 -4.359375 L 1.0625 -4.359375 L 1.0625 -1.46875 C 1.0625 -1.25 1.113281 -1.054688 1.21875 -0.890625 C 1.320312 -0.734375 1.460938 -0.613281 1.640625 -0.53125 C 1.816406 -0.457031 2.007812 -0.421875 2.21875 -0.421875 C 2.425781 -0.421875 2.617188 -0.457031 2.796875 -0.53125 C 2.972656 -0.613281 3.113281 -0.734375 3.21875 -0.890625 C 3.332031 -1.054688 3.390625 -1.25 3.390625 -1.46875 Z M 3.390625 -4.359375 "/></g></g></g><g fill="#d9d9d9" fill-opacity="1"><g transform="translate(33.583408, 61.798462)"><g><path d="M 3.984375 -4.359375 L 3.984375 0 L 3.484375 0 L 1.09375 -3.421875 L 1.0625 -3.421875 L 1.0625 0 L 0.53125 0 L 0.53125 -4.359375 L 1.046875 -4.359375 L 3.421875 -0.921875 L 3.46875 -0.921875 L 3.46875 -4.359375 Z M 3.984375 -4.359375 "/></g></g></g><g fill="#d9d9d9" fill-opacity="1"><g transform="translate(38.100326, 61.798462)"><g><path d="M 0.296875 -3.890625 L 0.296875 -4.359375 L 3.5625 -4.359375 L 3.5625 -3.890625 L 2.1875 -3.890625 L 2.1875 0 L 1.65625 0 L 1.65625 -3.890625 Z M 0.296875 -3.890625 "/></g></g></g><g fill="#d9d9d9" fill-opacity="1"><g transform="translate(41.952489, 61.798462)"><g><path d="M 0.53125 0 L 0.53125 -4.359375 L 2 -4.359375 C 2.34375 -4.359375 2.625 -4.300781 2.84375 -4.1875 C 3.0625 -4.070312 3.222656 -3.910156 3.328125 -3.703125 C 3.429688 -3.503906 3.484375 -3.28125 3.484375 -3.03125 C 3.484375 -2.738281 3.414062 -2.484375 3.28125 -2.265625 C 3.15625 -2.054688 2.953125 -1.898438 2.671875 -1.796875 L 3.65625 0 L 3.046875 0 L 2.125 -1.703125 C 2.082031 -1.703125 2.046875 -1.703125 2.015625 -1.703125 L 1.0625 -1.703125 L 1.0625 0 Z M 1.0625 -2.1875 L 2 -2.1875 C 2.34375 -2.1875 2.585938 -2.257812 2.734375 -2.40625 C 2.890625 -2.5625 2.96875 -2.769531 2.96875 -3.03125 C 2.96875 -3.289062 2.890625 -3.5 2.734375 -3.65625 C 2.585938 -3.8125 2.335938 -3.890625 1.984375 -3.890625 L 1.0625 -3.890625 Z M 1.0625 -2.1875 "/></g></g></g><g fill="#d9d9d9" fill-opacity="1"><g transform="translate(45.787608, 61.798462)"><g><path d="M 1.0625 -4.359375 L 1.0625 0 L 0.53125 0 L 0.53125 -4.359375 Z M 1.0625 -4.359375 "/></g></g></g><g fill="#d9d9d9" fill-opacity="1"><g transform="translate(47.372794, 61.798462)"><g><path d="M 0.53125 0 L 0.53125 -4.359375 L 3.15625 -4.359375 L 3.15625 -3.890625 L 1.0625 -3.890625 L 1.0625 -2.421875 L 3.03125 -2.421875 L 3.03125 -1.953125 L 1.0625 -1.953125 L 1.0625 -0.46875 L 3.203125 -0.46875 L 3.203125 0 Z M 0.53125 0 "/></g></g></g><g fill="#d9d9d9" fill-opacity="1"><g transform="translate(50.960759, 61.798462)"><g><path d="M 2.921875 -3.265625 C 2.890625 -3.484375 2.78125 -3.648438 2.59375 -3.765625 C 2.414062 -3.890625 2.195312 -3.953125 1.9375 -3.953125 C 1.644531 -3.953125 1.410156 -3.882812 1.234375 -3.75 C 1.054688 -3.613281 0.96875 -3.441406 0.96875 -3.234375 C 0.96875 -3.078125 1.015625 -2.945312 1.109375 -2.84375 C 1.210938 -2.75 1.328125 -2.675781 1.453125 -2.625 C 1.585938 -2.570312 1.707031 -2.53125 1.8125 -2.5 L 2.265625 -2.390625 C 2.367188 -2.359375 2.488281 -2.316406 2.625 -2.265625 C 2.769531 -2.210938 2.90625 -2.140625 3.03125 -2.046875 C 3.164062 -1.953125 3.273438 -1.832031 3.359375 -1.6875 C 3.441406 -1.550781 3.484375 -1.382812 3.484375 -1.1875 C 3.484375 -0.945312 3.421875 -0.734375 3.296875 -0.546875 C 3.179688 -0.359375 3.003906 -0.207031 2.765625 -0.09375 C 2.523438 0.0195312 2.238281 0.078125 1.90625 0.078125 C 1.4375 0.078125 1.0625 -0.03125 0.78125 -0.25 C 0.507812 -0.476562 0.363281 -0.769531 0.34375 -1.125 L 0.890625 -1.125 C 0.898438 -0.957031 0.953125 -0.820312 1.046875 -0.71875 C 1.148438 -0.613281 1.273438 -0.535156 1.421875 -0.484375 C 1.578125 -0.429688 1.738281 -0.40625 1.90625 -0.40625 C 2.113281 -0.40625 2.296875 -0.4375 2.453125 -0.5 C 2.609375 -0.5625 2.734375 -0.648438 2.828125 -0.765625 C 2.921875 -0.890625 2.96875 -1.03125 2.96875 -1.1875 C 2.96875 -1.332031 2.925781 -1.453125 2.84375 -1.546875 C 2.769531 -1.640625 2.664062 -1.710938 2.53125 -1.765625 C 2.394531 -1.828125 2.253906 -1.878906 2.109375 -1.921875 L 1.5625 -2.078125 C 1.226562 -2.171875 0.957031 -2.304688 0.75 -2.484375 C 0.550781 -2.671875 0.453125 -2.910156 0.453125 -3.203125 C 0.453125 -3.453125 0.519531 -3.664062 0.65625 -3.84375 C 0.789062 -4.03125 0.96875 -4.171875 1.1875 -4.265625 C 1.414062 -4.367188 1.671875 -4.421875 1.953125 -4.421875 C 2.234375 -4.421875 2.484375 -4.367188 2.703125 -4.265625 C 2.921875 -4.171875 3.09375 -4.035156 3.21875 -3.859375 C 3.351562 -3.691406 3.421875 -3.492188 3.421875 -3.265625 Z M 2.921875 -3.265625 "/></g></g></g></svg>