<svg xmlns="http://www.w3.org/2000/svg" xmlns:xlink="http://www.w3.org/1999/xlink" width="100" zoomAndPan="magnify" viewBox="0 0 75 74.999997" height="100" preserveAspectRatio="xMidYMid meet" version="1.0"><defs><clipPath id="a9269a7173"><path d="M 3.601562 3.601562 L 71.398438 3.601562 L 71.398438 71.398438 L 3.601562 71.398438 Z M 3.601562 3.601562 " clip-rule="nonzero"/></clipPath><clipPath id="c780e73b8f"><path d="M 37.5 3.601562 C 56.222656 3.601562 71.398438 18.777344 71.398438 37.5 C 71.398438 56.222656 56.222656 71.398438 37.5 71.398438 C 18.777344 71.398438 3.601562 56.222656 3.601562 37.5 C 3.601562 18.777344 18.777344 3.601562 37.5 3.601562 L 37.5 13.769531 C 24.394531 13.769531 13.769531 24.394531 13.769531 37.5 C 13.769531 50.605469 24.394531 61.230469 37.5 61.230469 C 50.605469 61.230469 61.230469 50.605469 61.230469 37.5 C 61.230469 24.394531 50.605469 13.769531 37.5 13.769531 Z M 37.5 3.601562 " clip-rule="nonzero"/></clipPath><clipPath id="f1053b8898"><path d="M 37 4 L 72 4 L 72 44.914062 L 37 44.914062 Z M 37 4 " clip-rule="nonzero"/></clipPath><clipPath id="58522670c4"><path d="M 43.480469 4.132812 C 60.574219 7.199219 72.589844 22.683594 71.304688 40.003906 C 71.097656 42.804688 68.660156 44.90625 65.859375 44.699219 C 63.058594 44.492188 60.957031 42.054688 61.164062 39.253906 C 62.0625 27.128906 53.652344 16.289062 41.6875 14.144531 C 39.898438 13.824219 38.417969 12.574219 37.800781 10.863281 C 37.183594 9.15625 37.527344 7.246094 38.699219 5.859375 C 39.871094 4.46875 41.695312 3.8125 43.480469 4.132812 Z M 43.480469 4.132812 " clip-rule="nonzero"/></clipPath><clipPath id="49b97d8a0b"><path d="M 12.648438 12.648438 L 62.351562 12.648438 L 62.351562 62.351562 L 12.648438 62.351562 Z M 12.648438 12.648438 " clip-rule="nonzero"/></clipPath><clipPath id="30f18fa29d"><path d="M 37.5 12.648438 C 51.226562 12.648438 62.351562 23.773438 62.351562 37.5 C 62.351562 51.226562 51.226562 62.351562 37.5 62.351562 C 23.773438 62.351562 12.648438 51.226562 12.648438 37.5 C 12.648438 23.773438 23.773438 12.648438 37.5 12.648438 L 37.5 20.101562 C 27.890625 20.101562 20.101562 27.890625 20.101562 37.5 C 20.101562 47.109375 27.890625 54.898438 37.5 54.898438 C 47.109375 54.898438 54.898438 47.109375 54.898438 37.5 C 54.898438 27.890625 47.109375 20.101562 37.5 20.101562 Z M 37.5 12.648438 " clip-rule="nonzero"/></clipPath><clipPath id="a640dfce60"><path d="M 37.113281 12.648438 L 50.703125 12.648438 L 50.703125 22.550781 L 37.113281 22.550781 Z M 37.113281 12.648438 " clip-rule="nonzero"/></clipPath><clipPath id="4dd62daf5b"><path d="M 41.886719 13.035156 C 44.121094 13.4375 46.289062 14.140625 48.332031 15.128906 C 49.53125 15.710938 50.328125 16.886719 50.425781 18.214844 C 50.519531 19.542969 49.902344 20.824219 48.800781 21.570312 C 47.699219 22.320312 46.28125 22.421875 45.082031 21.839844 C 43.652344 21.148438 42.132812 20.65625 40.570312 20.375 C 39.257812 20.140625 38.171875 19.222656 37.722656 17.972656 C 37.269531 16.71875 37.519531 15.320312 38.378906 14.300781 C 39.238281 13.285156 40.574219 12.800781 41.886719 13.035156 Z M 41.886719 13.035156 " clip-rule="nonzero"/></clipPath><clipPath id="258c550150"><path d="M 20.082031 20.082031 L 54.917969 20.082031 L 54.917969 54.917969 L 20.082031 54.917969 Z M 20.082031 20.082031 " clip-rule="nonzero"/></clipPath><clipPath id="b4e8b9b970"><path d="M 37.5 20.082031 C 47.121094 20.082031 54.917969 27.878906 54.917969 37.5 C 54.917969 47.121094 47.121094 54.917969 37.5 54.917969 C 27.878906 54.917969 20.082031 47.121094 20.082031 37.5 C 20.082031 27.878906 27.878906 20.082031 37.5 20.082031 L 37.5 27.050781 C 31.726562 27.050781 27.050781 31.726562 27.050781 37.5 C 27.050781 43.273438 31.726562 47.949219 37.5 47.949219 C 43.273438 47.949219 47.949219 43.273438 47.949219 37.5 C 47.949219 31.726562 43.273438 27.050781 37.5 27.050781 Z M 37.5 20.082031 " clip-rule="nonzero"/></clipPath><clipPath id="375ce9be12"><path d="M 37.226562 20.21875 L 46.617188 20.21875 L 46.617188 28.519531 L 37.226562 28.519531 Z M 37.226562 20.21875 " clip-rule="nonzero"/></clipPath><clipPath id="20f4c295a3"><path d="M 41.855469 20.632812 C 42.546875 20.8125 43.226562 21.035156 43.890625 21.296875 C 45.679688 22 46.558594 24.023438 45.851562 25.816406 C 45.148438 27.605469 43.125 28.484375 41.335938 27.777344 C 40.933594 27.621094 40.527344 27.488281 40.113281 27.378906 C 38.90625 27.070312 37.960938 26.140625 37.628906 24.941406 C 37.292969 23.742188 37.625 22.453125 38.496094 21.566406 C 39.371094 20.679688 40.648438 20.324219 41.855469 20.632812 Z M 41.855469 20.632812 " clip-rule="nonzero"/></clipPath></defs><g clip-path="url(#a9269a7173)"><g clip-path="url(#c780e73b8f)"><path fill="#c20578" d="M 3.601562 3.601562 L 71.398438 3.601562 L 71.398438 71.398438 L 3.601562 71.398438 Z M 3.601562 3.601562 " fill-opacity="1" fill-rule="nonzero"/></g></g><g clip-path="url(#f1053b8898)"><g clip-path="url(#58522670c4)"><path fill="#9d0461" d="M 3.601562 3.601562 L 71.398438 3.601562 L 71.398438 71.398438 L 3.601562 71.398438 Z M 3.601562 3.601562 " fill-opacity="1" fill-rule="nonzero"/></g></g><g clip-path="url(#49b97d8a0b)"><g clip-path="url(#30f18fa29d)"><path fill="#ee6a0c" d="M 12.648438 12.648438 L 62.351562 12.648438 L 62.351562 62.351562 L 12.648438 62.351562 Z M 12.648438 12.648438 " fill-opacity="1" fill-rule="nonzero"/></g></g><g clip-path="url(#a640dfce60)"><g clip-path="url(#4dd62daf5b)"><path fill="#bf550a" d="M 12.648438 12.648438 L 62.351562 12.648438 L 62.351562 62.351562 L 12.648438 62.351562 Z M 12.648438 12.648438 " fill-opacity="1" fill-rule="nonzero"/></g></g><g clip-path="url(#258c550150)"><g clip-path="url(#b4e8b9b970)"><path fill="#bff5ef" d="M 20.082031 20.082031 L 54.917969 20.082031 L 54.917969 54.917969 L 20.082031 54.917969 Z M 20.082031 20.082031 " fill-opacity="1" fill-rule="nonzero"/></g></g><g clip-path="url(#375ce9be12)"><g clip-path="url(#20f4c295a3)"><path fill="#9ecbc6" d="M 20.082031 20.082031 L 54.917969 20.082031 L 54.917969 54.917969 L 20.082031 54.917969 Z M 20.082031 20.082031 " fill-opacity="1" fill-rule="nonzero"/></g></g></svg>