<svg xmlns="http://www.w3.org/2000/svg" xmlns:xlink="http://www.w3.org/1999/xlink" width="100" zoomAndPan="magnify" viewBox="0 0 75 74.999997" height="100" preserveAspectRatio="xMidYMid meet" version="1.0"><defs><g/></defs><g fill="#ffffff" fill-opacity="1"><g transform="translate(10.792969, 48.198459)"><g><path d="M 13.265625 0.421875 C 11.160156 0.421875 9.304688 0.0507812 7.703125 -0.6875 C 6.097656 -1.4375 4.847656 -2.472656 3.953125 -3.796875 C 3.054688 -5.117188 2.613281 -6.625 2.625 -8.3125 C 2.613281 -9.632812 2.875 -10.859375 3.40625 -11.984375 C 3.9375 -13.109375 4.660156 -14.050781 5.578125 -14.8125 C 6.503906 -15.570312 7.535156 -16.050781 8.671875 -16.25 L 8.671875 -16.4375 C 7.179688 -16.820312 5.988281 -17.660156 5.09375 -18.953125 C 4.207031 -20.253906 3.769531 -21.738281 3.78125 -23.40625 C 3.769531 -24.988281 4.171875 -26.40625 4.984375 -27.65625 C 5.804688 -28.914062 6.929688 -29.90625 8.359375 -30.625 C 9.796875 -31.351562 11.429688 -31.71875 13.265625 -31.71875 C 15.078125 -31.71875 16.691406 -31.351562 18.109375 -30.625 C 19.535156 -29.90625 20.660156 -28.914062 21.484375 -27.65625 C 22.304688 -26.40625 22.722656 -24.988281 22.734375 -23.40625 C 22.722656 -21.738281 22.269531 -20.253906 21.375 -18.953125 C 20.488281 -17.660156 19.3125 -16.820312 17.84375 -16.4375 L 17.84375 -16.25 C 18.96875 -16.050781 19.984375 -15.570312 20.890625 -14.8125 C 21.796875 -14.050781 22.519531 -13.109375 23.0625 -11.984375 C 23.601562 -10.859375 23.878906 -9.632812 23.890625 -8.3125 C 23.878906 -6.625 23.421875 -5.117188 22.515625 -3.796875 C 21.617188 -2.472656 20.375 -1.4375 18.78125 -0.6875 C 17.1875 0.0507812 15.347656 0.421875 13.265625 0.421875 Z M 13.265625 -2.9375 C 15.378906 -2.9375 17.050781 -3.441406 18.28125 -4.453125 C 19.519531 -5.460938 20.144531 -6.8125 20.15625 -8.5 C 20.144531 -9.675781 19.835938 -10.71875 19.234375 -11.625 C 18.640625 -12.53125 17.828125 -13.242188 16.796875 -13.765625 C 15.765625 -14.285156 14.585938 -14.546875 13.265625 -14.546875 C 11.929688 -14.546875 10.738281 -14.285156 9.6875 -13.765625 C 8.644531 -13.242188 7.828125 -12.53125 7.234375 -11.625 C 6.640625 -10.71875 6.347656 -9.675781 6.359375 -8.5 C 6.347656 -6.8125 6.957031 -5.460938 8.1875 -4.453125 C 9.414062 -3.441406 11.109375 -2.9375 13.265625 -2.9375 Z M 13.265625 -17.78125 C 14.941406 -17.78125 16.320312 -18.269531 17.40625 -19.25 C 18.5 -20.238281 19.050781 -21.539062 19.0625 -23.15625 C 19.050781 -24.75 18.515625 -26.019531 17.453125 -26.96875 C 16.390625 -27.925781 14.992188 -28.40625 13.265625 -28.40625 C 11.503906 -28.40625 10.09375 -27.925781 9.03125 -26.96875 C 7.96875 -26.019531 7.441406 -24.75 7.453125 -23.15625 C 7.441406 -21.539062 7.976562 -20.238281 9.0625 -19.25 C 10.144531 -18.269531 11.546875 -17.78125 13.265625 -17.78125 Z M 13.265625 -17.78125 "/></g></g></g><g fill="#ffffff" fill-opacity="1"><g transform="translate(37.30633, 48.198459)"><g><path d="M 13.4375 0.421875 C 9.988281 0.421875 7.3125 -0.972656 5.40625 -3.765625 C 3.507812 -6.566406 2.5625 -10.523438 2.5625 -15.640625 C 2.5625 -20.710938 3.519531 -24.660156 5.4375 -27.484375 C 7.351562 -30.304688 10.019531 -31.71875 13.4375 -31.71875 C 16.863281 -31.71875 19.53125 -30.304688 21.4375 -27.484375 C 23.351562 -24.660156 24.3125 -20.710938 24.3125 -15.640625 C 24.3125 -10.523438 23.363281 -6.566406 21.46875 -3.765625 C 19.570312 -0.972656 16.894531 0.421875 13.4375 0.421875 Z M 13.4375 -2.9375 C 15.71875 -2.9375 17.488281 -4.035156 18.75 -6.234375 C 20.019531 -8.429688 20.65625 -11.566406 20.65625 -15.640625 C 20.65625 -19.703125 20.015625 -22.84375 18.734375 -25.0625 C 17.460938 -27.289062 15.695312 -28.40625 13.4375 -28.40625 C 11.175781 -28.40625 9.410156 -27.289062 8.140625 -25.0625 C 6.867188 -22.84375 6.234375 -19.703125 6.234375 -15.640625 C 6.234375 -11.566406 6.863281 -8.429688 8.125 -6.234375 C 9.394531 -4.035156 11.164062 -2.9375 13.4375 -2.9375 Z M 13.4375 -2.9375 "/></g></g></g><g fill="#d9d9d9" fill-opacity="1"><g transform="translate(28.093698, 61.798455)"><g><path d="M 4.046875 -3 L 3.515625 -3 C 3.472656 -3.195312 3.390625 -3.363281 3.265625 -3.5 C 3.140625 -3.644531 2.992188 -3.75 2.828125 -3.8125 C 2.660156 -3.882812 2.476562 -3.921875 2.28125 -3.921875 C 2.019531 -3.921875 1.78125 -3.851562 1.5625 -3.71875 C 1.351562 -3.59375 1.1875 -3.398438 1.0625 -3.140625 C 0.9375 -2.878906 0.875 -2.5625 0.875 -2.1875 C 0.875 -1.800781 0.9375 -1.476562 1.0625 -1.21875 C 1.1875 -0.957031 1.351562 -0.757812 1.5625 -0.625 C 1.78125 -0.5 2.019531 -0.4375 2.28125 -0.4375 C 2.476562 -0.4375 2.660156 -0.46875 2.828125 -0.53125 C 2.992188 -0.601562 3.140625 -0.707031 3.265625 -0.84375 C 3.390625 -0.988281 3.472656 -1.160156 3.515625 -1.359375 L 4.046875 -1.359375 C 3.984375 -1.066406 3.867188 -0.8125 3.703125 -0.59375 C 3.535156 -0.382812 3.328125 -0.222656 3.078125 -0.109375 C 2.835938 0.00390625 2.570312 0.0625 2.28125 0.0625 C 1.90625 0.0625 1.570312 -0.0234375 1.28125 -0.203125 C 1 -0.390625 0.773438 -0.648438 0.609375 -0.984375 C 0.441406 -1.316406 0.359375 -1.71875 0.359375 -2.1875 C 0.359375 -2.644531 0.441406 -3.039062 0.609375 -3.375 C 0.773438 -3.707031 1 -3.960938 1.28125 -4.140625 C 1.570312 -4.328125 1.90625 -4.421875 2.28125 -4.421875 C 2.570312 -4.421875 2.835938 -4.363281 3.078125 -4.25 C 3.328125 -4.132812 3.535156 -3.972656 3.703125 -3.765625 C 3.867188 -3.554688 3.984375 -3.300781 4.046875 -3 Z M 4.046875 -3 "/></g></g></g><g fill="#d9d9d9" fill-opacity="1"><g transform="translate(32.457213, 61.798455)"><g><path d="M 1.0625 -4.359375 L 1.0625 0 L 0.53125 0 L 0.53125 -4.359375 Z M 1.0625 -4.359375 "/></g></g></g><g fill="#d9d9d9" fill-opacity="1"><g transform="translate(34.042399, 61.798455)"><g><path d="M 0.296875 -3.890625 L 0.296875 -4.359375 L 3.5625 -4.359375 L 3.5625 -3.890625 L 2.1875 -3.890625 L 2.1875 0 L 1.65625 0 L 1.65625 -3.890625 Z M 0.296875 -3.890625 "/></g></g></g><g fill="#d9d9d9" fill-opacity="1"><g transform="translate(37.894562, 61.798455)"><g><path d="M 1.0625 -4.359375 L 1.0625 0 L 0.53125 0 L 0.53125 -4.359375 Z M 1.0625 -4.359375 "/></g></g></g><g fill="#d9d9d9" fill-opacity="1"><g transform="translate(39.479747, 61.798455)"><g><path d="M 0.53125 0 L 0.53125 -4.359375 L 3.15625 -4.359375 L 3.15625 -3.890625 L 1.0625 -3.890625 L 1.0625 -2.421875 L 3.03125 -2.421875 L 3.03125 -1.953125 L 1.0625 -1.953125 L 1.0625 -0.46875 L 3.203125 -0.46875 L 3.203125 0 Z M 0.53125 0 "/></g></g></g><g fill="#d9d9d9" fill-opacity="1"><g transform="translate(43.067713, 61.798455)"><g><path d="M 2.921875 -3.265625 C 2.890625 -3.484375 2.78125 -3.648438 2.59375 -3.765625 C 2.414062 -3.890625 2.195312 -3.953125 1.9375 -3.953125 C 1.644531 -3.953125 1.410156 -3.882812 1.234375 -3.75 C 1.054688 -3.613281 0.96875 -3.441406 0.96875 -3.234375 C 0.96875 -3.078125 1.015625 -2.945312 1.109375 -2.84375 C 1.210938 -2.75 1.328125 -2.675781 1.453125 -2.625 C 1.585938 -2.570312 1.707031 -2.53125 1.8125 -2.5 L 2.265625 -2.390625 C 2.367188 -2.359375 2.488281 -2.316406 2.625 -2.265625 C 2.769531 -2.210938 2.90625 -2.140625 3.03125 -2.046875 C 3.164062 -1.953125 3.273438 -1.832031 3.359375 -1.6875 C 3.441406 -1.550781 3.484375 -1.382812 3.484375 -1.1875 C 3.484375 -0.945312 3.421875 -0.734375 3.296875 -0.546875 C 3.179688 -0.359375 3.003906 -0.207031 2.765625 -0.09375 C 2.523438 0.0195312 2.238281 0.078125 1.90625 0.078125 C 1.4375 0.078125 1.0625 -0.03125 0.78125 -0.25 C 0.507812 -0.476562 0.363281 -0.769531 0.34375 -1.125 L 0.890625 -1.125 C 0.898438 -0.957031 0.953125 -0.820312 1.046875 -0.71875 C 1.148438 -0.613281 1.273438 -0.535156 1.421875 -0.484375 C 1.578125 -0.429688 1.738281 -0.40625 1.90625 -0.40625 C 2.113281 -0.40625 2.296875 -0.4375 2.453125 -0.5 C 2.609375 -0.5625 2.734375 -0.648438 2.828125 -0.765625 C 2.921875 -0.890625 2.96875 -1.03125 2.96875 -1.1875 C 2.96875 -1.332031 2.925781 -1.453125 2.84375 -1.546875 C 2.769531 -1.640625 2.664062 -1.710938 2.53125 -1.765625 C 2.394531 -1.828125 2.253906 -1.878906 2.109375 -1.921875 L 1.5625 -2.078125 C 1.226562 -2.171875 0.957031 -2.304688 0.75 -2.484375 C 0.550781 -2.671875 0.453125 -2.910156 0.453125 -3.203125 C 0.453125 -3.453125 0.519531 -3.664062 0.65625 -3.84375 C 0.789062 -4.03125 0.96875 -4.171875 1.1875 -4.265625 C 1.414062 -4.367188 1.671875 -4.421875 1.953125 -4.421875 C 2.234375 -4.421875 2.484375 -4.367188 2.703125 -4.265625 C 2.921875 -4.171875 3.09375 -4.035156 3.21875 -3.859375 C 3.351562 -3.691406 3.421875 -3.492188 3.421875 -3.265625 Z M 2.921875 -3.265625 "/></g></g></g></svg>