<svg xmlns="http://www.w3.org/2000/svg" xmlns:xlink="http://www.w3.org/1999/xlink" width="100" zoomAndPan="magnify" viewBox="0 0 75 74.999997" height="100" preserveAspectRatio="xMidYMid meet" version="1.0"><defs><g/></defs><g fill="#ffffff" fill-opacity="1"><g transform="translate(10.371094, 48.198452)"><g><path d="M 13.8125 0.421875 C 11.789062 0.421875 9.992188 0.078125 8.421875 -0.609375 C 6.847656 -1.304688 5.597656 -2.269531 4.671875 -3.5 C 3.753906 -4.738281 3.253906 -6.179688 3.171875 -7.828125 L 7.03125 -7.828125 C 7.132812 -6.316406 7.828125 -5.125 9.109375 -4.25 C 10.390625 -3.375 11.9375 -2.9375 13.75 -2.9375 C 15.75 -2.9375 17.398438 -3.445312 18.703125 -4.46875 C 20.003906 -5.488281 20.65625 -6.832031 20.65625 -8.5 C 20.65625 -10.226562 20.015625 -11.632812 18.734375 -12.71875 C 17.453125 -13.8125 15.628906 -14.359375 13.265625 -14.359375 L 10.75 -14.359375 L 10.75 -17.71875 L 13.265625 -17.71875 C 15.117188 -17.71875 16.628906 -18.210938 17.796875 -19.203125 C 18.960938 -20.191406 19.546875 -21.507812 19.546875 -23.15625 C 19.546875 -24.738281 19.03125 -26.007812 18 -26.96875 C 16.976562 -27.925781 15.601562 -28.40625 13.875 -28.40625 C 12.789062 -28.40625 11.769531 -28.207031 10.8125 -27.8125 C 9.863281 -27.425781 9.085938 -26.863281 8.484375 -26.125 C 7.890625 -25.382812 7.566406 -24.5 7.515625 -23.46875 L 3.84375 -23.46875 C 3.90625 -25.101562 4.398438 -26.539062 5.328125 -27.78125 C 6.253906 -29.019531 7.46875 -29.984375 8.96875 -30.671875 C 10.476562 -31.367188 12.132812 -31.71875 13.9375 -31.71875 C 15.863281 -31.71875 17.519531 -31.328125 18.90625 -30.546875 C 20.289062 -29.765625 21.351562 -28.738281 22.09375 -27.46875 C 22.84375 -26.195312 23.21875 -24.820312 23.21875 -23.34375 C 23.21875 -21.582031 22.753906 -20.078125 21.828125 -18.828125 C 20.910156 -17.585938 19.664062 -16.726562 18.09375 -16.25 L 18.09375 -16.015625 C 20.0625 -15.679688 21.597656 -14.835938 22.703125 -13.484375 C 23.816406 -12.140625 24.375 -10.476562 24.375 -8.5 C 24.375 -6.789062 23.910156 -5.257812 22.984375 -3.90625 C 22.066406 -2.5625 20.8125 -1.503906 19.21875 -0.734375 C 17.632812 0.0351562 15.832031 0.421875 13.8125 0.421875 Z M 13.8125 0.421875 "/></g></g></g><g fill="#ffffff" fill-opacity="1"><g transform="translate(37.739729, 48.198452)"><g><path d="M 13.4375 0.421875 C 9.988281 0.421875 7.3125 -0.972656 5.40625 -3.765625 C 3.507812 -6.566406 2.5625 -10.523438 2.5625 -15.640625 C 2.5625 -20.710938 3.519531 -24.660156 5.4375 -27.484375 C 7.351562 -30.304688 10.019531 -31.71875 13.4375 -31.71875 C 16.863281 -31.71875 19.53125 -30.304688 21.4375 -27.484375 C 23.351562 -24.660156 24.3125 -20.710938 24.3125 -15.640625 C 24.3125 -10.523438 23.363281 -6.566406 21.46875 -3.765625 C 19.570312 -0.972656 16.894531 0.421875 13.4375 0.421875 Z M 13.4375 -2.9375 C 15.71875 -2.9375 17.488281 -4.035156 18.75 -6.234375 C 20.019531 -8.429688 20.65625 -11.566406 20.65625 -15.640625 C 20.65625 -19.703125 20.015625 -22.84375 18.734375 -25.0625 C 17.460938 -27.289062 15.695312 -28.40625 13.4375 -28.40625 C 11.175781 -28.40625 9.410156 -27.289062 8.140625 -25.0625 C 6.867188 -22.84375 6.234375 -19.703125 6.234375 -15.640625 C 6.234375 -11.566406 6.863281 -8.429688 8.125 -6.234375 C 9.394531 -4.035156 11.164062 -2.9375 13.4375 -2.9375 Z M 13.4375 -2.9375 "/></g></g></g><g fill="#d9d9d9" fill-opacity="1"><g transform="translate(25.992141, 61.79847)"><g><path d="M 2.921875 -3.265625 C 2.890625 -3.484375 2.78125 -3.648438 2.59375 -3.765625 C 2.414062 -3.890625 2.195312 -3.953125 1.9375 -3.953125 C 1.644531 -3.953125 1.410156 -3.882812 1.234375 -3.75 C 1.054688 -3.613281 0.96875 -3.441406 0.96875 -3.234375 C 0.96875 -3.078125 1.015625 -2.945312 1.109375 -2.84375 C 1.210938 -2.75 1.328125 -2.675781 1.453125 -2.625 C 1.585938 -2.570312 1.707031 -2.53125 1.8125 -2.5 L 2.265625 -2.390625 C 2.367188 -2.359375 2.488281 -2.316406 2.625 -2.265625 C 2.769531 -2.210938 2.90625 -2.140625 3.03125 -2.046875 C 3.164062 -1.953125 3.273438 -1.832031 3.359375 -1.6875 C 3.441406 -1.550781 3.484375 -1.382812 3.484375 -1.1875 C 3.484375 -0.945312 3.421875 -0.734375 3.296875 -0.546875 C 3.179688 -0.359375 3.003906 -0.207031 2.765625 -0.09375 C 2.523438 0.0195312 2.238281 0.078125 1.90625 0.078125 C 1.4375 0.078125 1.0625 -0.03125 0.78125 -0.25 C 0.507812 -0.476562 0.363281 -0.769531 0.34375 -1.125 L 0.890625 -1.125 C 0.898438 -0.957031 0.953125 -0.820312 1.046875 -0.71875 C 1.148438 -0.613281 1.273438 -0.535156 1.421875 -0.484375 C 1.578125 -0.429688 1.738281 -0.40625 1.90625 -0.40625 C 2.113281 -0.40625 2.296875 -0.4375 2.453125 -0.5 C 2.609375 -0.5625 2.734375 -0.648438 2.828125 -0.765625 C 2.921875 -0.890625 2.96875 -1.03125 2.96875 -1.1875 C 2.96875 -1.332031 2.925781 -1.453125 2.84375 -1.546875 C 2.769531 -1.640625 2.664062 -1.710938 2.53125 -1.765625 C 2.394531 -1.828125 2.253906 -1.878906 2.109375 -1.921875 L 1.5625 -2.078125 C 1.226562 -2.171875 0.957031 -2.304688 0.75 -2.484375 C 0.550781 -2.671875 0.453125 -2.910156 0.453125 -3.203125 C 0.453125 -3.453125 0.519531 -3.664062 0.65625 -3.84375 C 0.789062 -4.03125 0.96875 -4.171875 1.1875 -4.265625 C 1.414062 -4.367188 1.671875 -4.421875 1.953125 -4.421875 C 2.234375 -4.421875 2.484375 -4.367188 2.703125 -4.265625 C 2.921875 -4.171875 3.09375 -4.035156 3.21875 -3.859375 C 3.351562 -3.691406 3.421875 -3.492188 3.421875 -3.265625 Z M 2.921875 -3.265625 "/></g></g></g><g fill="#d9d9d9" fill-opacity="1"><g transform="translate(29.818738, 61.79847)"><g><path d="M 0.296875 -3.890625 L 0.296875 -4.359375 L 3.5625 -4.359375 L 3.5625 -3.890625 L 2.1875 -3.890625 L 2.1875 0 L 1.65625 0 L 1.65625 -3.890625 Z M 0.296875 -3.890625 "/></g></g></g><g fill="#d9d9d9" fill-opacity="1"><g transform="translate(33.670901, 61.79847)"><g><path d="M 0.703125 0 L 0.15625 0 L 1.75 -4.359375 L 2.296875 -4.359375 L 3.90625 0 L 3.34375 0 L 2.90625 -1.234375 L 1.140625 -1.234375 Z M 1.3125 -1.703125 L 2.75 -1.703125 L 2.046875 -3.671875 L 2.015625 -3.671875 Z M 1.3125 -1.703125 "/></g></g></g><g fill="#d9d9d9" fill-opacity="1"><g transform="translate(37.727608, 61.79847)"><g><path d="M 0.296875 -3.890625 L 0.296875 -4.359375 L 3.5625 -4.359375 L 3.5625 -3.890625 L 2.1875 -3.890625 L 2.1875 0 L 1.65625 0 L 1.65625 -3.890625 Z M 0.296875 -3.890625 "/></g></g></g><g fill="#d9d9d9" fill-opacity="1"><g transform="translate(41.579771, 61.79847)"><g><path d="M 0.53125 0 L 0.53125 -4.359375 L 3.15625 -4.359375 L 3.15625 -3.890625 L 1.0625 -3.890625 L 1.0625 -2.421875 L 3.03125 -2.421875 L 3.03125 -1.953125 L 1.0625 -1.953125 L 1.0625 -0.46875 L 3.203125 -0.46875 L 3.203125 0 Z M 0.53125 0 "/></g></g></g><g fill="#d9d9d9" fill-opacity="1"><g transform="translate(45.167736, 61.79847)"><g><path d="M 2.921875 -3.265625 C 2.890625 -3.484375 2.78125 -3.648438 2.59375 -3.765625 C 2.414062 -3.890625 2.195312 -3.953125 1.9375 -3.953125 C 1.644531 -3.953125 1.410156 -3.882812 1.234375 -3.75 C 1.054688 -3.613281 0.96875 -3.441406 0.96875 -3.234375 C 0.96875 -3.078125 1.015625 -2.945312 1.109375 -2.84375 C 1.210938 -2.75 1.328125 -2.675781 1.453125 -2.625 C 1.585938 -2.570312 1.707031 -2.53125 1.8125 -2.5 L 2.265625 -2.390625 C 2.367188 -2.359375 2.488281 -2.316406 2.625 -2.265625 C 2.769531 -2.210938 2.90625 -2.140625 3.03125 -2.046875 C 3.164062 -1.953125 3.273438 -1.832031 3.359375 -1.6875 C 3.441406 -1.550781 3.484375 -1.382812 3.484375 -1.1875 C 3.484375 -0.945312 3.421875 -0.734375 3.296875 -0.546875 C 3.179688 -0.359375 3.003906 -0.207031 2.765625 -0.09375 C 2.523438 0.0195312 2.238281 0.078125 1.90625 0.078125 C 1.4375 0.078125 1.0625 -0.03125 0.78125 -0.25 C 0.507812 -0.476562 0.363281 -0.769531 0.34375 -1.125 L 0.890625 -1.125 C 0.898438 -0.957031 0.953125 -0.820312 1.046875 -0.71875 C 1.148438 -0.613281 1.273438 -0.535156 1.421875 -0.484375 C 1.578125 -0.429688 1.738281 -0.40625 1.90625 -0.40625 C 2.113281 -0.40625 2.296875 -0.4375 2.453125 -0.5 C 2.609375 -0.5625 2.734375 -0.648438 2.828125 -0.765625 C 2.921875 -0.890625 2.96875 -1.03125 2.96875 -1.1875 C 2.96875 -1.332031 2.925781 -1.453125 2.84375 -1.546875 C 2.769531 -1.640625 2.664062 -1.710938 2.53125 -1.765625 C 2.394531 -1.828125 2.253906 -1.878906 2.109375 -1.921875 L 1.5625 -2.078125 C 1.226562 -2.171875 0.957031 -2.304688 0.75 -2.484375 C 0.550781 -2.671875 0.453125 -2.910156 0.453125 -3.203125 C 0.453125 -3.453125 0.519531 -3.664062 0.65625 -3.84375 C 0.789062 -4.03125 0.96875 -4.171875 1.1875 -4.265625 C 1.414062 -4.367188 1.671875 -4.421875 1.953125 -4.421875 C 2.234375 -4.421875 2.484375 -4.367188 2.703125 -4.265625 C 2.921875 -4.171875 3.09375 -4.035156 3.21875 -3.859375 C 3.351562 -3.691406 3.421875 -3.492188 3.421875 -3.265625 Z M 2.921875 -3.265625 "/></g></g></g></svg>