<svg xmlns="http://www.w3.org/2000/svg" xmlns:xlink="http://www.w3.org/1999/xlink" width="300" zoomAndPan="magnify" viewBox="0 0 224.87999 112.499997" height="150" preserveAspectRatio="xMidYMid meet" version="1.0"><defs><g/><clipPath id="f625327230"><path d="M 11.636719 35.835938 L 49 35.835938 L 49 73.199219 L 11.636719 73.199219 Z M 11.636719 35.835938 " clip-rule="nonzero"/></clipPath><clipPath id="dc46c8182b"><path d="M 30.320312 35.835938 C 40.636719 35.835938 49 44.203125 49 54.519531 C 49 64.835938 40.636719 73.199219 30.320312 73.199219 C 20.003906 73.199219 11.636719 64.835938 11.636719 54.519531 C 11.636719 44.203125 20.003906 35.835938 30.320312 35.835938 L 30.320312 41.441406 C 23.097656 41.441406 17.242188 47.296875 17.242188 54.519531 C 17.242188 61.742188 23.097656 67.597656 30.320312 67.597656 C 37.542969 67.597656 43.398438 61.742188 43.398438 54.519531 C 43.398438 47.296875 37.542969 41.441406 30.320312 41.441406 Z M 30.320312 35.835938 " clip-rule="nonzero"/></clipPath><clipPath id="fa1723fab6"><path d="M 30.027344 36 L 49 36 L 49 58.605469 L 30.027344 58.605469 Z M 30.027344 36 " clip-rule="nonzero"/></clipPath><clipPath id="fe582ed540"><path d="M 33.617188 36.128906 C 43.035156 37.820312 49.65625 46.355469 48.949219 55.898438 C 48.835938 57.441406 47.492188 58.601562 45.949219 58.488281 C 44.40625 58.371094 43.246094 57.027344 43.359375 55.484375 C 43.855469 48.804688 39.222656 42.828125 32.628906 41.648438 C 31.640625 41.46875 30.824219 40.78125 30.484375 39.839844 C 30.144531 38.898438 30.335938 37.847656 30.980469 37.082031 C 31.625 36.316406 32.632812 35.953125 33.617188 36.128906 Z M 33.617188 36.128906 " clip-rule="nonzero"/></clipPath><clipPath id="110022e7ba"><path d="M 16.621094 40.820312 L 44.015625 40.820312 L 44.015625 68.214844 L 16.621094 68.214844 Z M 16.621094 40.820312 " clip-rule="nonzero"/></clipPath><clipPath id="87bf55c9f3"><path d="M 30.320312 40.820312 C 37.882812 40.820312 44.015625 46.953125 44.015625 54.519531 C 44.015625 62.082031 37.882812 68.214844 30.320312 68.214844 C 22.753906 68.214844 16.621094 62.082031 16.621094 54.519531 C 16.621094 46.953125 22.753906 40.820312 30.320312 40.820312 L 30.320312 44.929688 C 25.023438 44.929688 20.730469 49.222656 20.730469 54.519531 C 20.730469 59.8125 25.023438 64.105469 30.320312 64.105469 C 35.613281 64.105469 39.90625 59.8125 39.90625 54.519531 C 39.90625 49.222656 35.613281 44.929688 30.320312 44.929688 Z M 30.320312 40.820312 " clip-rule="nonzero"/></clipPath><clipPath id="92b38d12f7"><path d="M 30.105469 41 L 37.597656 41 L 37.597656 46.28125 L 30.105469 46.28125 Z M 30.105469 41 " clip-rule="nonzero"/></clipPath><clipPath id="7485c17c8c"><path d="M 32.738281 41.035156 C 33.96875 41.257812 35.164062 41.644531 36.289062 42.191406 C 36.949219 42.511719 37.390625 43.160156 37.441406 43.890625 C 37.496094 44.625 37.15625 45.328125 36.546875 45.742188 C 35.941406 46.152344 35.160156 46.210938 34.496094 45.890625 C 33.710938 45.507812 32.875 45.234375 32.011719 45.082031 C 31.289062 44.953125 30.691406 44.445312 30.441406 43.757812 C 30.191406 43.066406 30.332031 42.296875 30.804688 41.734375 C 31.277344 41.171875 32.015625 40.90625 32.738281 41.035156 Z M 32.738281 41.035156 " clip-rule="nonzero"/></clipPath><clipPath id="63af8b4380"><path d="M 20.71875 44.917969 L 39.917969 44.917969 L 39.917969 64.117188 L 20.71875 64.117188 Z M 20.71875 44.917969 " clip-rule="nonzero"/></clipPath><clipPath id="81512bb207"><path d="M 30.320312 44.917969 C 35.621094 44.917969 39.917969 49.21875 39.917969 54.519531 C 39.917969 59.820312 35.621094 64.117188 30.320312 64.117188 C 25.019531 64.117188 20.71875 59.820312 20.71875 54.519531 C 20.71875 49.21875 25.019531 44.917969 30.320312 44.917969 L 30.320312 48.757812 C 27.140625 48.757812 24.558594 51.339844 24.558594 54.519531 C 24.558594 57.699219 27.140625 60.277344 30.320312 60.277344 C 33.5 60.277344 36.078125 57.699219 36.078125 54.519531 C 36.078125 51.339844 33.5 48.757812 30.320312 48.757812 Z M 30.320312 44.917969 " clip-rule="nonzero"/></clipPath><clipPath id="aacc0dccf3"><path d="M 30.167969 45 L 35.34375 45 L 35.34375 49.570312 L 30.167969 49.570312 Z M 30.167969 45 " clip-rule="nonzero"/></clipPath><clipPath id="c2dcc22f01"><path d="M 32.71875 45.222656 C 33.101562 45.324219 33.476562 45.445312 33.839844 45.589844 C 34.828125 45.976562 35.3125 47.09375 34.921875 48.078125 C 34.535156 49.066406 33.417969 49.550781 32.433594 49.160156 C 32.214844 49.074219 31.988281 49 31.757812 48.941406 C 31.09375 48.769531 30.574219 48.257812 30.390625 47.597656 C 30.207031 46.9375 30.390625 46.226562 30.871094 45.738281 C 31.351562 45.25 32.054688 45.054688 32.71875 45.222656 Z M 32.71875 45.222656 " clip-rule="nonzero"/></clipPath></defs><path stroke-linecap="butt" transform="matrix(-0.00691342, -0.746649, 0.746649, -0.00691342, 111.549435, 76.164087)" fill="none" stroke-linejoin="miter" d="M 0.000645424 0.498821 L 54.002289 0.501824 " stroke="#2b2a2a" stroke-width="1" stroke-opacity="1" stroke-miterlimit="4"/><path stroke-linecap="butt" transform="matrix(-0.00691342, -0.746649, 0.746649, -0.00691342, 168.467328, 76.164087)" fill="none" stroke-linejoin="miter" d="M 0.000644486 0.498923 L 54.002288 0.501926 " stroke="#2b2a2a" stroke-width="1" stroke-opacity="1" stroke-miterlimit="4"/><g fill="#bff5ef" fill-opacity="1"><g transform="translate(63.001737, 46.404907)"><g><path d="M 4.078125 -3.03125 L 3.546875 -3.03125 C 3.503906 -3.238281 3.421875 -3.410156 3.296875 -3.546875 C 3.179688 -3.679688 3.035156 -3.785156 2.859375 -3.859375 C 2.679688 -3.929688 2.5 -3.96875 2.3125 -3.96875 C 2.039062 -3.96875 1.796875 -3.898438 1.578125 -3.765625 C 1.367188 -3.628906 1.195312 -3.429688 1.0625 -3.171875 C 0.9375 -2.910156 0.875 -2.585938 0.875 -2.203125 C 0.875 -1.816406 0.9375 -1.492188 1.0625 -1.234375 C 1.195312 -0.972656 1.367188 -0.773438 1.578125 -0.640625 C 1.796875 -0.503906 2.039062 -0.4375 2.3125 -0.4375 C 2.5 -0.4375 2.679688 -0.472656 2.859375 -0.546875 C 3.035156 -0.617188 3.179688 -0.722656 3.296875 -0.859375 C 3.421875 -1.003906 3.503906 -1.175781 3.546875 -1.375 L 4.078125 -1.375 C 4.023438 -1.070312 3.914062 -0.8125 3.75 -0.59375 C 3.582031 -0.382812 3.375 -0.222656 3.125 -0.109375 C 2.875 0.00390625 2.601562 0.0625 2.3125 0.0625 C 1.9375 0.0625 1.597656 -0.0234375 1.296875 -0.203125 C 1.003906 -0.390625 0.773438 -0.648438 0.609375 -0.984375 C 0.441406 -1.328125 0.359375 -1.734375 0.359375 -2.203125 C 0.359375 -2.671875 0.441406 -3.070312 0.609375 -3.40625 C 0.773438 -3.75 1.003906 -4.007812 1.296875 -4.1875 C 1.597656 -4.375 1.9375 -4.46875 2.3125 -4.46875 C 2.601562 -4.46875 2.875 -4.410156 3.125 -4.296875 C 3.375 -4.179688 3.582031 -4.015625 3.75 -3.796875 C 3.914062 -3.585938 4.023438 -3.332031 4.078125 -3.03125 Z M 4.078125 -3.03125 "/></g></g></g><g fill="#bff5ef" fill-opacity="1"><g transform="translate(67.410732, 46.404907)"><g><path d="M 1.8125 0.0625 C 1.507812 0.0625 1.242188 -0.00390625 1.015625 -0.140625 C 0.796875 -0.285156 0.625 -0.484375 0.5 -0.734375 C 0.375 -0.992188 0.3125 -1.296875 0.3125 -1.640625 C 0.3125 -1.984375 0.375 -2.28125 0.5 -2.53125 C 0.625 -2.789062 0.796875 -2.988281 1.015625 -3.125 C 1.242188 -3.269531 1.507812 -3.34375 1.8125 -3.34375 C 2.101562 -3.34375 2.363281 -3.269531 2.59375 -3.125 C 2.820312 -2.988281 3 -2.789062 3.125 -2.53125 C 3.25 -2.28125 3.3125 -1.984375 3.3125 -1.640625 C 3.3125 -1.296875 3.25 -0.992188 3.125 -0.734375 C 3 -0.484375 2.820312 -0.285156 2.59375 -0.140625 C 2.363281 -0.00390625 2.101562 0.0625 1.8125 0.0625 Z M 1.8125 -0.390625 C 2.039062 -0.390625 2.226562 -0.445312 2.375 -0.5625 C 2.519531 -0.675781 2.625 -0.828125 2.6875 -1.015625 C 2.757812 -1.203125 2.796875 -1.410156 2.796875 -1.640625 C 2.796875 -1.859375 2.757812 -2.0625 2.6875 -2.25 C 2.625 -2.445312 2.519531 -2.601562 2.375 -2.71875 C 2.226562 -2.832031 2.039062 -2.890625 1.8125 -2.890625 C 1.582031 -2.890625 1.394531 -2.832031 1.25 -2.71875 C 1.101562 -2.601562 0.992188 -2.445312 0.921875 -2.25 C 0.847656 -2.0625 0.8125 -1.859375 0.8125 -1.640625 C 0.8125 -1.410156 0.847656 -1.203125 0.921875 -1.015625 C 0.992188 -0.828125 1.101562 -0.675781 1.25 -0.5625 C 1.394531 -0.445312 1.582031 -0.390625 1.8125 -0.390625 Z M 1.8125 -0.390625 "/></g></g></g><g fill="#bff5ef" fill-opacity="1"><g transform="translate(71.027484, 46.404907)"><g><path d="M 2.546875 -1.359375 L 2.546875 -3.3125 L 3.0625 -3.3125 L 3.0625 0 L 2.546875 0 L 2.546875 -0.5625 L 2.515625 -0.5625 C 2.429688 -0.394531 2.304688 -0.25 2.140625 -0.125 C 1.984375 -0.0078125 1.78125 0.046875 1.53125 0.046875 C 1.21875 0.046875 0.960938 -0.0546875 0.765625 -0.265625 C 0.566406 -0.472656 0.46875 -0.785156 0.46875 -1.203125 L 0.46875 -3.3125 L 0.96875 -3.3125 L 0.96875 -1.234375 C 0.96875 -0.992188 1.035156 -0.800781 1.171875 -0.65625 C 1.304688 -0.519531 1.484375 -0.453125 1.703125 -0.453125 C 1.828125 -0.453125 1.953125 -0.484375 2.078125 -0.546875 C 2.210938 -0.609375 2.320312 -0.707031 2.40625 -0.84375 C 2.5 -0.976562 2.546875 -1.148438 2.546875 -1.359375 Z M 2.546875 -1.359375 "/></g></g></g><g fill="#bff5ef" fill-opacity="1"><g transform="translate(74.549517, 46.404907)"><g><path d="M 0.96875 -1.984375 L 0.96875 0 L 0.46875 0 L 0.46875 -3.3125 L 0.953125 -3.3125 L 0.953125 -2.796875 L 1 -2.796875 C 1.070312 -2.960938 1.1875 -3.09375 1.34375 -3.1875 C 1.507812 -3.289062 1.71875 -3.34375 1.96875 -3.34375 C 2.300781 -3.34375 2.566406 -3.238281 2.765625 -3.03125 C 2.972656 -2.832031 3.078125 -2.519531 3.078125 -2.09375 L 3.078125 0 L 2.578125 0 L 2.578125 -2.0625 C 2.578125 -2.320312 2.507812 -2.523438 2.375 -2.671875 C 2.238281 -2.816406 2.050781 -2.890625 1.8125 -2.890625 C 1.570312 -2.890625 1.367188 -2.8125 1.203125 -2.65625 C 1.046875 -2.5 0.96875 -2.273438 0.96875 -1.984375 Z M 0.96875 -1.984375 "/></g></g></g><g fill="#bff5ef" fill-opacity="1"><g transform="translate(78.097382, 46.404907)"><g><path d="M 1.90625 -3.3125 L 1.90625 -2.875 L 1.203125 -2.875 L 1.203125 -0.953125 C 1.203125 -0.804688 1.222656 -0.695312 1.265625 -0.625 C 1.304688 -0.550781 1.359375 -0.503906 1.421875 -0.484375 C 1.492188 -0.460938 1.566406 -0.453125 1.640625 -0.453125 C 1.691406 -0.453125 1.734375 -0.453125 1.765625 -0.453125 C 1.804688 -0.460938 1.835938 -0.46875 1.859375 -0.46875 L 1.96875 -0.015625 C 1.925781 -0.00390625 1.875 0.00390625 1.8125 0.015625 C 1.757812 0.0351562 1.679688 0.046875 1.578125 0.046875 C 1.441406 0.046875 1.300781 0.015625 1.15625 -0.046875 C 1.019531 -0.109375 0.90625 -0.203125 0.8125 -0.328125 C 0.726562 -0.453125 0.6875 -0.613281 0.6875 -0.8125 L 0.6875 -2.875 L 0.1875 -2.875 L 0.1875 -3.3125 L 0.6875 -3.3125 L 0.6875 -4.09375 L 1.203125 -4.09375 L 1.203125 -3.3125 Z M 1.90625 -3.3125 "/></g></g></g><g fill="#bff5ef" fill-opacity="1"><g transform="translate(80.30188, 46.404907)"><g><path d="M 0.46875 0 L 0.46875 -3.3125 L 0.953125 -3.3125 L 0.953125 -2.8125 L 0.984375 -2.8125 C 1.046875 -2.96875 1.15625 -3.097656 1.3125 -3.203125 C 1.46875 -3.304688 1.644531 -3.359375 1.84375 -3.359375 C 1.9375 -3.359375 2.019531 -3.347656 2.09375 -3.328125 C 2.164062 -3.304688 2.226562 -3.273438 2.28125 -3.234375 L 2.09375 -2.8125 C 2.0625 -2.820312 2.019531 -2.832031 1.96875 -2.84375 C 1.925781 -2.863281 1.875 -2.875 1.8125 -2.875 C 1.570312 -2.875 1.367188 -2.796875 1.203125 -2.640625 C 1.046875 -2.492188 0.96875 -2.3125 0.96875 -2.09375 L 0.96875 0 Z M 0.46875 0 "/></g></g></g><g fill="#bff5ef" fill-opacity="1"><g transform="translate(82.626937, 46.404907)"><g><path d="M 0.46875 0 L 0.46875 -3.3125 L 0.96875 -3.3125 L 0.96875 0 Z M 0.71875 -3.859375 C 0.625 -3.859375 0.539062 -3.890625 0.46875 -3.953125 C 0.394531 -4.023438 0.359375 -4.109375 0.359375 -4.203125 C 0.359375 -4.296875 0.394531 -4.375 0.46875 -4.4375 C 0.539062 -4.507812 0.625 -4.546875 0.71875 -4.546875 C 0.820312 -4.546875 0.90625 -4.507812 0.96875 -4.4375 C 1.039062 -4.375 1.078125 -4.296875 1.078125 -4.203125 C 1.078125 -4.109375 1.039062 -4.023438 0.96875 -3.953125 C 0.90625 -3.890625 0.820312 -3.859375 0.71875 -3.859375 Z M 0.71875 -3.859375 "/></g></g></g><g fill="#bff5ef" fill-opacity="1"><g transform="translate(84.065024, 46.404907)"><g><path d="M 1.84375 0.0625 C 1.53125 0.0625 1.257812 -0.00390625 1.03125 -0.140625 C 0.800781 -0.285156 0.625 -0.484375 0.5 -0.734375 C 0.375 -0.992188 0.3125 -1.289062 0.3125 -1.625 C 0.3125 -1.96875 0.375 -2.265625 0.5 -2.515625 C 0.625 -2.773438 0.796875 -2.976562 1.015625 -3.125 C 1.242188 -3.269531 1.503906 -3.34375 1.796875 -3.34375 C 1.972656 -3.34375 2.144531 -3.3125 2.3125 -3.25 C 2.476562 -3.195312 2.628906 -3.109375 2.765625 -2.984375 C 2.898438 -2.859375 3.007812 -2.6875 3.09375 -2.46875 C 3.175781 -2.257812 3.21875 -2.003906 3.21875 -1.703125 L 3.21875 -1.484375 L 0.8125 -1.484375 C 0.832031 -1.128906 0.9375 -0.859375 1.125 -0.671875 C 1.3125 -0.484375 1.550781 -0.390625 1.84375 -0.390625 C 2.050781 -0.390625 2.222656 -0.429688 2.359375 -0.515625 C 2.503906 -0.597656 2.609375 -0.726562 2.671875 -0.90625 L 3.171875 -0.765625 C 3.085938 -0.515625 2.929688 -0.3125 2.703125 -0.15625 C 2.472656 -0.0078125 2.1875 0.0625 1.84375 0.0625 Z M 0.8125 -1.921875 L 2.703125 -1.921875 C 2.703125 -2.203125 2.617188 -2.429688 2.453125 -2.609375 C 2.296875 -2.796875 2.078125 -2.890625 1.796875 -2.890625 C 1.609375 -2.890625 1.441406 -2.84375 1.296875 -2.75 C 1.148438 -2.664062 1.035156 -2.546875 0.953125 -2.390625 C 0.878906 -2.242188 0.832031 -2.085938 0.8125 -1.921875 Z M 0.8125 -1.921875 "/></g></g></g><g fill="#bff5ef" fill-opacity="1"><g transform="translate(87.595668, 46.404907)"><g><path d="M 2.8125 -2.5625 L 2.34375 -2.4375 C 2.300781 -2.550781 2.226562 -2.65625 2.125 -2.75 C 2.019531 -2.851562 1.859375 -2.90625 1.640625 -2.90625 C 1.429688 -2.90625 1.257812 -2.859375 1.125 -2.765625 C 1 -2.679688 0.9375 -2.566406 0.9375 -2.421875 C 0.9375 -2.296875 0.976562 -2.195312 1.0625 -2.125 C 1.15625 -2.050781 1.300781 -1.988281 1.5 -1.9375 L 1.984375 -1.8125 C 2.578125 -1.675781 2.875 -1.378906 2.875 -0.921875 C 2.875 -0.734375 2.816406 -0.5625 2.703125 -0.40625 C 2.597656 -0.257812 2.445312 -0.144531 2.25 -0.0625 C 2.0625 0.0195312 1.835938 0.0625 1.578125 0.0625 C 1.234375 0.0625 0.953125 -0.0078125 0.734375 -0.15625 C 0.515625 -0.300781 0.375 -0.515625 0.3125 -0.796875 L 0.796875 -0.90625 C 0.890625 -0.550781 1.144531 -0.375 1.5625 -0.375 C 1.800781 -0.375 1.988281 -0.425781 2.125 -0.53125 C 2.269531 -0.632812 2.34375 -0.753906 2.34375 -0.890625 C 2.34375 -1.128906 2.175781 -1.285156 1.84375 -1.359375 L 1.296875 -1.484375 C 0.992188 -1.554688 0.769531 -1.664062 0.625 -1.8125 C 0.488281 -1.96875 0.421875 -2.160156 0.421875 -2.390625 C 0.421875 -2.578125 0.472656 -2.742188 0.578125 -2.890625 C 0.679688 -3.035156 0.820312 -3.144531 1 -3.21875 C 1.1875 -3.300781 1.398438 -3.34375 1.640625 -3.34375 C 1.960938 -3.34375 2.21875 -3.269531 2.40625 -3.125 C 2.59375 -2.988281 2.726562 -2.800781 2.8125 -2.5625 Z M 2.8125 -2.5625 "/></g></g></g><g fill="#e9e9e9" fill-opacity="1"><g transform="translate(63.001737, 58.914535)"><g><path d="M 0.9375 0 L 0.9375 -0.796875 L 3.953125 -4.09375 C 4.304688 -4.476562 4.597656 -4.8125 4.828125 -5.09375 C 5.054688 -5.382812 5.222656 -5.65625 5.328125 -5.90625 C 5.441406 -6.164062 5.5 -6.429688 5.5 -6.703125 C 5.5 -7.191406 5.332031 -7.578125 5 -7.859375 C 4.664062 -8.140625 4.25 -8.28125 3.75 -8.28125 C 3.226562 -8.28125 2.8125 -8.117188 2.5 -7.796875 C 2.1875 -7.484375 2.03125 -7.066406 2.03125 -6.546875 L 0.984375 -6.546875 C 0.984375 -7.078125 1.101562 -7.546875 1.34375 -7.953125 C 1.59375 -8.359375 1.929688 -8.671875 2.359375 -8.890625 C 2.785156 -9.117188 3.265625 -9.234375 3.796875 -9.234375 C 4.328125 -9.234375 4.796875 -9.117188 5.203125 -8.890625 C 5.617188 -8.671875 5.941406 -8.367188 6.171875 -7.984375 C 6.410156 -7.597656 6.53125 -7.171875 6.53125 -6.703125 C 6.53125 -6.367188 6.46875 -6.039062 6.34375 -5.71875 C 6.226562 -5.40625 6.019531 -5.050781 5.71875 -4.65625 C 5.425781 -4.269531 5.019531 -3.796875 4.5 -3.234375 L 2.453125 -1.046875 L 2.453125 -0.984375 L 6.6875 -0.984375 L 6.6875 0 Z M 0.9375 0 "/></g></g></g><g fill="#e9e9e9" fill-opacity="1"><g transform="translate(70.581945, 58.914535)"><g><path d="M 3.921875 0.125 C 2.910156 0.125 2.128906 -0.28125 1.578125 -1.09375 C 1.023438 -1.914062 0.75 -3.070312 0.75 -4.5625 C 0.75 -6.03125 1.023438 -7.175781 1.578125 -8 C 2.140625 -8.820312 2.921875 -9.234375 3.921875 -9.234375 C 4.910156 -9.234375 5.679688 -8.820312 6.234375 -8 C 6.796875 -7.175781 7.078125 -6.03125 7.078125 -4.5625 C 7.078125 -3.070312 6.800781 -1.914062 6.25 -1.09375 C 5.695312 -0.28125 4.921875 0.125 3.921875 0.125 Z M 3.921875 -0.859375 C 4.578125 -0.859375 5.085938 -1.175781 5.453125 -1.8125 C 5.828125 -2.457031 6.015625 -3.375 6.015625 -4.5625 C 6.015625 -5.738281 5.828125 -6.648438 5.453125 -7.296875 C 5.085938 -7.953125 4.578125 -8.28125 3.921875 -8.28125 C 3.253906 -8.28125 2.734375 -7.953125 2.359375 -7.296875 C 1.992188 -6.648438 1.8125 -5.738281 1.8125 -4.5625 C 1.8125 -3.375 1.992188 -2.457031 2.359375 -1.8125 C 2.734375 -1.175781 3.253906 -0.859375 3.921875 -0.859375 Z M 3.921875 -0.859375 "/></g></g></g><g fill="#737373" fill-opacity="1"><g transform="translate(80.221994, 58.339619)"><g><path d="M 2.78125 -2.890625 L 1.703125 0 L 1.25 0 L 0.1875 -2.890625 L 0.671875 -2.890625 L 1.46875 -0.59375 L 1.5 -0.59375 L 2.296875 -2.890625 Z M 2.78125 -2.890625 "/></g></g></g><g fill="#737373" fill-opacity="1"><g transform="translate(83.180719, 58.339619)"><g><path d="M 0.40625 0 L 0.40625 -2.890625 L 0.859375 -2.890625 L 0.859375 0 Z M 0.640625 -3.375 C 0.546875 -3.375 0.46875 -3.40625 0.40625 -3.46875 C 0.34375 -3.53125 0.3125 -3.601562 0.3125 -3.6875 C 0.3125 -3.769531 0.34375 -3.835938 0.40625 -3.890625 C 0.46875 -3.953125 0.546875 -3.984375 0.640625 -3.984375 C 0.722656 -3.984375 0.796875 -3.953125 0.859375 -3.890625 C 0.921875 -3.835938 0.953125 -3.769531 0.953125 -3.6875 C 0.953125 -3.601562 0.921875 -3.53125 0.859375 -3.46875 C 0.796875 -3.40625 0.722656 -3.375 0.640625 -3.375 Z M 0.640625 -3.375 "/></g></g></g><g fill="#737373" fill-opacity="1"><g transform="translate(84.441191, 58.339619)"><g><path d="M 2.453125 -2.25 L 2.0625 -2.140625 C 2.019531 -2.234375 1.953125 -2.320312 1.859375 -2.40625 C 1.765625 -2.5 1.625 -2.546875 1.4375 -2.546875 C 1.257812 -2.546875 1.109375 -2.503906 0.984375 -2.421875 C 0.867188 -2.347656 0.8125 -2.25 0.8125 -2.125 C 0.8125 -2.007812 0.851562 -1.921875 0.9375 -1.859375 C 1.019531 -1.796875 1.144531 -1.742188 1.3125 -1.703125 L 1.75 -1.59375 C 2.257812 -1.46875 2.515625 -1.207031 2.515625 -0.8125 C 2.515625 -0.644531 2.46875 -0.492188 2.375 -0.359375 C 2.28125 -0.234375 2.144531 -0.128906 1.96875 -0.046875 C 1.800781 0.0234375 1.601562 0.0625 1.375 0.0625 C 1.082031 0.0625 0.835938 0 0.640625 -0.125 C 0.453125 -0.257812 0.332031 -0.445312 0.28125 -0.6875 L 0.703125 -0.796875 C 0.785156 -0.484375 1.007812 -0.328125 1.375 -0.328125 C 1.582031 -0.328125 1.742188 -0.367188 1.859375 -0.453125 C 1.984375 -0.546875 2.046875 -0.65625 2.046875 -0.78125 C 2.046875 -0.988281 1.90625 -1.125 1.625 -1.1875 L 1.140625 -1.3125 C 0.867188 -1.375 0.671875 -1.46875 0.546875 -1.59375 C 0.429688 -1.726562 0.375 -1.894531 0.375 -2.09375 C 0.375 -2.257812 0.414062 -2.40625 0.5 -2.53125 C 0.59375 -2.65625 0.71875 -2.753906 0.875 -2.828125 C 1.039062 -2.898438 1.226562 -2.9375 1.4375 -2.9375 C 1.71875 -2.9375 1.941406 -2.875 2.109375 -2.75 C 2.273438 -2.625 2.390625 -2.457031 2.453125 -2.25 Z M 2.453125 -2.25 "/></g></g></g><g fill="#737373" fill-opacity="1"><g transform="translate(87.218766, 58.339619)"><g><path d="M 0.40625 0 L 0.40625 -2.890625 L 0.859375 -2.890625 L 0.859375 0 Z M 0.640625 -3.375 C 0.546875 -3.375 0.46875 -3.40625 0.40625 -3.46875 C 0.34375 -3.53125 0.3125 -3.601562 0.3125 -3.6875 C 0.3125 -3.769531 0.34375 -3.835938 0.40625 -3.890625 C 0.46875 -3.953125 0.546875 -3.984375 0.640625 -3.984375 C 0.722656 -3.984375 0.796875 -3.953125 0.859375 -3.890625 C 0.921875 -3.835938 0.953125 -3.769531 0.953125 -3.6875 C 0.953125 -3.601562 0.921875 -3.53125 0.859375 -3.46875 C 0.796875 -3.40625 0.722656 -3.375 0.640625 -3.375 Z M 0.640625 -3.375 "/></g></g></g><g fill="#737373" fill-opacity="1"><g transform="translate(88.479239, 58.339619)"><g><path d="M 1.671875 -2.890625 L 1.671875 -2.515625 L 1.046875 -2.515625 L 1.046875 -0.828125 C 1.046875 -0.703125 1.0625 -0.609375 1.09375 -0.546875 C 1.132812 -0.484375 1.179688 -0.441406 1.234375 -0.421875 C 1.296875 -0.398438 1.363281 -0.390625 1.4375 -0.390625 C 1.476562 -0.390625 1.515625 -0.390625 1.546875 -0.390625 C 1.585938 -0.398438 1.613281 -0.410156 1.625 -0.421875 L 1.71875 -0.015625 C 1.6875 -0.00390625 1.644531 0.00390625 1.59375 0.015625 C 1.539062 0.0234375 1.472656 0.03125 1.390625 0.03125 C 1.265625 0.03125 1.140625 0.00390625 1.015625 -0.046875 C 0.898438 -0.0976562 0.800781 -0.175781 0.71875 -0.28125 C 0.644531 -0.394531 0.609375 -0.535156 0.609375 -0.703125 L 0.609375 -2.515625 L 0.171875 -2.515625 L 0.171875 -2.890625 L 0.609375 -2.890625 L 0.609375 -3.59375 L 1.046875 -3.59375 L 1.046875 -2.890625 Z M 1.671875 -2.890625 "/></g></g></g><g fill="#737373" fill-opacity="1"><g transform="translate(90.411465, 58.339619)"><g><path d="M 1.625 0.0625 C 1.34375 0.0625 1.097656 0 0.890625 -0.125 C 0.691406 -0.25 0.535156 -0.421875 0.421875 -0.640625 C 0.316406 -0.867188 0.265625 -1.128906 0.265625 -1.421875 C 0.265625 -1.722656 0.316406 -1.984375 0.421875 -2.203125 C 0.535156 -2.429688 0.691406 -2.609375 0.890625 -2.734375 C 1.085938 -2.867188 1.316406 -2.9375 1.578125 -2.9375 C 1.722656 -2.9375 1.867188 -2.910156 2.015625 -2.859375 C 2.171875 -2.804688 2.304688 -2.722656 2.421875 -2.609375 C 2.546875 -2.503906 2.644531 -2.359375 2.71875 -2.171875 C 2.789062 -1.984375 2.828125 -1.753906 2.828125 -1.484375 L 2.828125 -1.296875 L 0.71875 -1.296875 C 0.726562 -0.984375 0.816406 -0.742188 0.984375 -0.578125 C 1.148438 -0.421875 1.363281 -0.34375 1.625 -0.34375 C 1.800781 -0.34375 1.953125 -0.378906 2.078125 -0.453125 C 2.203125 -0.523438 2.289062 -0.640625 2.34375 -0.796875 L 2.78125 -0.671875 C 2.707031 -0.453125 2.566406 -0.273438 2.359375 -0.140625 C 2.160156 -0.00390625 1.914062 0.0625 1.625 0.0625 Z M 0.71875 -1.6875 L 2.375 -1.6875 C 2.375 -1.925781 2.300781 -2.125 2.15625 -2.28125 C 2.007812 -2.445312 1.816406 -2.53125 1.578125 -2.53125 C 1.410156 -2.53125 1.265625 -2.488281 1.140625 -2.40625 C 1.015625 -2.332031 0.914062 -2.226562 0.84375 -2.09375 C 0.769531 -1.96875 0.726562 -1.832031 0.71875 -1.6875 Z M 0.71875 -1.6875 "/></g></g></g><g fill="#737373" fill-opacity="1"><g transform="translate(93.506048, 58.339619)"><g><path d="M 1.5 0.0625 C 1.257812 0.0625 1.046875 0 0.859375 -0.125 C 0.671875 -0.25 0.523438 -0.421875 0.421875 -0.640625 C 0.316406 -0.867188 0.265625 -1.132812 0.265625 -1.4375 C 0.265625 -1.738281 0.316406 -2 0.421875 -2.21875 C 0.523438 -2.445312 0.671875 -2.625 0.859375 -2.75 C 1.046875 -2.875 1.265625 -2.9375 1.515625 -2.9375 C 1.703125 -2.9375 1.847656 -2.90625 1.953125 -2.84375 C 2.066406 -2.78125 2.148438 -2.707031 2.203125 -2.625 C 2.265625 -2.550781 2.3125 -2.488281 2.34375 -2.4375 L 2.390625 -2.4375 L 2.390625 -3.859375 L 2.828125 -3.859375 L 2.828125 0 L 2.40625 0 L 2.40625 -0.4375 L 2.34375 -0.4375 C 2.3125 -0.382812 2.265625 -0.316406 2.203125 -0.234375 C 2.140625 -0.160156 2.050781 -0.09375 1.9375 -0.03125 C 1.832031 0.03125 1.6875 0.0625 1.5 0.0625 Z M 1.5625 -0.34375 C 1.832031 -0.34375 2.035156 -0.441406 2.171875 -0.640625 C 2.316406 -0.847656 2.390625 -1.117188 2.390625 -1.453125 C 2.390625 -1.773438 2.316406 -2.035156 2.171875 -2.234375 C 2.035156 -2.429688 1.832031 -2.53125 1.5625 -2.53125 C 1.375 -2.53125 1.21875 -2.484375 1.09375 -2.390625 C 0.96875 -2.296875 0.875 -2.164062 0.8125 -2 C 0.75 -1.832031 0.71875 -1.648438 0.71875 -1.453125 C 0.71875 -1.242188 0.75 -1.054688 0.8125 -0.890625 C 0.875 -0.722656 0.96875 -0.585938 1.09375 -0.484375 C 1.21875 -0.390625 1.375 -0.34375 1.5625 -0.34375 Z M 1.5625 -0.34375 "/></g></g></g><g fill="#737373" fill-opacity="1"><g transform="translate(63.001737, 68.831669)"><g><path d="M 2.03125 -4.625 L 0.609375 0.671875 L 0.140625 0.671875 L 1.5625 -4.625 Z M 2.03125 -4.625 "/></g></g></g><g fill="#737373" fill-opacity="1"><g transform="translate(65.169224, 68.831669)"><g/></g></g><g fill="#737373" fill-opacity="1"><g transform="translate(66.879029, 68.831669)"><g><path d="M 1.875 -4.421875 L 1.875 0 L 1.34375 0 L 1.34375 -3.640625 L 1.296875 -3.640625 C 1.285156 -3.597656 1.234375 -3.550781 1.140625 -3.5 C 1.054688 -3.457031 0.945312 -3.414062 0.8125 -3.375 C 0.6875 -3.332031 0.539062 -3.3125 0.375 -3.3125 L 0.375 -3.765625 C 0.539062 -3.765625 0.6875 -3.796875 0.8125 -3.859375 C 0.9375 -3.921875 1.039062 -3.992188 1.125 -4.078125 C 1.207031 -4.160156 1.269531 -4.234375 1.3125 -4.296875 C 1.363281 -4.367188 1.394531 -4.410156 1.40625 -4.421875 Z M 1.875 -4.421875 "/></g></g></g><g fill="#737373" fill-opacity="1"><g transform="translate(69.564633, 68.831669)"><g><path d="M 1.859375 -4.484375 C 2.046875 -4.484375 2.226562 -4.445312 2.40625 -4.375 C 2.59375 -4.3125 2.757812 -4.203125 2.90625 -4.046875 C 3.050781 -3.890625 3.171875 -3.675781 3.265625 -3.40625 C 3.359375 -3.132812 3.40625 -2.796875 3.40625 -2.390625 C 3.40625 -1.609375 3.257812 -1.003906 2.96875 -0.578125 C 2.6875 -0.148438 2.296875 0.0625 1.796875 0.0625 C 1.421875 0.0625 1.109375 -0.046875 0.859375 -0.265625 C 0.617188 -0.484375 0.472656 -0.765625 0.421875 -1.109375 L 0.953125 -1.109375 C 0.992188 -0.910156 1.085938 -0.742188 1.234375 -0.609375 C 1.378906 -0.484375 1.566406 -0.421875 1.796875 -0.421875 C 2.140625 -0.421875 2.410156 -0.566406 2.609375 -0.859375 C 2.804688 -1.160156 2.90625 -1.582031 2.90625 -2.125 L 2.859375 -2.125 C 2.742188 -1.945312 2.59375 -1.800781 2.40625 -1.6875 C 2.21875 -1.582031 2.007812 -1.53125 1.78125 -1.53125 C 1.53125 -1.53125 1.296875 -1.59375 1.078125 -1.71875 C 0.867188 -1.851562 0.703125 -2.03125 0.578125 -2.25 C 0.453125 -2.46875 0.390625 -2.71875 0.390625 -3 C 0.390625 -3.28125 0.445312 -3.53125 0.5625 -3.75 C 0.6875 -3.976562 0.859375 -4.160156 1.078125 -4.296875 C 1.304688 -4.429688 1.566406 -4.492188 1.859375 -4.484375 Z M 1.859375 -4.015625 C 1.679688 -4.015625 1.519531 -3.96875 1.375 -3.875 C 1.226562 -3.789062 1.113281 -3.671875 1.03125 -3.515625 C 0.945312 -3.359375 0.90625 -3.1875 0.90625 -3 C 0.90625 -2.820312 0.945312 -2.65625 1.03125 -2.5 C 1.113281 -2.351562 1.222656 -2.234375 1.359375 -2.140625 C 1.503906 -2.054688 1.664062 -2.015625 1.84375 -2.015625 C 2.03125 -2.015625 2.195312 -2.0625 2.34375 -2.15625 C 2.488281 -2.25 2.601562 -2.367188 2.6875 -2.515625 C 2.78125 -2.671875 2.828125 -2.835938 2.828125 -3.015625 C 2.828125 -3.191406 2.785156 -3.351562 2.703125 -3.5 C 2.617188 -3.65625 2.503906 -3.78125 2.359375 -3.875 C 2.210938 -3.96875 2.046875 -4.015625 1.859375 -4.015625 Z M 1.859375 -4.015625 "/></g></g></g><g fill="#737373" fill-opacity="1"><g transform="translate(73.355569, 68.831669)"><g><path d="M 1.84375 0.0625 C 1.582031 0.0625 1.347656 0.015625 1.140625 -0.078125 C 0.941406 -0.179688 0.78125 -0.320312 0.65625 -0.5 C 0.539062 -0.675781 0.476562 -0.878906 0.46875 -1.109375 L 0.984375 -1.109375 C 1.003906 -0.910156 1.09375 -0.742188 1.25 -0.609375 C 1.414062 -0.484375 1.613281 -0.421875 1.84375 -0.421875 C 2.019531 -0.421875 2.175781 -0.460938 2.3125 -0.546875 C 2.457031 -0.628906 2.570312 -0.742188 2.65625 -0.890625 C 2.738281 -1.035156 2.78125 -1.207031 2.78125 -1.40625 C 2.78125 -1.59375 2.738281 -1.757812 2.65625 -1.90625 C 2.570312 -2.0625 2.457031 -2.179688 2.3125 -2.265625 C 2.164062 -2.359375 1.992188 -2.40625 1.796875 -2.40625 C 1.660156 -2.40625 1.519531 -2.382812 1.375 -2.34375 C 1.238281 -2.300781 1.125 -2.25 1.03125 -2.1875 L 0.53125 -2.25 L 0.796875 -4.421875 L 3.09375 -4.421875 L 3.09375 -3.953125 L 1.25 -3.953125 L 1.09375 -2.640625 L 1.125 -2.640625 C 1.21875 -2.710938 1.332031 -2.769531 1.46875 -2.8125 C 1.601562 -2.863281 1.742188 -2.890625 1.890625 -2.890625 C 2.160156 -2.890625 2.398438 -2.820312 2.609375 -2.6875 C 2.828125 -2.5625 2.992188 -2.390625 3.109375 -2.171875 C 3.234375 -1.953125 3.296875 -1.695312 3.296875 -1.40625 C 3.296875 -1.125 3.234375 -0.875 3.109375 -0.65625 C 2.984375 -0.4375 2.8125 -0.257812 2.59375 -0.125 C 2.375 0 2.125 0.0625 1.84375 0.0625 Z M 1.84375 0.0625 "/></g></g></g><g fill="#bff5ef" fill-opacity="1"><g transform="translate(120.268339, 46.404907)"><g><path d="M 2.9375 -3.3125 C 2.914062 -3.53125 2.8125 -3.695312 2.625 -3.8125 C 2.445312 -3.9375 2.222656 -4 1.953125 -4 C 1.660156 -4 1.425781 -3.925781 1.25 -3.78125 C 1.070312 -3.644531 0.984375 -3.472656 0.984375 -3.265625 C 0.984375 -3.109375 1.03125 -2.976562 1.125 -2.875 C 1.21875 -2.78125 1.332031 -2.707031 1.46875 -2.65625 C 1.601562 -2.601562 1.722656 -2.5625 1.828125 -2.53125 L 2.28125 -2.40625 C 2.394531 -2.375 2.519531 -2.332031 2.65625 -2.28125 C 2.800781 -2.226562 2.9375 -2.15625 3.0625 -2.0625 C 3.195312 -1.976562 3.304688 -1.863281 3.390625 -1.71875 C 3.472656 -1.570312 3.515625 -1.398438 3.515625 -1.203125 C 3.515625 -0.960938 3.453125 -0.742188 3.328125 -0.546875 C 3.210938 -0.359375 3.035156 -0.207031 2.796875 -0.09375 C 2.554688 0.0195312 2.265625 0.078125 1.921875 0.078125 C 1.453125 0.078125 1.078125 -0.03125 0.796875 -0.25 C 0.523438 -0.476562 0.375 -0.773438 0.34375 -1.140625 L 0.890625 -1.140625 C 0.910156 -0.972656 0.96875 -0.832031 1.0625 -0.71875 C 1.164062 -0.613281 1.289062 -0.535156 1.4375 -0.484375 C 1.59375 -0.429688 1.753906 -0.40625 1.921875 -0.40625 C 2.128906 -0.40625 2.3125 -0.4375 2.46875 -0.5 C 2.632812 -0.570312 2.765625 -0.664062 2.859375 -0.78125 C 2.953125 -0.90625 3 -1.046875 3 -1.203125 C 3 -1.347656 2.957031 -1.46875 2.875 -1.5625 C 2.800781 -1.65625 2.695312 -1.726562 2.5625 -1.78125 C 2.425781 -1.84375 2.28125 -1.894531 2.125 -1.9375 L 1.578125 -2.09375 C 1.234375 -2.1875 0.960938 -2.328125 0.765625 -2.515625 C 0.566406 -2.703125 0.46875 -2.941406 0.46875 -3.234375 C 0.46875 -3.484375 0.535156 -3.695312 0.671875 -3.875 C 0.804688 -4.0625 0.984375 -4.207031 1.203125 -4.3125 C 1.429688 -4.414062 1.6875 -4.46875 1.96875 -4.46875 C 2.25 -4.46875 2.5 -4.414062 2.71875 -4.3125 C 2.945312 -4.21875 3.125 -4.082031 3.25 -3.90625 C 3.382812 -3.726562 3.457031 -3.53125 3.46875 -3.3125 Z M 2.9375 -3.3125 "/></g></g></g><g fill="#bff5ef" fill-opacity="1"><g transform="translate(124.13482, 46.404907)"><g><path d="M 1.90625 -3.3125 L 1.90625 -2.875 L 1.203125 -2.875 L 1.203125 -0.953125 C 1.203125 -0.804688 1.222656 -0.695312 1.265625 -0.625 C 1.304688 -0.550781 1.359375 -0.503906 1.421875 -0.484375 C 1.492188 -0.460938 1.566406 -0.453125 1.640625 -0.453125 C 1.691406 -0.453125 1.734375 -0.453125 1.765625 -0.453125 C 1.804688 -0.460938 1.835938 -0.46875 1.859375 -0.46875 L 1.96875 -0.015625 C 1.925781 -0.00390625 1.875 0.00390625 1.8125 0.015625 C 1.757812 0.0351562 1.679688 0.046875 1.578125 0.046875 C 1.441406 0.046875 1.300781 0.015625 1.15625 -0.046875 C 1.019531 -0.109375 0.90625 -0.203125 0.8125 -0.328125 C 0.726562 -0.453125 0.6875 -0.613281 0.6875 -0.8125 L 0.6875 -2.875 L 0.1875 -2.875 L 0.1875 -3.3125 L 0.6875 -3.3125 L 0.6875 -4.09375 L 1.203125 -4.09375 L 1.203125 -3.3125 Z M 1.90625 -3.3125 "/></g></g></g><g fill="#bff5ef" fill-opacity="1"><g transform="translate(126.339318, 46.404907)"><g><path d="M 1.4375 0.078125 C 1.226562 0.078125 1.035156 0.0390625 0.859375 -0.03125 C 0.691406 -0.113281 0.554688 -0.226562 0.453125 -0.375 C 0.359375 -0.53125 0.3125 -0.71875 0.3125 -0.9375 C 0.3125 -1.125 0.347656 -1.273438 0.421875 -1.390625 C 0.492188 -1.515625 0.59375 -1.609375 0.71875 -1.671875 C 0.84375 -1.742188 0.976562 -1.796875 1.125 -1.828125 C 1.28125 -1.859375 1.4375 -1.882812 1.59375 -1.90625 C 1.789062 -1.9375 1.953125 -1.957031 2.078125 -1.96875 C 2.203125 -1.976562 2.296875 -2 2.359375 -2.03125 C 2.421875 -2.070312 2.453125 -2.132812 2.453125 -2.21875 L 2.453125 -2.234375 C 2.453125 -2.441406 2.390625 -2.601562 2.265625 -2.71875 C 2.148438 -2.84375 1.976562 -2.90625 1.75 -2.90625 C 1.507812 -2.90625 1.316406 -2.847656 1.171875 -2.734375 C 1.035156 -2.628906 0.941406 -2.519531 0.890625 -2.40625 L 0.40625 -2.578125 C 0.488281 -2.773438 0.601562 -2.929688 0.75 -3.046875 C 0.894531 -3.160156 1.050781 -3.238281 1.21875 -3.28125 C 1.394531 -3.320312 1.566406 -3.34375 1.734375 -3.34375 C 1.835938 -3.34375 1.957031 -3.332031 2.09375 -3.3125 C 2.238281 -3.289062 2.375 -3.238281 2.5 -3.15625 C 2.632812 -3.082031 2.742188 -2.96875 2.828125 -2.8125 C 2.910156 -2.65625 2.953125 -2.441406 2.953125 -2.171875 L 2.953125 0 L 2.453125 0 L 2.453125 -0.453125 L 2.421875 -0.453125 C 2.390625 -0.378906 2.332031 -0.300781 2.25 -0.21875 C 2.164062 -0.132812 2.054688 -0.0625 1.921875 0 C 1.796875 0.0507812 1.632812 0.078125 1.4375 0.078125 Z M 1.515625 -0.375 C 1.710938 -0.375 1.878906 -0.410156 2.015625 -0.484375 C 2.160156 -0.566406 2.269531 -0.671875 2.34375 -0.796875 C 2.414062 -0.921875 2.453125 -1.054688 2.453125 -1.203125 L 2.453125 -1.65625 C 2.421875 -1.632812 2.367188 -1.613281 2.296875 -1.59375 C 2.234375 -1.570312 2.148438 -1.550781 2.046875 -1.53125 C 1.953125 -1.519531 1.863281 -1.507812 1.78125 -1.5 C 1.695312 -1.488281 1.625 -1.476562 1.5625 -1.46875 C 1.4375 -1.457031 1.316406 -1.429688 1.203125 -1.390625 C 1.085938 -1.347656 0.992188 -1.289062 0.921875 -1.21875 C 0.847656 -1.144531 0.8125 -1.039062 0.8125 -0.90625 C 0.8125 -0.726562 0.878906 -0.59375 1.015625 -0.5 C 1.148438 -0.414062 1.316406 -0.375 1.515625 -0.375 Z M 1.515625 -0.375 "/></g></g></g><g fill="#bff5ef" fill-opacity="1"><g transform="translate(129.758013, 46.404907)"><g><path d="M 1.90625 -3.3125 L 1.90625 -2.875 L 1.203125 -2.875 L 1.203125 -0.953125 C 1.203125 -0.804688 1.222656 -0.695312 1.265625 -0.625 C 1.304688 -0.550781 1.359375 -0.503906 1.421875 -0.484375 C 1.492188 -0.460938 1.566406 -0.453125 1.640625 -0.453125 C 1.691406 -0.453125 1.734375 -0.453125 1.765625 -0.453125 C 1.804688 -0.460938 1.835938 -0.46875 1.859375 -0.46875 L 1.96875 -0.015625 C 1.925781 -0.00390625 1.875 0.00390625 1.8125 0.015625 C 1.757812 0.0351562 1.679688 0.046875 1.578125 0.046875 C 1.441406 0.046875 1.300781 0.015625 1.15625 -0.046875 C 1.019531 -0.109375 0.90625 -0.203125 0.8125 -0.328125 C 0.726562 -0.453125 0.6875 -0.613281 0.6875 -0.8125 L 0.6875 -2.875 L 0.1875 -2.875 L 0.1875 -3.3125 L 0.6875 -3.3125 L 0.6875 -4.09375 L 1.203125 -4.09375 L 1.203125 -3.3125 Z M 1.90625 -3.3125 "/></g></g></g><g fill="#bff5ef" fill-opacity="1"><g transform="translate(131.962511, 46.404907)"><g><path d="M 1.84375 0.0625 C 1.53125 0.0625 1.257812 -0.00390625 1.03125 -0.140625 C 0.800781 -0.285156 0.625 -0.484375 0.5 -0.734375 C 0.375 -0.992188 0.3125 -1.289062 0.3125 -1.625 C 0.3125 -1.96875 0.375 -2.265625 0.5 -2.515625 C 0.625 -2.773438 0.796875 -2.976562 1.015625 -3.125 C 1.242188 -3.269531 1.503906 -3.34375 1.796875 -3.34375 C 1.972656 -3.34375 2.144531 -3.3125 2.3125 -3.25 C 2.476562 -3.195312 2.628906 -3.109375 2.765625 -2.984375 C 2.898438 -2.859375 3.007812 -2.6875 3.09375 -2.46875 C 3.175781 -2.257812 3.21875 -2.003906 3.21875 -1.703125 L 3.21875 -1.484375 L 0.8125 -1.484375 C 0.832031 -1.128906 0.9375 -0.859375 1.125 -0.671875 C 1.3125 -0.484375 1.550781 -0.390625 1.84375 -0.390625 C 2.050781 -0.390625 2.222656 -0.429688 2.359375 -0.515625 C 2.503906 -0.597656 2.609375 -0.726562 2.671875 -0.90625 L 3.171875 -0.765625 C 3.085938 -0.515625 2.929688 -0.3125 2.703125 -0.15625 C 2.472656 -0.0078125 2.1875 0.0625 1.84375 0.0625 Z M 0.8125 -1.921875 L 2.703125 -1.921875 C 2.703125 -2.203125 2.617188 -2.429688 2.453125 -2.609375 C 2.296875 -2.796875 2.078125 -2.890625 1.796875 -2.890625 C 1.609375 -2.890625 1.441406 -2.84375 1.296875 -2.75 C 1.148438 -2.664062 1.035156 -2.546875 0.953125 -2.390625 C 0.878906 -2.242188 0.832031 -2.085938 0.8125 -1.921875 Z M 0.8125 -1.921875 "/></g></g></g><g fill="#bff5ef" fill-opacity="1"><g transform="translate(135.493154, 46.404907)"><g><path d="M 2.8125 -2.5625 L 2.34375 -2.4375 C 2.300781 -2.550781 2.226562 -2.65625 2.125 -2.75 C 2.019531 -2.851562 1.859375 -2.90625 1.640625 -2.90625 C 1.429688 -2.90625 1.257812 -2.859375 1.125 -2.765625 C 1 -2.679688 0.9375 -2.566406 0.9375 -2.421875 C 0.9375 -2.296875 0.976562 -2.195312 1.0625 -2.125 C 1.15625 -2.050781 1.300781 -1.988281 1.5 -1.9375 L 1.984375 -1.8125 C 2.578125 -1.675781 2.875 -1.378906 2.875 -0.921875 C 2.875 -0.734375 2.816406 -0.5625 2.703125 -0.40625 C 2.597656 -0.257812 2.445312 -0.144531 2.25 -0.0625 C 2.0625 0.0195312 1.835938 0.0625 1.578125 0.0625 C 1.234375 0.0625 0.953125 -0.0078125 0.734375 -0.15625 C 0.515625 -0.300781 0.375 -0.515625 0.3125 -0.796875 L 0.796875 -0.90625 C 0.890625 -0.550781 1.144531 -0.375 1.5625 -0.375 C 1.800781 -0.375 1.988281 -0.425781 2.125 -0.53125 C 2.269531 -0.632812 2.34375 -0.753906 2.34375 -0.890625 C 2.34375 -1.128906 2.175781 -1.285156 1.84375 -1.359375 L 1.296875 -1.484375 C 0.992188 -1.554688 0.769531 -1.664062 0.625 -1.8125 C 0.488281 -1.96875 0.421875 -2.160156 0.421875 -2.390625 C 0.421875 -2.578125 0.472656 -2.742188 0.578125 -2.890625 C 0.679688 -3.035156 0.820312 -3.144531 1 -3.21875 C 1.1875 -3.300781 1.398438 -3.34375 1.640625 -3.34375 C 1.960938 -3.34375 2.21875 -3.269531 2.40625 -3.125 C 2.59375 -2.988281 2.726562 -2.800781 2.8125 -2.5625 Z M 2.8125 -2.5625 "/></g></g></g><g fill="#e9e9e9" fill-opacity="1"><g transform="translate(120.268339, 58.914535)"><g><path d="M 0.9375 0 L 0.9375 -0.796875 L 3.953125 -4.09375 C 4.304688 -4.476562 4.597656 -4.8125 4.828125 -5.09375 C 5.054688 -5.382812 5.222656 -5.65625 5.328125 -5.90625 C 5.441406 -6.164062 5.5 -6.429688 5.5 -6.703125 C 5.5 -7.191406 5.332031 -7.578125 5 -7.859375 C 4.664062 -8.140625 4.25 -8.28125 3.75 -8.28125 C 3.226562 -8.28125 2.8125 -8.117188 2.5 -7.796875 C 2.1875 -7.484375 2.03125 -7.066406 2.03125 -6.546875 L 0.984375 -6.546875 C 0.984375 -7.078125 1.101562 -7.546875 1.34375 -7.953125 C 1.59375 -8.359375 1.929688 -8.671875 2.359375 -8.890625 C 2.785156 -9.117188 3.265625 -9.234375 3.796875 -9.234375 C 4.328125 -9.234375 4.796875 -9.117188 5.203125 -8.890625 C 5.617188 -8.671875 5.941406 -8.367188 6.171875 -7.984375 C 6.410156 -7.597656 6.53125 -7.171875 6.53125 -6.703125 C 6.53125 -6.367188 6.46875 -6.039062 6.34375 -5.71875 C 6.226562 -5.40625 6.019531 -5.050781 5.71875 -4.65625 C 5.425781 -4.269531 5.019531 -3.796875 4.5 -3.234375 L 2.453125 -1.046875 L 2.453125 -0.984375 L 6.6875 -0.984375 L 6.6875 0 Z M 0.9375 0 "/></g></g></g><g fill="#e9e9e9" fill-opacity="1"><g transform="translate(127.848547, 58.914535)"><g><path d="M 3.921875 0.125 C 2.910156 0.125 2.128906 -0.28125 1.578125 -1.09375 C 1.023438 -1.914062 0.75 -3.070312 0.75 -4.5625 C 0.75 -6.03125 1.023438 -7.175781 1.578125 -8 C 2.140625 -8.820312 2.921875 -9.234375 3.921875 -9.234375 C 4.910156 -9.234375 5.679688 -8.820312 6.234375 -8 C 6.796875 -7.175781 7.078125 -6.03125 7.078125 -4.5625 C 7.078125 -3.070312 6.800781 -1.914062 6.25 -1.09375 C 5.695312 -0.28125 4.921875 0.125 3.921875 0.125 Z M 3.921875 -0.859375 C 4.578125 -0.859375 5.085938 -1.175781 5.453125 -1.8125 C 5.828125 -2.457031 6.015625 -3.375 6.015625 -4.5625 C 6.015625 -5.738281 5.828125 -6.648438 5.453125 -7.296875 C 5.085938 -7.953125 4.578125 -8.28125 3.921875 -8.28125 C 3.253906 -8.28125 2.734375 -7.953125 2.359375 -7.296875 C 1.992188 -6.648438 1.8125 -5.738281 1.8125 -4.5625 C 1.8125 -3.375 1.992188 -2.457031 2.359375 -1.8125 C 2.734375 -1.175781 3.253906 -0.859375 3.921875 -0.859375 Z M 3.921875 -0.859375 "/></g></g></g><g fill="#737373" fill-opacity="1"><g transform="translate(137.488584, 58.339619)"><g><path d="M 2.78125 -2.890625 L 1.703125 0 L 1.25 0 L 0.1875 -2.890625 L 0.671875 -2.890625 L 1.46875 -0.59375 L 1.5 -0.59375 L 2.296875 -2.890625 Z M 2.78125 -2.890625 "/></g></g></g><g fill="#737373" fill-opacity="1"><g transform="translate(140.447308, 58.339619)"><g><path d="M 0.40625 0 L 0.40625 -2.890625 L 0.859375 -2.890625 L 0.859375 0 Z M 0.640625 -3.375 C 0.546875 -3.375 0.46875 -3.40625 0.40625 -3.46875 C 0.34375 -3.53125 0.3125 -3.601562 0.3125 -3.6875 C 0.3125 -3.769531 0.34375 -3.835938 0.40625 -3.890625 C 0.46875 -3.953125 0.546875 -3.984375 0.640625 -3.984375 C 0.722656 -3.984375 0.796875 -3.953125 0.859375 -3.890625 C 0.921875 -3.835938 0.953125 -3.769531 0.953125 -3.6875 C 0.953125 -3.601562 0.921875 -3.53125 0.859375 -3.46875 C 0.796875 -3.40625 0.722656 -3.375 0.640625 -3.375 Z M 0.640625 -3.375 "/></g></g></g><g fill="#737373" fill-opacity="1"><g transform="translate(141.707781, 58.339619)"><g><path d="M 2.453125 -2.25 L 2.0625 -2.140625 C 2.019531 -2.234375 1.953125 -2.320312 1.859375 -2.40625 C 1.765625 -2.5 1.625 -2.546875 1.4375 -2.546875 C 1.257812 -2.546875 1.109375 -2.503906 0.984375 -2.421875 C 0.867188 -2.347656 0.8125 -2.25 0.8125 -2.125 C 0.8125 -2.007812 0.851562 -1.921875 0.9375 -1.859375 C 1.019531 -1.796875 1.144531 -1.742188 1.3125 -1.703125 L 1.75 -1.59375 C 2.257812 -1.46875 2.515625 -1.207031 2.515625 -0.8125 C 2.515625 -0.644531 2.46875 -0.492188 2.375 -0.359375 C 2.28125 -0.234375 2.144531 -0.128906 1.96875 -0.046875 C 1.800781 0.0234375 1.601562 0.0625 1.375 0.0625 C 1.082031 0.0625 0.835938 0 0.640625 -0.125 C 0.453125 -0.257812 0.332031 -0.445312 0.28125 -0.6875 L 0.703125 -0.796875 C 0.785156 -0.484375 1.007812 -0.328125 1.375 -0.328125 C 1.582031 -0.328125 1.742188 -0.367188 1.859375 -0.453125 C 1.984375 -0.546875 2.046875 -0.65625 2.046875 -0.78125 C 2.046875 -0.988281 1.90625 -1.125 1.625 -1.1875 L 1.140625 -1.3125 C 0.867188 -1.375 0.671875 -1.46875 0.546875 -1.59375 C 0.429688 -1.726562 0.375 -1.894531 0.375 -2.09375 C 0.375 -2.257812 0.414062 -2.40625 0.5 -2.53125 C 0.59375 -2.65625 0.71875 -2.753906 0.875 -2.828125 C 1.039062 -2.898438 1.226562 -2.9375 1.4375 -2.9375 C 1.71875 -2.9375 1.941406 -2.875 2.109375 -2.75 C 2.273438 -2.625 2.390625 -2.457031 2.453125 -2.25 Z M 2.453125 -2.25 "/></g></g></g><g fill="#737373" fill-opacity="1"><g transform="translate(144.485356, 58.339619)"><g><path d="M 0.40625 0 L 0.40625 -2.890625 L 0.859375 -2.890625 L 0.859375 0 Z M 0.640625 -3.375 C 0.546875 -3.375 0.46875 -3.40625 0.40625 -3.46875 C 0.34375 -3.53125 0.3125 -3.601562 0.3125 -3.6875 C 0.3125 -3.769531 0.34375 -3.835938 0.40625 -3.890625 C 0.46875 -3.953125 0.546875 -3.984375 0.640625 -3.984375 C 0.722656 -3.984375 0.796875 -3.953125 0.859375 -3.890625 C 0.921875 -3.835938 0.953125 -3.769531 0.953125 -3.6875 C 0.953125 -3.601562 0.921875 -3.53125 0.859375 -3.46875 C 0.796875 -3.40625 0.722656 -3.375 0.640625 -3.375 Z M 0.640625 -3.375 "/></g></g></g><g fill="#737373" fill-opacity="1"><g transform="translate(145.745829, 58.339619)"><g><path d="M 1.671875 -2.890625 L 1.671875 -2.515625 L 1.046875 -2.515625 L 1.046875 -0.828125 C 1.046875 -0.703125 1.0625 -0.609375 1.09375 -0.546875 C 1.132812 -0.484375 1.179688 -0.441406 1.234375 -0.421875 C 1.296875 -0.398438 1.363281 -0.390625 1.4375 -0.390625 C 1.476562 -0.390625 1.515625 -0.390625 1.546875 -0.390625 C 1.585938 -0.398438 1.613281 -0.410156 1.625 -0.421875 L 1.71875 -0.015625 C 1.6875 -0.00390625 1.644531 0.00390625 1.59375 0.015625 C 1.539062 0.0234375 1.472656 0.03125 1.390625 0.03125 C 1.265625 0.03125 1.140625 0.00390625 1.015625 -0.046875 C 0.898438 -0.0976562 0.800781 -0.175781 0.71875 -0.28125 C 0.644531 -0.394531 0.609375 -0.535156 0.609375 -0.703125 L 0.609375 -2.515625 L 0.171875 -2.515625 L 0.171875 -2.890625 L 0.609375 -2.890625 L 0.609375 -3.59375 L 1.046875 -3.59375 L 1.046875 -2.890625 Z M 1.671875 -2.890625 "/></g></g></g><g fill="#737373" fill-opacity="1"><g transform="translate(147.678055, 58.339619)"><g><path d="M 1.625 0.0625 C 1.34375 0.0625 1.097656 0 0.890625 -0.125 C 0.691406 -0.25 0.535156 -0.421875 0.421875 -0.640625 C 0.316406 -0.867188 0.265625 -1.128906 0.265625 -1.421875 C 0.265625 -1.722656 0.316406 -1.984375 0.421875 -2.203125 C 0.535156 -2.429688 0.691406 -2.609375 0.890625 -2.734375 C 1.085938 -2.867188 1.316406 -2.9375 1.578125 -2.9375 C 1.722656 -2.9375 1.867188 -2.910156 2.015625 -2.859375 C 2.171875 -2.804688 2.304688 -2.722656 2.421875 -2.609375 C 2.546875 -2.503906 2.644531 -2.359375 2.71875 -2.171875 C 2.789062 -1.984375 2.828125 -1.753906 2.828125 -1.484375 L 2.828125 -1.296875 L 0.71875 -1.296875 C 0.726562 -0.984375 0.816406 -0.742188 0.984375 -0.578125 C 1.148438 -0.421875 1.363281 -0.34375 1.625 -0.34375 C 1.800781 -0.34375 1.953125 -0.378906 2.078125 -0.453125 C 2.203125 -0.523438 2.289062 -0.640625 2.34375 -0.796875 L 2.78125 -0.671875 C 2.707031 -0.453125 2.566406 -0.273438 2.359375 -0.140625 C 2.160156 -0.00390625 1.914062 0.0625 1.625 0.0625 Z M 0.71875 -1.6875 L 2.375 -1.6875 C 2.375 -1.925781 2.300781 -2.125 2.15625 -2.28125 C 2.007812 -2.445312 1.816406 -2.53125 1.578125 -2.53125 C 1.410156 -2.53125 1.265625 -2.488281 1.140625 -2.40625 C 1.015625 -2.332031 0.914062 -2.226562 0.84375 -2.09375 C 0.769531 -1.96875 0.726562 -1.832031 0.71875 -1.6875 Z M 0.71875 -1.6875 "/></g></g></g><g fill="#737373" fill-opacity="1"><g transform="translate(150.772638, 58.339619)"><g><path d="M 1.5 0.0625 C 1.257812 0.0625 1.046875 0 0.859375 -0.125 C 0.671875 -0.25 0.523438 -0.421875 0.421875 -0.640625 C 0.316406 -0.867188 0.265625 -1.132812 0.265625 -1.4375 C 0.265625 -1.738281 0.316406 -2 0.421875 -2.21875 C 0.523438 -2.445312 0.671875 -2.625 0.859375 -2.75 C 1.046875 -2.875 1.265625 -2.9375 1.515625 -2.9375 C 1.703125 -2.9375 1.847656 -2.90625 1.953125 -2.84375 C 2.066406 -2.78125 2.148438 -2.707031 2.203125 -2.625 C 2.265625 -2.550781 2.3125 -2.488281 2.34375 -2.4375 L 2.390625 -2.4375 L 2.390625 -3.859375 L 2.828125 -3.859375 L 2.828125 0 L 2.40625 0 L 2.40625 -0.4375 L 2.34375 -0.4375 C 2.3125 -0.382812 2.265625 -0.316406 2.203125 -0.234375 C 2.140625 -0.160156 2.050781 -0.09375 1.9375 -0.03125 C 1.832031 0.03125 1.6875 0.0625 1.5 0.0625 Z M 1.5625 -0.34375 C 1.832031 -0.34375 2.035156 -0.441406 2.171875 -0.640625 C 2.316406 -0.847656 2.390625 -1.117188 2.390625 -1.453125 C 2.390625 -1.773438 2.316406 -2.035156 2.171875 -2.234375 C 2.035156 -2.429688 1.832031 -2.53125 1.5625 -2.53125 C 1.375 -2.53125 1.21875 -2.484375 1.09375 -2.390625 C 0.96875 -2.296875 0.875 -2.164062 0.8125 -2 C 0.75 -1.832031 0.71875 -1.648438 0.71875 -1.453125 C 0.71875 -1.242188 0.75 -1.054688 0.8125 -0.890625 C 0.875 -0.722656 0.96875 -0.585938 1.09375 -0.484375 C 1.21875 -0.390625 1.375 -0.34375 1.5625 -0.34375 Z M 1.5625 -0.34375 "/></g></g></g><g fill="#737373" fill-opacity="1"><g transform="translate(120.268339, 68.831669)"><g><path d="M 2.03125 -4.625 L 0.609375 0.671875 L 0.140625 0.671875 L 1.5625 -4.625 Z M 2.03125 -4.625 "/></g></g></g><g fill="#737373" fill-opacity="1"><g transform="translate(122.435825, 68.831669)"><g/></g></g><g fill="#737373" fill-opacity="1"><g transform="translate(124.145631, 68.831669)"><g><path d="M 0.453125 0 L 0.453125 -0.390625 L 1.921875 -1.984375 C 2.085938 -2.171875 2.222656 -2.332031 2.328125 -2.46875 C 2.441406 -2.613281 2.523438 -2.742188 2.578125 -2.859375 C 2.640625 -2.984375 2.671875 -3.113281 2.671875 -3.25 C 2.671875 -3.488281 2.585938 -3.675781 2.421875 -3.8125 C 2.265625 -3.945312 2.066406 -4.015625 1.828125 -4.015625 C 1.566406 -4.015625 1.359375 -3.9375 1.203125 -3.78125 C 1.054688 -3.632812 0.984375 -3.429688 0.984375 -3.171875 L 0.46875 -3.171875 C 0.46875 -3.429688 0.523438 -3.660156 0.640625 -3.859375 C 0.765625 -4.054688 0.929688 -4.207031 1.140625 -4.3125 C 1.347656 -4.425781 1.582031 -4.484375 1.84375 -4.484375 C 2.101562 -4.484375 2.332031 -4.425781 2.53125 -4.3125 C 2.726562 -4.207031 2.882812 -4.0625 3 -3.875 C 3.113281 -3.6875 3.171875 -3.476562 3.171875 -3.25 C 3.171875 -3.09375 3.140625 -2.9375 3.078125 -2.78125 C 3.023438 -2.625 2.925781 -2.453125 2.78125 -2.265625 C 2.632812 -2.078125 2.4375 -1.847656 2.1875 -1.578125 L 1.1875 -0.515625 L 1.1875 -0.46875 L 3.25 -0.46875 L 3.25 0 Z M 0.453125 0 "/></g></g></g><g fill="#737373" fill-opacity="1"><g transform="translate(127.824312, 68.831669)"><g><path d="M 1.90625 0.0625 C 1.414062 0.0625 1.035156 -0.132812 0.765625 -0.53125 C 0.492188 -0.925781 0.359375 -1.484375 0.359375 -2.203125 C 0.359375 -2.921875 0.492188 -3.476562 0.765625 -3.875 C 1.035156 -4.28125 1.414062 -4.484375 1.90625 -4.484375 C 2.382812 -4.484375 2.757812 -4.28125 3.03125 -3.875 C 3.300781 -3.476562 3.4375 -2.921875 3.4375 -2.203125 C 3.4375 -1.484375 3.300781 -0.925781 3.03125 -0.53125 C 2.757812 -0.132812 2.382812 0.0625 1.90625 0.0625 Z M 1.90625 -0.421875 C 2.226562 -0.421875 2.476562 -0.570312 2.65625 -0.875 C 2.832031 -1.1875 2.921875 -1.628906 2.921875 -2.203125 C 2.921875 -2.785156 2.828125 -3.234375 2.640625 -3.546875 C 2.460938 -3.859375 2.21875 -4.015625 1.90625 -4.015625 C 1.582031 -4.015625 1.328125 -3.859375 1.140625 -3.546875 C 0.960938 -3.234375 0.875 -2.785156 0.875 -2.203125 C 0.875 -1.628906 0.960938 -1.1875 1.140625 -0.875 C 1.328125 -0.570312 1.582031 -0.421875 1.90625 -0.421875 Z M 1.90625 -0.421875 "/></g></g></g><g fill="#737373" fill-opacity="1"><g transform="translate(131.62389, 68.831669)"><g><path d="M 0.59375 0 L 2.578125 -3.90625 L 2.578125 -3.953125 L 0.296875 -3.953125 L 0.296875 -4.421875 L 3.125 -4.421875 L 3.125 -3.921875 L 1.15625 0 Z M 0.59375 0 "/></g></g></g><g fill="#bff5ef" fill-opacity="1"><g transform="translate(177.428336, 46.404907)"><g><path d="M 4.078125 -3.03125 L 3.546875 -3.03125 C 3.503906 -3.238281 3.421875 -3.410156 3.296875 -3.546875 C 3.179688 -3.679688 3.035156 -3.785156 2.859375 -3.859375 C 2.679688 -3.929688 2.5 -3.96875 2.3125 -3.96875 C 2.039062 -3.96875 1.796875 -3.898438 1.578125 -3.765625 C 1.367188 -3.628906 1.195312 -3.429688 1.0625 -3.171875 C 0.9375 -2.910156 0.875 -2.585938 0.875 -2.203125 C 0.875 -1.816406 0.9375 -1.492188 1.0625 -1.234375 C 1.195312 -0.972656 1.367188 -0.773438 1.578125 -0.640625 C 1.796875 -0.503906 2.039062 -0.4375 2.3125 -0.4375 C 2.5 -0.4375 2.679688 -0.472656 2.859375 -0.546875 C 3.035156 -0.617188 3.179688 -0.722656 3.296875 -0.859375 C 3.421875 -1.003906 3.503906 -1.175781 3.546875 -1.375 L 4.078125 -1.375 C 4.023438 -1.070312 3.914062 -0.8125 3.75 -0.59375 C 3.582031 -0.382812 3.375 -0.222656 3.125 -0.109375 C 2.875 0.00390625 2.601562 0.0625 2.3125 0.0625 C 1.9375 0.0625 1.597656 -0.0234375 1.296875 -0.203125 C 1.003906 -0.390625 0.773438 -0.648438 0.609375 -0.984375 C 0.441406 -1.328125 0.359375 -1.734375 0.359375 -2.203125 C 0.359375 -2.671875 0.441406 -3.070312 0.609375 -3.40625 C 0.773438 -3.75 1.003906 -4.007812 1.296875 -4.1875 C 1.597656 -4.375 1.9375 -4.46875 2.3125 -4.46875 C 2.601562 -4.46875 2.875 -4.410156 3.125 -4.296875 C 3.375 -4.179688 3.582031 -4.015625 3.75 -3.796875 C 3.914062 -3.585938 4.023438 -3.332031 4.078125 -3.03125 Z M 4.078125 -3.03125 "/></g></g></g><g fill="#bff5ef" fill-opacity="1"><g transform="translate(181.837331, 46.404907)"><g><path d="M 0.46875 0 L 0.46875 -3.3125 L 0.96875 -3.3125 L 0.96875 0 Z M 0.71875 -3.859375 C 0.625 -3.859375 0.539062 -3.890625 0.46875 -3.953125 C 0.394531 -4.023438 0.359375 -4.109375 0.359375 -4.203125 C 0.359375 -4.296875 0.394531 -4.375 0.46875 -4.4375 C 0.539062 -4.507812 0.625 -4.546875 0.71875 -4.546875 C 0.820312 -4.546875 0.90625 -4.507812 0.96875 -4.4375 C 1.039062 -4.375 1.078125 -4.296875 1.078125 -4.203125 C 1.078125 -4.109375 1.039062 -4.023438 0.96875 -3.953125 C 0.90625 -3.890625 0.820312 -3.859375 0.71875 -3.859375 Z M 0.71875 -3.859375 "/></g></g></g><g fill="#bff5ef" fill-opacity="1"><g transform="translate(183.275418, 46.404907)"><g><path d="M 1.90625 -3.3125 L 1.90625 -2.875 L 1.203125 -2.875 L 1.203125 -0.953125 C 1.203125 -0.804688 1.222656 -0.695312 1.265625 -0.625 C 1.304688 -0.550781 1.359375 -0.503906 1.421875 -0.484375 C 1.492188 -0.460938 1.566406 -0.453125 1.640625 -0.453125 C 1.691406 -0.453125 1.734375 -0.453125 1.765625 -0.453125 C 1.804688 -0.460938 1.835938 -0.46875 1.859375 -0.46875 L 1.96875 -0.015625 C 1.925781 -0.00390625 1.875 0.00390625 1.8125 0.015625 C 1.757812 0.0351562 1.679688 0.046875 1.578125 0.046875 C 1.441406 0.046875 1.300781 0.015625 1.15625 -0.046875 C 1.019531 -0.109375 0.90625 -0.203125 0.8125 -0.328125 C 0.726562 -0.453125 0.6875 -0.613281 0.6875 -0.8125 L 0.6875 -2.875 L 0.1875 -2.875 L 0.1875 -3.3125 L 0.6875 -3.3125 L 0.6875 -4.09375 L 1.203125 -4.09375 L 1.203125 -3.3125 Z M 1.90625 -3.3125 "/></g></g></g><g fill="#bff5ef" fill-opacity="1"><g transform="translate(185.479916, 46.404907)"><g><path d="M 0.46875 0 L 0.46875 -3.3125 L 0.96875 -3.3125 L 0.96875 0 Z M 0.71875 -3.859375 C 0.625 -3.859375 0.539062 -3.890625 0.46875 -3.953125 C 0.394531 -4.023438 0.359375 -4.109375 0.359375 -4.203125 C 0.359375 -4.296875 0.394531 -4.375 0.46875 -4.4375 C 0.539062 -4.507812 0.625 -4.546875 0.71875 -4.546875 C 0.820312 -4.546875 0.90625 -4.507812 0.96875 -4.4375 C 1.039062 -4.375 1.078125 -4.296875 1.078125 -4.203125 C 1.078125 -4.109375 1.039062 -4.023438 0.96875 -3.953125 C 0.90625 -3.890625 0.820312 -3.859375 0.71875 -3.859375 Z M 0.71875 -3.859375 "/></g></g></g><g fill="#bff5ef" fill-opacity="1"><g transform="translate(186.918002, 46.404907)"><g><path d="M 1.84375 0.0625 C 1.53125 0.0625 1.257812 -0.00390625 1.03125 -0.140625 C 0.800781 -0.285156 0.625 -0.484375 0.5 -0.734375 C 0.375 -0.992188 0.3125 -1.289062 0.3125 -1.625 C 0.3125 -1.96875 0.375 -2.265625 0.5 -2.515625 C 0.625 -2.773438 0.796875 -2.976562 1.015625 -3.125 C 1.242188 -3.269531 1.503906 -3.34375 1.796875 -3.34375 C 1.972656 -3.34375 2.144531 -3.3125 2.3125 -3.25 C 2.476562 -3.195312 2.628906 -3.109375 2.765625 -2.984375 C 2.898438 -2.859375 3.007812 -2.6875 3.09375 -2.46875 C 3.175781 -2.257812 3.21875 -2.003906 3.21875 -1.703125 L 3.21875 -1.484375 L 0.8125 -1.484375 C 0.832031 -1.128906 0.9375 -0.859375 1.125 -0.671875 C 1.3125 -0.484375 1.550781 -0.390625 1.84375 -0.390625 C 2.050781 -0.390625 2.222656 -0.429688 2.359375 -0.515625 C 2.503906 -0.597656 2.609375 -0.726562 2.671875 -0.90625 L 3.171875 -0.765625 C 3.085938 -0.515625 2.929688 -0.3125 2.703125 -0.15625 C 2.472656 -0.0078125 2.1875 0.0625 1.84375 0.0625 Z M 0.8125 -1.921875 L 2.703125 -1.921875 C 2.703125 -2.203125 2.617188 -2.429688 2.453125 -2.609375 C 2.296875 -2.796875 2.078125 -2.890625 1.796875 -2.890625 C 1.609375 -2.890625 1.441406 -2.84375 1.296875 -2.75 C 1.148438 -2.664062 1.035156 -2.546875 0.953125 -2.390625 C 0.878906 -2.242188 0.832031 -2.085938 0.8125 -1.921875 Z M 0.8125 -1.921875 "/></g></g></g><g fill="#bff5ef" fill-opacity="1"><g transform="translate(190.448646, 46.404907)"><g><path d="M 2.8125 -2.5625 L 2.34375 -2.4375 C 2.300781 -2.550781 2.226562 -2.65625 2.125 -2.75 C 2.019531 -2.851562 1.859375 -2.90625 1.640625 -2.90625 C 1.429688 -2.90625 1.257812 -2.859375 1.125 -2.765625 C 1 -2.679688 0.9375 -2.566406 0.9375 -2.421875 C 0.9375 -2.296875 0.976562 -2.195312 1.0625 -2.125 C 1.15625 -2.050781 1.300781 -1.988281 1.5 -1.9375 L 1.984375 -1.8125 C 2.578125 -1.675781 2.875 -1.378906 2.875 -0.921875 C 2.875 -0.734375 2.816406 -0.5625 2.703125 -0.40625 C 2.597656 -0.257812 2.445312 -0.144531 2.25 -0.0625 C 2.0625 0.0195312 1.835938 0.0625 1.578125 0.0625 C 1.234375 0.0625 0.953125 -0.0078125 0.734375 -0.15625 C 0.515625 -0.300781 0.375 -0.515625 0.3125 -0.796875 L 0.796875 -0.90625 C 0.890625 -0.550781 1.144531 -0.375 1.5625 -0.375 C 1.800781 -0.375 1.988281 -0.425781 2.125 -0.53125 C 2.269531 -0.632812 2.34375 -0.753906 2.34375 -0.890625 C 2.34375 -1.128906 2.175781 -1.285156 1.84375 -1.359375 L 1.296875 -1.484375 C 0.992188 -1.554688 0.769531 -1.664062 0.625 -1.8125 C 0.488281 -1.96875 0.421875 -2.160156 0.421875 -2.390625 C 0.421875 -2.578125 0.472656 -2.742188 0.578125 -2.890625 C 0.679688 -3.035156 0.820312 -3.144531 1 -3.21875 C 1.1875 -3.300781 1.398438 -3.34375 1.640625 -3.34375 C 1.960938 -3.34375 2.21875 -3.269531 2.40625 -3.125 C 2.59375 -2.988281 2.726562 -2.800781 2.8125 -2.5625 Z M 2.8125 -2.5625 "/></g></g></g><g fill="#e9e9e9" fill-opacity="1"><g transform="translate(177.428336, 58.914535)"><g><path d="M 0.9375 0 L 0.9375 -0.796875 L 3.953125 -4.09375 C 4.304688 -4.476562 4.597656 -4.8125 4.828125 -5.09375 C 5.054688 -5.382812 5.222656 -5.65625 5.328125 -5.90625 C 5.441406 -6.164062 5.5 -6.429688 5.5 -6.703125 C 5.5 -7.191406 5.332031 -7.578125 5 -7.859375 C 4.664062 -8.140625 4.25 -8.28125 3.75 -8.28125 C 3.226562 -8.28125 2.8125 -8.117188 2.5 -7.796875 C 2.1875 -7.484375 2.03125 -7.066406 2.03125 -6.546875 L 0.984375 -6.546875 C 0.984375 -7.078125 1.101562 -7.546875 1.34375 -7.953125 C 1.59375 -8.359375 1.929688 -8.671875 2.359375 -8.890625 C 2.785156 -9.117188 3.265625 -9.234375 3.796875 -9.234375 C 4.328125 -9.234375 4.796875 -9.117188 5.203125 -8.890625 C 5.617188 -8.671875 5.941406 -8.367188 6.171875 -7.984375 C 6.410156 -7.597656 6.53125 -7.171875 6.53125 -6.703125 C 6.53125 -6.367188 6.46875 -6.039062 6.34375 -5.71875 C 6.226562 -5.40625 6.019531 -5.050781 5.71875 -4.65625 C 5.425781 -4.269531 5.019531 -3.796875 4.5 -3.234375 L 2.453125 -1.046875 L 2.453125 -0.984375 L 6.6875 -0.984375 L 6.6875 0 Z M 0.9375 0 "/></g></g></g><g fill="#e9e9e9" fill-opacity="1"><g transform="translate(185.008544, 58.914535)"><g><path d="M 3.921875 0.125 C 2.910156 0.125 2.128906 -0.28125 1.578125 -1.09375 C 1.023438 -1.914062 0.75 -3.070312 0.75 -4.5625 C 0.75 -6.03125 1.023438 -7.175781 1.578125 -8 C 2.140625 -8.820312 2.921875 -9.234375 3.921875 -9.234375 C 4.910156 -9.234375 5.679688 -8.820312 6.234375 -8 C 6.796875 -7.175781 7.078125 -6.03125 7.078125 -4.5625 C 7.078125 -3.070312 6.800781 -1.914062 6.25 -1.09375 C 5.695312 -0.28125 4.921875 0.125 3.921875 0.125 Z M 3.921875 -0.859375 C 4.578125 -0.859375 5.085938 -1.175781 5.453125 -1.8125 C 5.828125 -2.457031 6.015625 -3.375 6.015625 -4.5625 C 6.015625 -5.738281 5.828125 -6.648438 5.453125 -7.296875 C 5.085938 -7.953125 4.578125 -8.28125 3.921875 -8.28125 C 3.253906 -8.28125 2.734375 -7.953125 2.359375 -7.296875 C 1.992188 -6.648438 1.8125 -5.738281 1.8125 -4.5625 C 1.8125 -3.375 1.992188 -2.457031 2.359375 -1.8125 C 2.734375 -1.175781 3.253906 -0.859375 3.921875 -0.859375 Z M 3.921875 -0.859375 "/></g></g></g><g fill="#737373" fill-opacity="1"><g transform="translate(194.648588, 58.339619)"><g><path d="M 2.78125 -2.890625 L 1.703125 0 L 1.25 0 L 0.1875 -2.890625 L 0.671875 -2.890625 L 1.46875 -0.59375 L 1.5 -0.59375 L 2.296875 -2.890625 Z M 2.78125 -2.890625 "/></g></g></g><g fill="#737373" fill-opacity="1"><g transform="translate(197.607313, 58.339619)"><g><path d="M 0.40625 0 L 0.40625 -2.890625 L 0.859375 -2.890625 L 0.859375 0 Z M 0.640625 -3.375 C 0.546875 -3.375 0.46875 -3.40625 0.40625 -3.46875 C 0.34375 -3.53125 0.3125 -3.601562 0.3125 -3.6875 C 0.3125 -3.769531 0.34375 -3.835938 0.40625 -3.890625 C 0.46875 -3.953125 0.546875 -3.984375 0.640625 -3.984375 C 0.722656 -3.984375 0.796875 -3.953125 0.859375 -3.890625 C 0.921875 -3.835938 0.953125 -3.769531 0.953125 -3.6875 C 0.953125 -3.601562 0.921875 -3.53125 0.859375 -3.46875 C 0.796875 -3.40625 0.722656 -3.375 0.640625 -3.375 Z M 0.640625 -3.375 "/></g></g></g><g fill="#737373" fill-opacity="1"><g transform="translate(198.867785, 58.339619)"><g><path d="M 2.453125 -2.25 L 2.0625 -2.140625 C 2.019531 -2.234375 1.953125 -2.320312 1.859375 -2.40625 C 1.765625 -2.5 1.625 -2.546875 1.4375 -2.546875 C 1.257812 -2.546875 1.109375 -2.503906 0.984375 -2.421875 C 0.867188 -2.347656 0.8125 -2.25 0.8125 -2.125 C 0.8125 -2.007812 0.851562 -1.921875 0.9375 -1.859375 C 1.019531 -1.796875 1.144531 -1.742188 1.3125 -1.703125 L 1.75 -1.59375 C 2.257812 -1.46875 2.515625 -1.207031 2.515625 -0.8125 C 2.515625 -0.644531 2.46875 -0.492188 2.375 -0.359375 C 2.28125 -0.234375 2.144531 -0.128906 1.96875 -0.046875 C 1.800781 0.0234375 1.601562 0.0625 1.375 0.0625 C 1.082031 0.0625 0.835938 0 0.640625 -0.125 C 0.453125 -0.257812 0.332031 -0.445312 0.28125 -0.6875 L 0.703125 -0.796875 C 0.785156 -0.484375 1.007812 -0.328125 1.375 -0.328125 C 1.582031 -0.328125 1.742188 -0.367188 1.859375 -0.453125 C 1.984375 -0.546875 2.046875 -0.65625 2.046875 -0.78125 C 2.046875 -0.988281 1.90625 -1.125 1.625 -1.1875 L 1.140625 -1.3125 C 0.867188 -1.375 0.671875 -1.46875 0.546875 -1.59375 C 0.429688 -1.726562 0.375 -1.894531 0.375 -2.09375 C 0.375 -2.257812 0.414062 -2.40625 0.5 -2.53125 C 0.59375 -2.65625 0.71875 -2.753906 0.875 -2.828125 C 1.039062 -2.898438 1.226562 -2.9375 1.4375 -2.9375 C 1.71875 -2.9375 1.941406 -2.875 2.109375 -2.75 C 2.273438 -2.625 2.390625 -2.457031 2.453125 -2.25 Z M 2.453125 -2.25 "/></g></g></g><g fill="#737373" fill-opacity="1"><g transform="translate(201.64536, 58.339619)"><g><path d="M 0.40625 0 L 0.40625 -2.890625 L 0.859375 -2.890625 L 0.859375 0 Z M 0.640625 -3.375 C 0.546875 -3.375 0.46875 -3.40625 0.40625 -3.46875 C 0.34375 -3.53125 0.3125 -3.601562 0.3125 -3.6875 C 0.3125 -3.769531 0.34375 -3.835938 0.40625 -3.890625 C 0.46875 -3.953125 0.546875 -3.984375 0.640625 -3.984375 C 0.722656 -3.984375 0.796875 -3.953125 0.859375 -3.890625 C 0.921875 -3.835938 0.953125 -3.769531 0.953125 -3.6875 C 0.953125 -3.601562 0.921875 -3.53125 0.859375 -3.46875 C 0.796875 -3.40625 0.722656 -3.375 0.640625 -3.375 Z M 0.640625 -3.375 "/></g></g></g><g fill="#737373" fill-opacity="1"><g transform="translate(202.905833, 58.339619)"><g><path d="M 1.671875 -2.890625 L 1.671875 -2.515625 L 1.046875 -2.515625 L 1.046875 -0.828125 C 1.046875 -0.703125 1.0625 -0.609375 1.09375 -0.546875 C 1.132812 -0.484375 1.179688 -0.441406 1.234375 -0.421875 C 1.296875 -0.398438 1.363281 -0.390625 1.4375 -0.390625 C 1.476562 -0.390625 1.515625 -0.390625 1.546875 -0.390625 C 1.585938 -0.398438 1.613281 -0.410156 1.625 -0.421875 L 1.71875 -0.015625 C 1.6875 -0.00390625 1.644531 0.00390625 1.59375 0.015625 C 1.539062 0.0234375 1.472656 0.03125 1.390625 0.03125 C 1.265625 0.03125 1.140625 0.00390625 1.015625 -0.046875 C 0.898438 -0.0976562 0.800781 -0.175781 0.71875 -0.28125 C 0.644531 -0.394531 0.609375 -0.535156 0.609375 -0.703125 L 0.609375 -2.515625 L 0.171875 -2.515625 L 0.171875 -2.890625 L 0.609375 -2.890625 L 0.609375 -3.59375 L 1.046875 -3.59375 L 1.046875 -2.890625 Z M 1.671875 -2.890625 "/></g></g></g><g fill="#737373" fill-opacity="1"><g transform="translate(204.838059, 58.339619)"><g><path d="M 1.625 0.0625 C 1.34375 0.0625 1.097656 0 0.890625 -0.125 C 0.691406 -0.25 0.535156 -0.421875 0.421875 -0.640625 C 0.316406 -0.867188 0.265625 -1.128906 0.265625 -1.421875 C 0.265625 -1.722656 0.316406 -1.984375 0.421875 -2.203125 C 0.535156 -2.429688 0.691406 -2.609375 0.890625 -2.734375 C 1.085938 -2.867188 1.316406 -2.9375 1.578125 -2.9375 C 1.722656 -2.9375 1.867188 -2.910156 2.015625 -2.859375 C 2.171875 -2.804688 2.304688 -2.722656 2.421875 -2.609375 C 2.546875 -2.503906 2.644531 -2.359375 2.71875 -2.171875 C 2.789062 -1.984375 2.828125 -1.753906 2.828125 -1.484375 L 2.828125 -1.296875 L 0.71875 -1.296875 C 0.726562 -0.984375 0.816406 -0.742188 0.984375 -0.578125 C 1.148438 -0.421875 1.363281 -0.34375 1.625 -0.34375 C 1.800781 -0.34375 1.953125 -0.378906 2.078125 -0.453125 C 2.203125 -0.523438 2.289062 -0.640625 2.34375 -0.796875 L 2.78125 -0.671875 C 2.707031 -0.453125 2.566406 -0.273438 2.359375 -0.140625 C 2.160156 -0.00390625 1.914062 0.0625 1.625 0.0625 Z M 0.71875 -1.6875 L 2.375 -1.6875 C 2.375 -1.925781 2.300781 -2.125 2.15625 -2.28125 C 2.007812 -2.445312 1.816406 -2.53125 1.578125 -2.53125 C 1.410156 -2.53125 1.265625 -2.488281 1.140625 -2.40625 C 1.015625 -2.332031 0.914062 -2.226562 0.84375 -2.09375 C 0.769531 -1.96875 0.726562 -1.832031 0.71875 -1.6875 Z M 0.71875 -1.6875 "/></g></g></g><g fill="#737373" fill-opacity="1"><g transform="translate(207.932642, 58.339619)"><g><path d="M 1.5 0.0625 C 1.257812 0.0625 1.046875 0 0.859375 -0.125 C 0.671875 -0.25 0.523438 -0.421875 0.421875 -0.640625 C 0.316406 -0.867188 0.265625 -1.132812 0.265625 -1.4375 C 0.265625 -1.738281 0.316406 -2 0.421875 -2.21875 C 0.523438 -2.445312 0.671875 -2.625 0.859375 -2.75 C 1.046875 -2.875 1.265625 -2.9375 1.515625 -2.9375 C 1.703125 -2.9375 1.847656 -2.90625 1.953125 -2.84375 C 2.066406 -2.78125 2.148438 -2.707031 2.203125 -2.625 C 2.265625 -2.550781 2.3125 -2.488281 2.34375 -2.4375 L 2.390625 -2.4375 L 2.390625 -3.859375 L 2.828125 -3.859375 L 2.828125 0 L 2.40625 0 L 2.40625 -0.4375 L 2.34375 -0.4375 C 2.3125 -0.382812 2.265625 -0.316406 2.203125 -0.234375 C 2.140625 -0.160156 2.050781 -0.09375 1.9375 -0.03125 C 1.832031 0.03125 1.6875 0.0625 1.5 0.0625 Z M 1.5625 -0.34375 C 1.832031 -0.34375 2.035156 -0.441406 2.171875 -0.640625 C 2.316406 -0.847656 2.390625 -1.117188 2.390625 -1.453125 C 2.390625 -1.773438 2.316406 -2.035156 2.171875 -2.234375 C 2.035156 -2.429688 1.832031 -2.53125 1.5625 -2.53125 C 1.375 -2.53125 1.21875 -2.484375 1.09375 -2.390625 C 0.96875 -2.296875 0.875 -2.164062 0.8125 -2 C 0.75 -1.832031 0.71875 -1.648438 0.71875 -1.453125 C 0.71875 -1.242188 0.75 -1.054688 0.8125 -0.890625 C 0.875 -0.722656 0.96875 -0.585938 1.09375 -0.484375 C 1.21875 -0.390625 1.375 -0.34375 1.5625 -0.34375 Z M 1.5625 -0.34375 "/></g></g></g><g fill="#737373" fill-opacity="1"><g transform="translate(177.428336, 68.831669)"><g><path d="M 2.03125 -4.625 L 0.609375 0.671875 L 0.140625 0.671875 L 1.5625 -4.625 Z M 2.03125 -4.625 "/></g></g></g><g fill="#737373" fill-opacity="1"><g transform="translate(179.595822, 68.831669)"><g/></g></g><g fill="#737373" fill-opacity="1"><g transform="translate(181.305628, 68.831669)"><g><path d="M 1.875 -4.421875 L 1.875 0 L 1.34375 0 L 1.34375 -3.640625 L 1.296875 -3.640625 C 1.285156 -3.597656 1.234375 -3.550781 1.140625 -3.5 C 1.054688 -3.457031 0.945312 -3.414062 0.8125 -3.375 C 0.6875 -3.332031 0.539062 -3.3125 0.375 -3.3125 L 0.375 -3.765625 C 0.539062 -3.765625 0.6875 -3.796875 0.8125 -3.859375 C 0.9375 -3.921875 1.039062 -3.992188 1.125 -4.078125 C 1.207031 -4.160156 1.269531 -4.234375 1.3125 -4.296875 C 1.363281 -4.367188 1.394531 -4.410156 1.40625 -4.421875 Z M 1.875 -4.421875 "/></g></g></g><g fill="#737373" fill-opacity="1"><g transform="translate(183.991232, 68.831669)"><g><path d="M 1.90625 0.0625 C 1.414062 0.0625 1.035156 -0.132812 0.765625 -0.53125 C 0.492188 -0.925781 0.359375 -1.484375 0.359375 -2.203125 C 0.359375 -2.921875 0.492188 -3.476562 0.765625 -3.875 C 1.035156 -4.28125 1.414062 -4.484375 1.90625 -4.484375 C 2.382812 -4.484375 2.757812 -4.28125 3.03125 -3.875 C 3.300781 -3.476562 3.4375 -2.921875 3.4375 -2.203125 C 3.4375 -1.484375 3.300781 -0.925781 3.03125 -0.53125 C 2.757812 -0.132812 2.382812 0.0625 1.90625 0.0625 Z M 1.90625 -0.421875 C 2.226562 -0.421875 2.476562 -0.570312 2.65625 -0.875 C 2.832031 -1.1875 2.921875 -1.628906 2.921875 -2.203125 C 2.921875 -2.785156 2.828125 -3.234375 2.640625 -3.546875 C 2.460938 -3.859375 2.21875 -4.015625 1.90625 -4.015625 C 1.582031 -4.015625 1.328125 -3.859375 1.140625 -3.546875 C 0.960938 -3.234375 0.875 -2.785156 0.875 -2.203125 C 0.875 -1.628906 0.960938 -1.1875 1.140625 -0.875 C 1.328125 -0.570312 1.582031 -0.421875 1.90625 -0.421875 Z M 1.90625 -0.421875 "/></g></g></g><g fill="#737373" fill-opacity="1"><g transform="translate(187.79081, 68.831669)"><g><path d="M 1.21875 -0.609375 L 1.1875 -0.375 C 1.164062 -0.207031 1.128906 -0.03125 1.078125 0.15625 C 1.023438 0.34375 0.972656 0.519531 0.921875 0.6875 C 0.867188 0.851562 0.828125 0.984375 0.796875 1.078125 L 0.40625 1.078125 C 0.425781 0.984375 0.453125 0.859375 0.484375 0.703125 C 0.515625 0.554688 0.546875 0.390625 0.578125 0.203125 C 0.609375 0.015625 0.628906 -0.171875 0.640625 -0.359375 L 0.671875 -0.609375 Z M 1.21875 -0.609375 "/></g></g></g><g fill="#737373" fill-opacity="1"><g transform="translate(189.49198, 68.831669)"><g><path d="M 1.90625 0.0625 C 1.414062 0.0625 1.035156 -0.132812 0.765625 -0.53125 C 0.492188 -0.925781 0.359375 -1.484375 0.359375 -2.203125 C 0.359375 -2.921875 0.492188 -3.476562 0.765625 -3.875 C 1.035156 -4.28125 1.414062 -4.484375 1.90625 -4.484375 C 2.382812 -4.484375 2.757812 -4.28125 3.03125 -3.875 C 3.300781 -3.476562 3.4375 -2.921875 3.4375 -2.203125 C 3.4375 -1.484375 3.300781 -0.925781 3.03125 -0.53125 C 2.757812 -0.132812 2.382812 0.0625 1.90625 0.0625 Z M 1.90625 -0.421875 C 2.226562 -0.421875 2.476562 -0.570312 2.65625 -0.875 C 2.832031 -1.1875 2.921875 -1.628906 2.921875 -2.203125 C 2.921875 -2.785156 2.828125 -3.234375 2.640625 -3.546875 C 2.460938 -3.859375 2.21875 -4.015625 1.90625 -4.015625 C 1.582031 -4.015625 1.328125 -3.859375 1.140625 -3.546875 C 0.960938 -3.234375 0.875 -2.785156 0.875 -2.203125 C 0.875 -1.628906 0.960938 -1.1875 1.140625 -0.875 C 1.328125 -0.570312 1.582031 -0.421875 1.90625 -0.421875 Z M 1.90625 -0.421875 "/></g></g></g><g fill="#737373" fill-opacity="1"><g transform="translate(193.291558, 68.831669)"><g><path d="M 1.90625 0.0625 C 1.414062 0.0625 1.035156 -0.132812 0.765625 -0.53125 C 0.492188 -0.925781 0.359375 -1.484375 0.359375 -2.203125 C 0.359375 -2.921875 0.492188 -3.476562 0.765625 -3.875 C 1.035156 -4.28125 1.414062 -4.484375 1.90625 -4.484375 C 2.382812 -4.484375 2.757812 -4.28125 3.03125 -3.875 C 3.300781 -3.476562 3.4375 -2.921875 3.4375 -2.203125 C 3.4375 -1.484375 3.300781 -0.925781 3.03125 -0.53125 C 2.757812 -0.132812 2.382812 0.0625 1.90625 0.0625 Z M 1.90625 -0.421875 C 2.226562 -0.421875 2.476562 -0.570312 2.65625 -0.875 C 2.832031 -1.1875 2.921875 -1.628906 2.921875 -2.203125 C 2.921875 -2.785156 2.828125 -3.234375 2.640625 -3.546875 C 2.460938 -3.859375 2.21875 -4.015625 1.90625 -4.015625 C 1.582031 -4.015625 1.328125 -3.859375 1.140625 -3.546875 C 0.960938 -3.234375 0.875 -2.785156 0.875 -2.203125 C 0.875 -1.628906 0.960938 -1.1875 1.140625 -0.875 C 1.328125 -0.570312 1.582031 -0.421875 1.90625 -0.421875 Z M 1.90625 -0.421875 "/></g></g></g><g fill="#737373" fill-opacity="1"><g transform="translate(197.091136, 68.831669)"><g><path d="M 1.90625 0.0625 C 1.414062 0.0625 1.035156 -0.132812 0.765625 -0.53125 C 0.492188 -0.925781 0.359375 -1.484375 0.359375 -2.203125 C 0.359375 -2.921875 0.492188 -3.476562 0.765625 -3.875 C 1.035156 -4.28125 1.414062 -4.484375 1.90625 -4.484375 C 2.382812 -4.484375 2.757812 -4.28125 3.03125 -3.875 C 3.300781 -3.476562 3.4375 -2.921875 3.4375 -2.203125 C 3.4375 -1.484375 3.300781 -0.925781 3.03125 -0.53125 C 2.757812 -0.132812 2.382812 0.0625 1.90625 0.0625 Z M 1.90625 -0.421875 C 2.226562 -0.421875 2.476562 -0.570312 2.65625 -0.875 C 2.832031 -1.1875 2.921875 -1.628906 2.921875 -2.203125 C 2.921875 -2.785156 2.828125 -3.234375 2.640625 -3.546875 C 2.460938 -3.859375 2.21875 -4.015625 1.90625 -4.015625 C 1.582031 -4.015625 1.328125 -3.859375 1.140625 -3.546875 C 0.960938 -3.234375 0.875 -2.785156 0.875 -2.203125 C 0.875 -1.628906 0.960938 -1.1875 1.140625 -0.875 C 1.328125 -0.570312 1.582031 -0.421875 1.90625 -0.421875 Z M 1.90625 -0.421875 "/></g></g></g><g clip-path="url(#f625327230)"><g clip-path="url(#dc46c8182b)"><path fill="#c20578" d="M 11.636719 35.835938 L 49 35.835938 L 49 73.199219 L 11.636719 73.199219 Z M 11.636719 35.835938 " fill-opacity="1" fill-rule="nonzero"/></g></g><g clip-path="url(#fa1723fab6)"><g clip-path="url(#fe582ed540)"><path fill="#9d0461" d="M 11.636719 35.835938 L 49 35.835938 L 49 73.199219 L 11.636719 73.199219 Z M 11.636719 35.835938 " fill-opacity="1" fill-rule="nonzero"/></g></g><g clip-path="url(#110022e7ba)"><g clip-path="url(#87bf55c9f3)"><path fill="#ee6a0c" d="M 16.621094 40.820312 L 44.015625 40.820312 L 44.015625 68.214844 L 16.621094 68.214844 Z M 16.621094 40.820312 " fill-opacity="1" fill-rule="nonzero"/></g></g><g clip-path="url(#92b38d12f7)"><g clip-path="url(#7485c17c8c)"><path fill="#bf550a" d="M 16.621094 40.820312 L 44.015625 40.820312 L 44.015625 68.214844 L 16.621094 68.214844 Z M 16.621094 40.820312 " fill-opacity="1" fill-rule="nonzero"/></g></g><g clip-path="url(#63af8b4380)"><g clip-path="url(#81512bb207)"><path fill="#bff5ef" d="M 20.71875 44.917969 L 39.917969 44.917969 L 39.917969 64.117188 L 20.71875 64.117188 Z M 20.71875 44.917969 " fill-opacity="1" fill-rule="nonzero"/></g></g><g clip-path="url(#aacc0dccf3)"><g clip-path="url(#c2dcc22f01)"><path fill="#9ecbc6" d="M 20.71875 44.917969 L 39.917969 44.917969 L 39.917969 64.117188 L 20.71875 64.117188 Z M 20.71875 44.917969 " fill-opacity="1" fill-rule="nonzero"/></g></g></svg>