<svg xmlns="http://www.w3.org/2000/svg" xmlns:xlink="http://www.w3.org/1999/xlink" width="50" zoomAndPan="magnify" viewBox="0 0 37.5 37.499999" height="50" preserveAspectRatio="xMidYMid meet" version="1.0"><defs><g/></defs><g fill="#c20578" fill-opacity="1"><g transform="translate(1.537322, 11.42726)"><g><path d="M 2.9375 -0.5625 C 2.9375 -0.507812 2.929688 -0.46875 2.921875 -0.4375 C 2.921875 -0.40625 2.914062 -0.375 2.90625 -0.34375 C 2.90625 -0.320312 2.898438 -0.300781 2.890625 -0.28125 C 2.878906 -0.269531 2.863281 -0.253906 2.84375 -0.234375 C 2.820312 -0.210938 2.78125 -0.179688 2.71875 -0.140625 C 2.664062 -0.109375 2.59375 -0.078125 2.5 -0.046875 C 2.414062 -0.015625 2.316406 0.0078125 2.203125 0.03125 C 2.097656 0.0507812 1.984375 0.0625 1.859375 0.0625 C 1.609375 0.0625 1.378906 0.0234375 1.171875 -0.046875 C 0.972656 -0.128906 0.800781 -0.25 0.65625 -0.40625 C 0.519531 -0.5625 0.410156 -0.753906 0.328125 -0.984375 C 0.253906 -1.210938 0.21875 -1.476562 0.21875 -1.78125 C 0.21875 -2.09375 0.257812 -2.367188 0.34375 -2.609375 C 0.425781 -2.847656 0.539062 -3.050781 0.6875 -3.21875 C 0.84375 -3.382812 1.023438 -3.507812 1.234375 -3.59375 C 1.441406 -3.675781 1.671875 -3.71875 1.921875 -3.71875 C 2.023438 -3.71875 2.125 -3.707031 2.21875 -3.6875 C 2.3125 -3.675781 2.394531 -3.65625 2.46875 -3.625 C 2.550781 -3.601562 2.625 -3.570312 2.6875 -3.53125 C 2.757812 -3.5 2.804688 -3.46875 2.828125 -3.4375 C 2.859375 -3.414062 2.875 -3.394531 2.875 -3.375 C 2.882812 -3.363281 2.890625 -3.34375 2.890625 -3.3125 C 2.898438 -3.289062 2.90625 -3.257812 2.90625 -3.21875 C 2.914062 -3.1875 2.921875 -3.144531 2.921875 -3.09375 C 2.921875 -3.03125 2.914062 -2.976562 2.90625 -2.9375 C 2.90625 -2.90625 2.898438 -2.875 2.890625 -2.84375 C 2.878906 -2.820312 2.867188 -2.804688 2.859375 -2.796875 C 2.847656 -2.785156 2.832031 -2.78125 2.8125 -2.78125 C 2.789062 -2.78125 2.753906 -2.796875 2.703125 -2.828125 C 2.660156 -2.859375 2.601562 -2.894531 2.53125 -2.9375 C 2.46875 -2.976562 2.390625 -3.015625 2.296875 -3.046875 C 2.203125 -3.078125 2.085938 -3.09375 1.953125 -3.09375 C 1.804688 -3.09375 1.675781 -3.0625 1.5625 -3 C 1.445312 -2.945312 1.347656 -2.863281 1.265625 -2.75 C 1.191406 -2.644531 1.132812 -2.515625 1.09375 -2.359375 C 1.050781 -2.203125 1.03125 -2.023438 1.03125 -1.828125 C 1.03125 -1.609375 1.050781 -1.421875 1.09375 -1.265625 C 1.132812 -1.109375 1.195312 -0.976562 1.28125 -0.875 C 1.363281 -0.769531 1.460938 -0.691406 1.578125 -0.640625 C 1.691406 -0.597656 1.820312 -0.578125 1.96875 -0.578125 C 2.101562 -0.578125 2.21875 -0.59375 2.3125 -0.625 C 2.40625 -0.65625 2.488281 -0.6875 2.5625 -0.71875 C 2.632812 -0.757812 2.691406 -0.796875 2.734375 -0.828125 C 2.773438 -0.859375 2.8125 -0.875 2.84375 -0.875 C 2.851562 -0.875 2.863281 -0.867188 2.875 -0.859375 C 2.894531 -0.847656 2.90625 -0.832031 2.90625 -0.8125 C 2.914062 -0.789062 2.921875 -0.757812 2.921875 -0.71875 C 2.929688 -0.675781 2.9375 -0.625 2.9375 -0.5625 Z M 2.9375 -0.5625 "/></g></g><g transform="translate(4.60174, 11.42726)"><g><path d="M 2.90625 -1.390625 C 2.90625 -1.171875 2.875 -0.972656 2.8125 -0.796875 C 2.757812 -0.617188 2.675781 -0.460938 2.5625 -0.328125 C 2.445312 -0.203125 2.300781 -0.101562 2.125 -0.03125 C 1.957031 0.03125 1.757812 0.0625 1.53125 0.0625 C 1.300781 0.0625 1.101562 0.03125 0.9375 -0.03125 C 0.769531 -0.09375 0.628906 -0.179688 0.515625 -0.296875 C 0.410156 -0.421875 0.332031 -0.566406 0.28125 -0.734375 C 0.226562 -0.910156 0.203125 -1.109375 0.203125 -1.328125 C 0.203125 -1.546875 0.226562 -1.742188 0.28125 -1.921875 C 0.34375 -2.097656 0.429688 -2.25 0.546875 -2.375 C 0.660156 -2.507812 0.800781 -2.609375 0.96875 -2.671875 C 1.144531 -2.742188 1.351562 -2.78125 1.59375 -2.78125 C 1.8125 -2.78125 2.003906 -2.75 2.171875 -2.6875 C 2.335938 -2.625 2.472656 -2.53125 2.578125 -2.40625 C 2.691406 -2.289062 2.773438 -2.144531 2.828125 -1.96875 C 2.878906 -1.800781 2.90625 -1.609375 2.90625 -1.390625 Z M 2.171875 -1.359375 C 2.171875 -1.484375 2.160156 -1.597656 2.140625 -1.703125 C 2.128906 -1.804688 2.097656 -1.894531 2.046875 -1.96875 C 1.992188 -2.050781 1.925781 -2.113281 1.84375 -2.15625 C 1.769531 -2.195312 1.675781 -2.21875 1.5625 -2.21875 C 1.457031 -2.21875 1.363281 -2.195312 1.28125 -2.15625 C 1.207031 -2.125 1.144531 -2.066406 1.09375 -1.984375 C 1.039062 -1.910156 1 -1.820312 0.96875 -1.71875 C 0.945312 -1.613281 0.9375 -1.492188 0.9375 -1.359375 C 0.9375 -1.234375 0.945312 -1.117188 0.96875 -1.015625 C 0.988281 -0.910156 1.019531 -0.816406 1.0625 -0.734375 C 1.113281 -0.660156 1.175781 -0.601562 1.25 -0.5625 C 1.332031 -0.519531 1.429688 -0.5 1.546875 -0.5 C 1.660156 -0.5 1.753906 -0.519531 1.828125 -0.5625 C 1.910156 -0.601562 1.976562 -0.660156 2.03125 -0.734375 C 2.082031 -0.804688 2.117188 -0.894531 2.140625 -1 C 2.160156 -1.101562 2.171875 -1.222656 2.171875 -1.359375 Z M 2.171875 -1.359375 "/></g></g><g transform="translate(7.714216, 11.42726)"><g><path d="M 2.75 -0.09375 C 2.75 -0.0703125 2.742188 -0.0546875 2.734375 -0.046875 C 2.722656 -0.0351562 2.707031 -0.0234375 2.6875 -0.015625 C 2.664062 -0.00390625 2.632812 0 2.59375 0 C 2.550781 0.0078125 2.503906 0.015625 2.453125 0.015625 C 2.390625 0.015625 2.335938 0.0078125 2.296875 0 C 2.253906 0 2.222656 -0.00390625 2.203125 -0.015625 C 2.179688 -0.0234375 2.164062 -0.0351562 2.15625 -0.046875 C 2.144531 -0.0546875 2.140625 -0.0703125 2.140625 -0.09375 L 2.140625 -0.390625 C 2.003906 -0.234375 1.863281 -0.117188 1.71875 -0.046875 C 1.570312 0.0234375 1.421875 0.0625 1.265625 0.0625 C 1.085938 0.0625 0.941406 0.0351562 0.828125 -0.015625 C 0.710938 -0.078125 0.617188 -0.15625 0.546875 -0.25 C 0.472656 -0.351562 0.421875 -0.46875 0.390625 -0.59375 C 0.359375 -0.71875 0.34375 -0.878906 0.34375 -1.078125 L 0.34375 -2.625 C 0.34375 -2.644531 0.347656 -2.660156 0.359375 -2.671875 C 0.367188 -2.679688 0.382812 -2.691406 0.40625 -2.703125 C 0.4375 -2.710938 0.472656 -2.71875 0.515625 -2.71875 C 0.566406 -2.726562 0.628906 -2.734375 0.703125 -2.734375 C 0.765625 -2.734375 0.816406 -2.726562 0.859375 -2.71875 C 0.910156 -2.71875 0.945312 -2.710938 0.96875 -2.703125 C 1 -2.691406 1.019531 -2.679688 1.03125 -2.671875 C 1.039062 -2.660156 1.046875 -2.644531 1.046875 -2.625 L 1.046875 -1.1875 C 1.046875 -1.0625 1.054688 -0.960938 1.078125 -0.890625 C 1.097656 -0.816406 1.125 -0.753906 1.15625 -0.703125 C 1.1875 -0.660156 1.226562 -0.625 1.28125 -0.59375 C 1.34375 -0.570312 1.410156 -0.5625 1.484375 -0.5625 C 1.566406 -0.5625 1.65625 -0.59375 1.75 -0.65625 C 1.84375 -0.71875 1.941406 -0.8125 2.046875 -0.9375 L 2.046875 -2.625 C 2.046875 -2.644531 2.050781 -2.660156 2.0625 -2.671875 C 2.070312 -2.679688 2.085938 -2.691406 2.109375 -2.703125 C 2.140625 -2.710938 2.175781 -2.71875 2.21875 -2.71875 C 2.269531 -2.726562 2.328125 -2.734375 2.390625 -2.734375 C 2.460938 -2.734375 2.519531 -2.726562 2.5625 -2.71875 C 2.613281 -2.71875 2.648438 -2.710938 2.671875 -2.703125 C 2.703125 -2.691406 2.722656 -2.679688 2.734375 -2.671875 C 2.742188 -2.660156 2.75 -2.644531 2.75 -2.625 Z M 2.75 -0.09375 "/></g></g><g transform="translate(10.821038, 11.42726)"><g><path d="M 2.765625 -0.09375 C 2.765625 -0.0703125 2.757812 -0.0546875 2.75 -0.046875 C 2.738281 -0.0351562 2.71875 -0.0234375 2.6875 -0.015625 C 2.664062 -0.00390625 2.628906 0 2.578125 0 C 2.535156 0.0078125 2.484375 0.015625 2.421875 0.015625 C 2.347656 0.015625 2.285156 0.0078125 2.234375 0 C 2.191406 0 2.15625 -0.00390625 2.125 -0.015625 C 2.101562 -0.0234375 2.085938 -0.0351562 2.078125 -0.046875 C 2.066406 -0.0546875 2.0625 -0.0703125 2.0625 -0.09375 L 2.0625 -1.53125 C 2.0625 -1.65625 2.050781 -1.753906 2.03125 -1.828125 C 2.007812 -1.898438 1.984375 -1.957031 1.953125 -2 C 1.921875 -2.050781 1.875 -2.085938 1.8125 -2.109375 C 1.757812 -2.140625 1.703125 -2.15625 1.640625 -2.15625 C 1.546875 -2.15625 1.453125 -2.125 1.359375 -2.0625 C 1.265625 -2 1.164062 -1.90625 1.0625 -1.78125 L 1.0625 -0.09375 C 1.0625 -0.0703125 1.054688 -0.0546875 1.046875 -0.046875 C 1.035156 -0.0351562 1.015625 -0.0234375 0.984375 -0.015625 C 0.960938 -0.00390625 0.925781 0 0.875 0 C 0.832031 0.0078125 0.78125 0.015625 0.71875 0.015625 C 0.644531 0.015625 0.582031 0.0078125 0.53125 0 C 0.488281 0 0.453125 -0.00390625 0.421875 -0.015625 C 0.398438 -0.0234375 0.382812 -0.0351562 0.375 -0.046875 C 0.363281 -0.0546875 0.359375 -0.0703125 0.359375 -0.09375 L 0.359375 -2.625 C 0.359375 -2.644531 0.363281 -2.660156 0.375 -2.671875 C 0.382812 -2.679688 0.398438 -2.691406 0.421875 -2.703125 C 0.441406 -2.710938 0.472656 -2.71875 0.515625 -2.71875 C 0.554688 -2.726562 0.601562 -2.734375 0.65625 -2.734375 C 0.71875 -2.734375 0.769531 -2.726562 0.8125 -2.71875 C 0.851562 -2.71875 0.882812 -2.710938 0.90625 -2.703125 C 0.925781 -2.691406 0.941406 -2.679688 0.953125 -2.671875 C 0.960938 -2.660156 0.96875 -2.644531 0.96875 -2.625 L 0.96875 -2.328125 C 1.101562 -2.484375 1.242188 -2.597656 1.390625 -2.671875 C 1.535156 -2.742188 1.6875 -2.78125 1.84375 -2.78125 C 2.007812 -2.78125 2.148438 -2.75 2.265625 -2.6875 C 2.390625 -2.632812 2.488281 -2.5625 2.5625 -2.46875 C 2.632812 -2.375 2.6875 -2.257812 2.71875 -2.125 C 2.75 -2 2.765625 -1.84375 2.765625 -1.65625 Z M 2.765625 -0.09375 "/></g></g><g transform="translate(13.927861, 11.42726)"><g><path d="M 1.84375 -0.34375 C 1.84375 -0.257812 1.835938 -0.195312 1.828125 -0.15625 C 1.816406 -0.113281 1.800781 -0.0820312 1.78125 -0.0625 C 1.769531 -0.0390625 1.75 -0.0195312 1.71875 0 C 1.6875 0.0078125 1.644531 0.0195312 1.59375 0.03125 C 1.550781 0.0390625 1.503906 0.046875 1.453125 0.046875 C 1.398438 0.0546875 1.347656 0.0625 1.296875 0.0625 C 1.160156 0.0625 1.039062 0.0390625 0.9375 0 C 0.832031 -0.03125 0.742188 -0.0820312 0.671875 -0.15625 C 0.609375 -0.238281 0.5625 -0.332031 0.53125 -0.4375 C 0.5 -0.550781 0.484375 -0.6875 0.484375 -0.84375 L 0.484375 -2.140625 L 0.171875 -2.140625 C 0.140625 -2.140625 0.113281 -2.160156 0.09375 -2.203125 C 0.0703125 -2.242188 0.0625 -2.316406 0.0625 -2.421875 C 0.0625 -2.484375 0.0625 -2.53125 0.0625 -2.5625 C 0.0703125 -2.601562 0.0820312 -2.632812 0.09375 -2.65625 C 0.101562 -2.675781 0.113281 -2.691406 0.125 -2.703125 C 0.144531 -2.710938 0.160156 -2.71875 0.171875 -2.71875 L 0.484375 -2.71875 L 0.484375 -3.28125 C 0.484375 -3.300781 0.488281 -3.316406 0.5 -3.328125 C 0.507812 -3.347656 0.523438 -3.363281 0.546875 -3.375 C 0.578125 -3.382812 0.613281 -3.390625 0.65625 -3.390625 C 0.707031 -3.398438 0.765625 -3.40625 0.828125 -3.40625 C 0.898438 -3.40625 0.957031 -3.398438 1 -3.390625 C 1.050781 -3.390625 1.085938 -3.382812 1.109375 -3.375 C 1.140625 -3.363281 1.160156 -3.347656 1.171875 -3.328125 C 1.179688 -3.316406 1.1875 -3.300781 1.1875 -3.28125 L 1.1875 -2.71875 L 1.734375 -2.71875 C 1.753906 -2.71875 1.769531 -2.710938 1.78125 -2.703125 C 1.800781 -2.691406 1.816406 -2.675781 1.828125 -2.65625 C 1.835938 -2.632812 1.84375 -2.601562 1.84375 -2.5625 C 1.84375 -2.53125 1.84375 -2.484375 1.84375 -2.421875 C 1.84375 -2.316406 1.832031 -2.242188 1.8125 -2.203125 C 1.800781 -2.160156 1.773438 -2.140625 1.734375 -2.140625 L 1.1875 -2.140625 L 1.1875 -0.953125 C 1.1875 -0.816406 1.207031 -0.710938 1.25 -0.640625 C 1.289062 -0.578125 1.367188 -0.546875 1.484375 -0.546875 C 1.523438 -0.546875 1.5625 -0.546875 1.59375 -0.546875 C 1.625 -0.554688 1.648438 -0.5625 1.671875 -0.5625 C 1.691406 -0.570312 1.707031 -0.582031 1.71875 -0.59375 C 1.738281 -0.601562 1.753906 -0.609375 1.765625 -0.609375 C 1.773438 -0.609375 1.785156 -0.601562 1.796875 -0.59375 C 1.804688 -0.582031 1.816406 -0.566406 1.828125 -0.546875 C 1.835938 -0.535156 1.84375 -0.507812 1.84375 -0.46875 C 1.84375 -0.4375 1.84375 -0.394531 1.84375 -0.34375 Z M 1.84375 -0.34375 "/></g></g><g transform="translate(15.934998, 11.42726)"><g><path d="M 1.984375 -2.390625 C 1.984375 -2.316406 1.976562 -2.257812 1.96875 -2.21875 C 1.96875 -2.175781 1.960938 -2.140625 1.953125 -2.109375 C 1.941406 -2.085938 1.929688 -2.070312 1.921875 -2.0625 C 1.910156 -2.050781 1.894531 -2.046875 1.875 -2.046875 C 1.863281 -2.046875 1.847656 -2.050781 1.828125 -2.0625 C 1.804688 -2.070312 1.785156 -2.078125 1.765625 -2.078125 C 1.742188 -2.085938 1.71875 -2.09375 1.6875 -2.09375 C 1.65625 -2.101562 1.625 -2.109375 1.59375 -2.109375 C 1.550781 -2.109375 1.507812 -2.097656 1.46875 -2.078125 C 1.4375 -2.066406 1.394531 -2.046875 1.34375 -2.015625 C 1.300781 -1.984375 1.257812 -1.9375 1.21875 -1.875 C 1.175781 -1.820312 1.125 -1.753906 1.0625 -1.671875 L 1.0625 -0.09375 C 1.0625 -0.0703125 1.054688 -0.0546875 1.046875 -0.046875 C 1.035156 -0.0351562 1.015625 -0.0234375 0.984375 -0.015625 C 0.960938 -0.00390625 0.925781 0 0.875 0 C 0.832031 0.0078125 0.78125 0.015625 0.71875 0.015625 C 0.644531 0.015625 0.582031 0.0078125 0.53125 0 C 0.488281 0 0.453125 -0.00390625 0.421875 -0.015625 C 0.398438 -0.0234375 0.382812 -0.0351562 0.375 -0.046875 C 0.363281 -0.0546875 0.359375 -0.0703125 0.359375 -0.09375 L 0.359375 -2.625 C 0.359375 -2.644531 0.363281 -2.660156 0.375 -2.671875 C 0.382812 -2.679688 0.398438 -2.691406 0.421875 -2.703125 C 0.441406 -2.710938 0.472656 -2.71875 0.515625 -2.71875 C 0.554688 -2.726562 0.601562 -2.734375 0.65625 -2.734375 C 0.71875 -2.734375 0.769531 -2.726562 0.8125 -2.71875 C 0.851562 -2.71875 0.882812 -2.710938 0.90625 -2.703125 C 0.925781 -2.691406 0.941406 -2.679688 0.953125 -2.671875 C 0.960938 -2.660156 0.96875 -2.644531 0.96875 -2.625 L 0.96875 -2.3125 C 1.03125 -2.40625 1.085938 -2.476562 1.140625 -2.53125 C 1.203125 -2.59375 1.257812 -2.640625 1.3125 -2.671875 C 1.363281 -2.710938 1.414062 -2.738281 1.46875 -2.75 C 1.53125 -2.769531 1.585938 -2.78125 1.640625 -2.78125 C 1.660156 -2.78125 1.679688 -2.78125 1.703125 -2.78125 C 1.734375 -2.78125 1.765625 -2.773438 1.796875 -2.765625 C 1.828125 -2.753906 1.851562 -2.742188 1.875 -2.734375 C 1.90625 -2.734375 1.925781 -2.726562 1.9375 -2.71875 C 1.945312 -2.707031 1.953125 -2.695312 1.953125 -2.6875 C 1.960938 -2.675781 1.96875 -2.660156 1.96875 -2.640625 C 1.96875 -2.617188 1.96875 -2.585938 1.96875 -2.546875 C 1.976562 -2.503906 1.984375 -2.453125 1.984375 -2.390625 Z M 1.984375 -2.390625 "/></g></g><g transform="translate(17.99302, 11.42726)"><g><path d="M 1.0625 -0.09375 C 1.0625 -0.0703125 1.054688 -0.0546875 1.046875 -0.046875 C 1.035156 -0.0351562 1.015625 -0.0234375 0.984375 -0.015625 C 0.960938 -0.00390625 0.925781 0 0.875 0 C 0.832031 0.0078125 0.78125 0.015625 0.71875 0.015625 C 0.644531 0.015625 0.582031 0.0078125 0.53125 0 C 0.488281 0 0.453125 -0.00390625 0.421875 -0.015625 C 0.398438 -0.0234375 0.382812 -0.0351562 0.375 -0.046875 C 0.363281 -0.0546875 0.359375 -0.0703125 0.359375 -0.09375 L 0.359375 -2.609375 C 0.359375 -2.628906 0.363281 -2.644531 0.375 -2.65625 C 0.382812 -2.675781 0.398438 -2.691406 0.421875 -2.703125 C 0.453125 -2.710938 0.488281 -2.71875 0.53125 -2.71875 C 0.582031 -2.726562 0.644531 -2.734375 0.71875 -2.734375 C 0.78125 -2.734375 0.832031 -2.726562 0.875 -2.71875 C 0.925781 -2.71875 0.960938 -2.710938 0.984375 -2.703125 C 1.015625 -2.691406 1.035156 -2.675781 1.046875 -2.65625 C 1.054688 -2.644531 1.0625 -2.628906 1.0625 -2.609375 Z M 1.125 -3.46875 C 1.125 -3.332031 1.09375 -3.234375 1.03125 -3.171875 C 0.976562 -3.117188 0.867188 -3.09375 0.703125 -3.09375 C 0.546875 -3.09375 0.4375 -3.117188 0.375 -3.171875 C 0.320312 -3.222656 0.296875 -3.320312 0.296875 -3.46875 C 0.296875 -3.601562 0.320312 -3.695312 0.375 -3.75 C 0.4375 -3.8125 0.550781 -3.84375 0.71875 -3.84375 C 0.875 -3.84375 0.976562 -3.816406 1.03125 -3.765625 C 1.09375 -3.710938 1.125 -3.613281 1.125 -3.46875 Z M 1.125 -3.46875 "/></g></g><g transform="translate(19.414978, 11.42726)"><g><path d="M 2.6875 -1.4375 C 2.6875 -1.34375 2.664062 -1.273438 2.625 -1.234375 C 2.59375 -1.191406 2.539062 -1.171875 2.46875 -1.171875 L 0.9375 -1.171875 C 0.9375 -1.066406 0.945312 -0.96875 0.96875 -0.875 C 1 -0.789062 1.039062 -0.71875 1.09375 -0.65625 C 1.144531 -0.59375 1.210938 -0.546875 1.296875 -0.515625 C 1.390625 -0.484375 1.5 -0.46875 1.625 -0.46875 C 1.75 -0.46875 1.859375 -0.476562 1.953125 -0.5 C 2.046875 -0.519531 2.125 -0.539062 2.1875 -0.5625 C 2.257812 -0.582031 2.316406 -0.597656 2.359375 -0.609375 C 2.410156 -0.628906 2.453125 -0.640625 2.484375 -0.640625 C 2.492188 -0.640625 2.503906 -0.632812 2.515625 -0.625 C 2.523438 -0.625 2.535156 -0.613281 2.546875 -0.59375 C 2.554688 -0.582031 2.5625 -0.5625 2.5625 -0.53125 C 2.5625 -0.5 2.5625 -0.457031 2.5625 -0.40625 C 2.5625 -0.363281 2.5625 -0.328125 2.5625 -0.296875 C 2.5625 -0.273438 2.554688 -0.253906 2.546875 -0.234375 C 2.546875 -0.210938 2.539062 -0.191406 2.53125 -0.171875 C 2.53125 -0.160156 2.523438 -0.144531 2.515625 -0.125 C 2.503906 -0.113281 2.46875 -0.0976562 2.40625 -0.078125 C 2.351562 -0.0546875 2.285156 -0.0351562 2.203125 -0.015625 C 2.117188 0.00390625 2.019531 0.0195312 1.90625 0.03125 C 1.800781 0.0507812 1.6875 0.0625 1.5625 0.0625 C 1.332031 0.0625 1.132812 0.0351562 0.96875 -0.015625 C 0.800781 -0.078125 0.660156 -0.164062 0.546875 -0.28125 C 0.429688 -0.394531 0.34375 -0.535156 0.28125 -0.703125 C 0.226562 -0.878906 0.203125 -1.085938 0.203125 -1.328125 C 0.203125 -1.554688 0.234375 -1.757812 0.296875 -1.9375 C 0.359375 -2.113281 0.441406 -2.265625 0.546875 -2.390625 C 0.660156 -2.515625 0.796875 -2.609375 0.953125 -2.671875 C 1.117188 -2.742188 1.300781 -2.78125 1.5 -2.78125 C 1.707031 -2.78125 1.882812 -2.75 2.03125 -2.6875 C 2.1875 -2.625 2.3125 -2.535156 2.40625 -2.421875 C 2.5 -2.316406 2.566406 -2.1875 2.609375 -2.03125 C 2.660156 -1.882812 2.6875 -1.722656 2.6875 -1.546875 Z M 2 -1.640625 C 2 -1.835938 1.957031 -1.992188 1.875 -2.109375 C 1.789062 -2.222656 1.660156 -2.28125 1.484375 -2.28125 C 1.390625 -2.28125 1.304688 -2.257812 1.234375 -2.21875 C 1.171875 -2.1875 1.117188 -2.140625 1.078125 -2.078125 C 1.035156 -2.023438 1 -1.957031 0.96875 -1.875 C 0.945312 -1.800781 0.9375 -1.722656 0.9375 -1.640625 Z M 2 -1.640625 "/></g></g><g transform="translate(22.329568, 11.42726)"><g><path d="M 2.140625 -0.8125 C 2.140625 -0.664062 2.109375 -0.535156 2.046875 -0.421875 C 1.992188 -0.316406 1.914062 -0.226562 1.8125 -0.15625 C 1.71875 -0.0820312 1.601562 -0.03125 1.46875 0 C 1.34375 0.0390625 1.203125 0.0625 1.046875 0.0625 C 0.953125 0.0625 0.859375 0.0507812 0.765625 0.03125 C 0.679688 0.0195312 0.601562 0.00390625 0.53125 -0.015625 C 0.46875 -0.0351562 0.410156 -0.0546875 0.359375 -0.078125 C 0.316406 -0.0976562 0.285156 -0.117188 0.265625 -0.140625 C 0.242188 -0.160156 0.226562 -0.191406 0.21875 -0.234375 C 0.207031 -0.273438 0.203125 -0.335938 0.203125 -0.421875 C 0.203125 -0.472656 0.203125 -0.515625 0.203125 -0.546875 C 0.210938 -0.585938 0.21875 -0.613281 0.21875 -0.625 C 0.226562 -0.644531 0.238281 -0.660156 0.25 -0.671875 C 0.269531 -0.679688 0.285156 -0.6875 0.296875 -0.6875 C 0.316406 -0.6875 0.347656 -0.671875 0.390625 -0.640625 C 0.429688 -0.617188 0.484375 -0.59375 0.546875 -0.5625 C 0.609375 -0.539062 0.675781 -0.515625 0.75 -0.484375 C 0.832031 -0.460938 0.925781 -0.453125 1.03125 -0.453125 C 1.09375 -0.453125 1.148438 -0.457031 1.203125 -0.46875 C 1.253906 -0.488281 1.296875 -0.507812 1.328125 -0.53125 C 1.367188 -0.550781 1.394531 -0.578125 1.40625 -0.609375 C 1.425781 -0.648438 1.4375 -0.695312 1.4375 -0.75 C 1.4375 -0.8125 1.421875 -0.859375 1.390625 -0.890625 C 1.359375 -0.929688 1.3125 -0.96875 1.25 -1 C 1.1875 -1.03125 1.117188 -1.054688 1.046875 -1.078125 C 0.984375 -1.109375 0.910156 -1.140625 0.828125 -1.171875 C 0.753906 -1.203125 0.679688 -1.238281 0.609375 -1.28125 C 0.535156 -1.320312 0.46875 -1.375 0.40625 -1.4375 C 0.351562 -1.5 0.304688 -1.570312 0.265625 -1.65625 C 0.234375 -1.738281 0.21875 -1.84375 0.21875 -1.96875 C 0.21875 -2.082031 0.238281 -2.191406 0.28125 -2.296875 C 0.332031 -2.398438 0.398438 -2.484375 0.484375 -2.546875 C 0.578125 -2.617188 0.6875 -2.675781 0.8125 -2.71875 C 0.945312 -2.757812 1.09375 -2.78125 1.25 -2.78125 C 1.320312 -2.78125 1.394531 -2.773438 1.46875 -2.765625 C 1.550781 -2.753906 1.617188 -2.738281 1.671875 -2.71875 C 1.734375 -2.707031 1.785156 -2.691406 1.828125 -2.671875 C 1.867188 -2.648438 1.898438 -2.628906 1.921875 -2.609375 C 1.941406 -2.597656 1.953125 -2.582031 1.953125 -2.5625 C 1.960938 -2.550781 1.96875 -2.535156 1.96875 -2.515625 C 1.976562 -2.503906 1.984375 -2.484375 1.984375 -2.453125 C 1.992188 -2.421875 2 -2.382812 2 -2.34375 C 2 -2.289062 1.992188 -2.25 1.984375 -2.21875 C 1.984375 -2.1875 1.976562 -2.160156 1.96875 -2.140625 C 1.96875 -2.117188 1.960938 -2.101562 1.953125 -2.09375 C 1.941406 -2.09375 1.925781 -2.09375 1.90625 -2.09375 C 1.882812 -2.09375 1.859375 -2.101562 1.828125 -2.125 C 1.796875 -2.144531 1.75 -2.164062 1.6875 -2.1875 C 1.632812 -2.207031 1.570312 -2.226562 1.5 -2.25 C 1.4375 -2.269531 1.359375 -2.28125 1.265625 -2.28125 C 1.203125 -2.28125 1.144531 -2.269531 1.09375 -2.25 C 1.050781 -2.238281 1.015625 -2.222656 0.984375 -2.203125 C 0.953125 -2.179688 0.925781 -2.148438 0.90625 -2.109375 C 0.894531 -2.078125 0.890625 -2.046875 0.890625 -2.015625 C 0.890625 -1.953125 0.90625 -1.898438 0.9375 -1.859375 C 0.976562 -1.816406 1.023438 -1.78125 1.078125 -1.75 C 1.140625 -1.726562 1.207031 -1.703125 1.28125 -1.671875 C 1.351562 -1.648438 1.425781 -1.625 1.5 -1.59375 C 1.582031 -1.5625 1.660156 -1.523438 1.734375 -1.484375 C 1.804688 -1.441406 1.875 -1.390625 1.9375 -1.328125 C 2 -1.265625 2.046875 -1.191406 2.078125 -1.109375 C 2.117188 -1.023438 2.140625 -0.925781 2.140625 -0.8125 Z M 2.140625 -0.8125 "/></g></g></g><g fill="#ffffff" fill-opacity="1"><g transform="translate(1.537322, 22.201393)"><g><path d="M 4.890625 -0.546875 C 4.890625 -0.453125 4.882812 -0.367188 4.875 -0.296875 C 4.863281 -0.222656 4.847656 -0.164062 4.828125 -0.125 C 4.816406 -0.0820312 4.796875 -0.0507812 4.765625 -0.03125 C 4.742188 -0.0078125 4.710938 0 4.671875 0 L 0.875 0 C 0.800781 0 0.734375 -0.00390625 0.671875 -0.015625 C 0.617188 -0.0351562 0.578125 -0.0625 0.546875 -0.09375 C 0.515625 -0.132812 0.488281 -0.191406 0.46875 -0.265625 C 0.457031 -0.347656 0.453125 -0.445312 0.453125 -0.5625 C 0.453125 -0.675781 0.457031 -0.769531 0.46875 -0.84375 C 0.476562 -0.925781 0.492188 -1 0.515625 -1.0625 C 0.546875 -1.125 0.582031 -1.1875 0.625 -1.25 C 0.664062 -1.3125 0.722656 -1.378906 0.796875 -1.453125 L 1.9375 -2.671875 C 2.164062 -2.910156 2.347656 -3.128906 2.484375 -3.328125 C 2.628906 -3.523438 2.738281 -3.703125 2.8125 -3.859375 C 2.894531 -4.023438 2.945312 -4.175781 2.96875 -4.3125 C 3 -4.445312 3.015625 -4.578125 3.015625 -4.703125 C 3.015625 -4.804688 2.992188 -4.910156 2.953125 -5.015625 C 2.921875 -5.117188 2.867188 -5.207031 2.796875 -5.28125 C 2.734375 -5.351562 2.648438 -5.410156 2.546875 -5.453125 C 2.441406 -5.492188 2.316406 -5.515625 2.171875 -5.515625 C 1.972656 -5.515625 1.796875 -5.488281 1.640625 -5.4375 C 1.484375 -5.394531 1.34375 -5.335938 1.21875 -5.265625 C 1.101562 -5.203125 1.003906 -5.144531 0.921875 -5.09375 C 0.847656 -5.039062 0.789062 -5.015625 0.75 -5.015625 C 0.71875 -5.015625 0.691406 -5.023438 0.671875 -5.046875 C 0.648438 -5.066406 0.628906 -5.097656 0.609375 -5.140625 C 0.597656 -5.191406 0.585938 -5.257812 0.578125 -5.34375 C 0.578125 -5.425781 0.578125 -5.523438 0.578125 -5.640625 C 0.578125 -5.710938 0.578125 -5.773438 0.578125 -5.828125 C 0.585938 -5.890625 0.597656 -5.9375 0.609375 -5.96875 C 0.617188 -6.007812 0.628906 -6.046875 0.640625 -6.078125 C 0.660156 -6.109375 0.691406 -6.140625 0.734375 -6.171875 C 0.773438 -6.210938 0.851562 -6.265625 0.96875 -6.328125 C 1.082031 -6.398438 1.222656 -6.460938 1.390625 -6.515625 C 1.554688 -6.578125 1.738281 -6.628906 1.9375 -6.671875 C 2.144531 -6.710938 2.359375 -6.734375 2.578125 -6.734375 C 2.921875 -6.734375 3.21875 -6.6875 3.46875 -6.59375 C 3.726562 -6.507812 3.941406 -6.390625 4.109375 -6.234375 C 4.285156 -6.078125 4.414062 -5.894531 4.5 -5.6875 C 4.582031 -5.476562 4.625 -5.25 4.625 -5 C 4.625 -4.78125 4.601562 -4.566406 4.5625 -4.359375 C 4.519531 -4.148438 4.429688 -3.925781 4.296875 -3.6875 C 4.171875 -3.445312 3.988281 -3.179688 3.75 -2.890625 C 3.519531 -2.597656 3.210938 -2.257812 2.828125 -1.875 L 2.046875 -1.09375 L 4.65625 -1.09375 C 4.6875 -1.09375 4.71875 -1.082031 4.75 -1.0625 C 4.78125 -1.039062 4.804688 -1.007812 4.828125 -0.96875 C 4.847656 -0.925781 4.863281 -0.867188 4.875 -0.796875 C 4.882812 -0.722656 4.890625 -0.640625 4.890625 -0.546875 Z M 4.890625 -0.546875 "/></g></g></g><g fill="#ffffff" fill-opacity="1"><g transform="translate(6.844723, 22.201393)"><g><path d="M 5.015625 -3.328125 C 5.015625 -2.804688 4.972656 -2.332031 4.890625 -1.90625 C 4.804688 -1.476562 4.664062 -1.113281 4.46875 -0.8125 C 4.28125 -0.507812 4.03125 -0.273438 3.71875 -0.109375 C 3.414062 0.046875 3.039062 0.125 2.59375 0.125 C 2.132812 0.125 1.753906 0.046875 1.453125 -0.109375 C 1.160156 -0.265625 0.925781 -0.488281 0.75 -0.78125 C 0.582031 -1.070312 0.460938 -1.425781 0.390625 -1.84375 C 0.328125 -2.269531 0.296875 -2.75 0.296875 -3.28125 C 0.296875 -3.800781 0.335938 -4.273438 0.421875 -4.703125 C 0.503906 -5.140625 0.640625 -5.503906 0.828125 -5.796875 C 1.023438 -6.097656 1.28125 -6.328125 1.59375 -6.484375 C 1.90625 -6.648438 2.28125 -6.734375 2.71875 -6.734375 C 3.175781 -6.734375 3.550781 -6.65625 3.84375 -6.5 C 4.144531 -6.34375 4.378906 -6.117188 4.546875 -5.828125 C 4.722656 -5.535156 4.84375 -5.175781 4.90625 -4.75 C 4.976562 -4.332031 5.015625 -3.859375 5.015625 -3.328125 Z M 3.671875 -3.265625 C 3.671875 -3.578125 3.660156 -3.851562 3.640625 -4.09375 C 3.617188 -4.332031 3.585938 -4.539062 3.546875 -4.71875 C 3.515625 -4.894531 3.472656 -5.046875 3.421875 -5.171875 C 3.367188 -5.296875 3.304688 -5.394531 3.234375 -5.46875 C 3.160156 -5.539062 3.078125 -5.59375 2.984375 -5.625 C 2.890625 -5.65625 2.78125 -5.671875 2.65625 -5.671875 C 2.457031 -5.671875 2.289062 -5.617188 2.15625 -5.515625 C 2.03125 -5.421875 1.925781 -5.273438 1.84375 -5.078125 C 1.769531 -4.890625 1.71875 -4.648438 1.6875 -4.359375 C 1.65625 -4.066406 1.640625 -3.726562 1.640625 -3.34375 C 1.640625 -2.875 1.660156 -2.484375 1.703125 -2.171875 C 1.742188 -1.867188 1.800781 -1.625 1.875 -1.4375 C 1.957031 -1.257812 2.0625 -1.132812 2.1875 -1.0625 C 2.3125 -0.988281 2.460938 -0.953125 2.640625 -0.953125 C 2.773438 -0.953125 2.894531 -0.972656 3 -1.015625 C 3.101562 -1.054688 3.191406 -1.117188 3.265625 -1.203125 C 3.335938 -1.285156 3.398438 -1.390625 3.453125 -1.515625 C 3.503906 -1.648438 3.546875 -1.800781 3.578125 -1.96875 C 3.609375 -2.144531 3.628906 -2.335938 3.640625 -2.546875 C 3.660156 -2.765625 3.671875 -3.003906 3.671875 -3.265625 Z M 3.671875 -3.265625 "/></g></g></g><g fill="#868e8d" fill-opacity="1"><g transform="translate(13.969183, 20.007706)"><g><path d="M 2.734375 -2.84375 C 2.734375 -2.84375 2.734375 -2.835938 2.734375 -2.828125 C 2.734375 -2.816406 2.734375 -2.804688 2.734375 -2.796875 C 2.734375 -2.785156 2.726562 -2.773438 2.71875 -2.765625 C 2.71875 -2.753906 2.71875 -2.738281 2.71875 -2.71875 L 1.765625 -0.09375 C 1.765625 -0.0703125 1.753906 -0.0507812 1.734375 -0.03125 C 1.722656 -0.0195312 1.703125 -0.0078125 1.671875 0 C 1.648438 0.0078125 1.617188 0.015625 1.578125 0.015625 C 1.535156 0.015625 1.484375 0.015625 1.421875 0.015625 C 1.359375 0.015625 1.304688 0.0078125 1.265625 0 C 1.222656 0 1.1875 0 1.15625 0 C 1.132812 -0.0078125 1.117188 -0.0195312 1.109375 -0.03125 C 1.097656 -0.0507812 1.085938 -0.0703125 1.078125 -0.09375 L 0.140625 -2.71875 C 0.128906 -2.75 0.117188 -2.769531 0.109375 -2.78125 C 0.109375 -2.800781 0.109375 -2.816406 0.109375 -2.828125 C 0.109375 -2.835938 0.109375 -2.84375 0.109375 -2.84375 C 0.109375 -2.863281 0.109375 -2.878906 0.109375 -2.890625 C 0.117188 -2.898438 0.132812 -2.910156 0.15625 -2.921875 C 0.175781 -2.929688 0.203125 -2.9375 0.234375 -2.9375 C 0.265625 -2.9375 0.304688 -2.9375 0.359375 -2.9375 C 0.410156 -2.9375 0.453125 -2.9375 0.484375 -2.9375 C 0.523438 -2.9375 0.554688 -2.929688 0.578125 -2.921875 C 0.597656 -2.910156 0.613281 -2.898438 0.625 -2.890625 C 0.632812 -2.878906 0.644531 -2.863281 0.65625 -2.84375 L 1.4375 -0.5625 L 1.4375 -0.515625 L 1.453125 -0.5625 L 2.21875 -2.84375 C 2.226562 -2.863281 2.238281 -2.878906 2.25 -2.890625 C 2.257812 -2.898438 2.269531 -2.910156 2.28125 -2.921875 C 2.300781 -2.929688 2.328125 -2.9375 2.359375 -2.9375 C 2.398438 -2.9375 2.445312 -2.9375 2.5 -2.9375 C 2.550781 -2.9375 2.59375 -2.9375 2.625 -2.9375 C 2.65625 -2.9375 2.675781 -2.929688 2.6875 -2.921875 C 2.707031 -2.910156 2.71875 -2.898438 2.71875 -2.890625 C 2.726562 -2.878906 2.734375 -2.863281 2.734375 -2.84375 Z M 2.734375 -2.84375 "/></g></g><g transform="translate(16.811534, 20.007706)"><g><path d="M 0.984375 -0.078125 C 0.984375 -0.0546875 0.976562 -0.0390625 0.96875 -0.03125 C 0.957031 -0.0195312 0.941406 -0.0078125 0.921875 0 C 0.898438 0 0.875 0 0.84375 0 C 0.8125 0.0078125 0.769531 0.015625 0.71875 0.015625 C 0.675781 0.015625 0.632812 0.0078125 0.59375 0 C 0.5625 0 0.535156 0 0.515625 0 C 0.492188 -0.0078125 0.476562 -0.0195312 0.46875 -0.03125 C 0.46875 -0.0390625 0.46875 -0.0546875 0.46875 -0.078125 L 0.46875 -2.84375 C 0.46875 -2.851562 0.46875 -2.863281 0.46875 -2.875 C 0.476562 -2.894531 0.492188 -2.90625 0.515625 -2.90625 C 0.535156 -2.914062 0.5625 -2.921875 0.59375 -2.921875 C 0.632812 -2.929688 0.675781 -2.9375 0.71875 -2.9375 C 0.769531 -2.9375 0.8125 -2.929688 0.84375 -2.921875 C 0.875 -2.921875 0.898438 -2.914062 0.921875 -2.90625 C 0.941406 -2.90625 0.957031 -2.894531 0.96875 -2.875 C 0.976562 -2.863281 0.984375 -2.851562 0.984375 -2.84375 Z M 1.03125 -3.78125 C 1.03125 -3.65625 1.007812 -3.570312 0.96875 -3.53125 C 0.925781 -3.488281 0.84375 -3.46875 0.71875 -3.46875 C 0.601562 -3.46875 0.519531 -3.488281 0.46875 -3.53125 C 0.425781 -3.570312 0.40625 -3.648438 0.40625 -3.765625 C 0.40625 -3.890625 0.425781 -3.972656 0.46875 -4.015625 C 0.519531 -4.054688 0.601562 -4.078125 0.71875 -4.078125 C 0.84375 -4.078125 0.925781 -4.054688 0.96875 -4.015625 C 1.007812 -3.972656 1.03125 -3.894531 1.03125 -3.78125 Z M 1.03125 -3.78125 "/></g></g><g transform="translate(18.255757, 20.007706)"><g><path d="M 2.203125 -0.828125 C 2.203125 -0.691406 2.175781 -0.566406 2.125 -0.453125 C 2.070312 -0.335938 2 -0.242188 1.90625 -0.171875 C 1.8125 -0.0976562 1.695312 -0.0390625 1.5625 0 C 1.425781 0.0390625 1.28125 0.0625 1.125 0.0625 C 1.019531 0.0625 0.921875 0.0507812 0.828125 0.03125 C 0.742188 0.0195312 0.664062 0.00390625 0.59375 -0.015625 C 0.53125 -0.046875 0.472656 -0.0703125 0.421875 -0.09375 C 0.367188 -0.125 0.332031 -0.148438 0.3125 -0.171875 C 0.289062 -0.191406 0.273438 -0.21875 0.265625 -0.25 C 0.253906 -0.289062 0.25 -0.34375 0.25 -0.40625 C 0.25 -0.445312 0.25 -0.476562 0.25 -0.5 C 0.257812 -0.53125 0.265625 -0.550781 0.265625 -0.5625 C 0.273438 -0.582031 0.285156 -0.59375 0.296875 -0.59375 C 0.304688 -0.601562 0.316406 -0.609375 0.328125 -0.609375 C 0.359375 -0.609375 0.394531 -0.59375 0.4375 -0.5625 C 0.476562 -0.539062 0.53125 -0.515625 0.59375 -0.484375 C 0.65625 -0.453125 0.726562 -0.421875 0.8125 -0.390625 C 0.90625 -0.359375 1.007812 -0.34375 1.125 -0.34375 C 1.21875 -0.34375 1.296875 -0.351562 1.359375 -0.375 C 1.429688 -0.394531 1.492188 -0.421875 1.546875 -0.453125 C 1.597656 -0.492188 1.632812 -0.539062 1.65625 -0.59375 C 1.6875 -0.644531 1.703125 -0.710938 1.703125 -0.796875 C 1.703125 -0.867188 1.679688 -0.929688 1.640625 -0.984375 C 1.609375 -1.035156 1.554688 -1.082031 1.484375 -1.125 C 1.421875 -1.164062 1.347656 -1.203125 1.265625 -1.234375 C 1.179688 -1.265625 1.09375 -1.296875 1 -1.328125 C 0.914062 -1.367188 0.832031 -1.410156 0.75 -1.453125 C 0.675781 -1.492188 0.601562 -1.546875 0.53125 -1.609375 C 0.46875 -1.679688 0.414062 -1.757812 0.375 -1.84375 C 0.332031 -1.9375 0.3125 -2.039062 0.3125 -2.15625 C 0.3125 -2.269531 0.332031 -2.375 0.375 -2.46875 C 0.414062 -2.570312 0.476562 -2.660156 0.5625 -2.734375 C 0.644531 -2.804688 0.75 -2.863281 0.875 -2.90625 C 1.007812 -2.957031 1.160156 -2.984375 1.328125 -2.984375 C 1.398438 -2.984375 1.472656 -2.976562 1.546875 -2.96875 C 1.617188 -2.957031 1.679688 -2.941406 1.734375 -2.921875 C 1.796875 -2.898438 1.847656 -2.878906 1.890625 -2.859375 C 1.941406 -2.835938 1.976562 -2.816406 2 -2.796875 C 2.019531 -2.785156 2.03125 -2.769531 2.03125 -2.75 C 2.039062 -2.738281 2.046875 -2.722656 2.046875 -2.703125 C 2.054688 -2.691406 2.0625 -2.675781 2.0625 -2.65625 C 2.0625 -2.632812 2.0625 -2.609375 2.0625 -2.578125 C 2.0625 -2.546875 2.0625 -2.515625 2.0625 -2.484375 C 2.0625 -2.460938 2.054688 -2.441406 2.046875 -2.421875 C 2.035156 -2.398438 2.023438 -2.382812 2.015625 -2.375 C 2.003906 -2.375 1.992188 -2.375 1.984375 -2.375 C 1.960938 -2.375 1.9375 -2.382812 1.90625 -2.40625 C 1.875 -2.425781 1.828125 -2.445312 1.765625 -2.46875 C 1.710938 -2.5 1.648438 -2.523438 1.578125 -2.546875 C 1.503906 -2.578125 1.414062 -2.59375 1.3125 -2.59375 C 1.226562 -2.59375 1.15625 -2.582031 1.09375 -2.5625 C 1.03125 -2.539062 0.972656 -2.507812 0.921875 -2.46875 C 0.878906 -2.4375 0.847656 -2.394531 0.828125 -2.34375 C 0.804688 -2.300781 0.796875 -2.25 0.796875 -2.1875 C 0.796875 -2.101562 0.816406 -2.035156 0.859375 -1.984375 C 0.898438 -1.929688 0.953125 -1.882812 1.015625 -1.84375 C 1.085938 -1.800781 1.164062 -1.765625 1.25 -1.734375 C 1.332031 -1.703125 1.414062 -1.664062 1.5 -1.625 C 1.59375 -1.59375 1.679688 -1.554688 1.765625 -1.515625 C 1.847656 -1.472656 1.921875 -1.421875 1.984375 -1.359375 C 2.054688 -1.296875 2.109375 -1.222656 2.140625 -1.140625 C 2.179688 -1.054688 2.203125 -0.953125 2.203125 -0.828125 Z M 2.203125 -0.828125 "/></g></g><g transform="translate(20.71708, 20.007706)"><g><path d="M 0.984375 -0.078125 C 0.984375 -0.0546875 0.976562 -0.0390625 0.96875 -0.03125 C 0.957031 -0.0195312 0.941406 -0.0078125 0.921875 0 C 0.898438 0 0.875 0 0.84375 0 C 0.8125 0.0078125 0.769531 0.015625 0.71875 0.015625 C 0.675781 0.015625 0.632812 0.0078125 0.59375 0 C 0.5625 0 0.535156 0 0.515625 0 C 0.492188 -0.0078125 0.476562 -0.0195312 0.46875 -0.03125 C 0.46875 -0.0390625 0.46875 -0.0546875 0.46875 -0.078125 L 0.46875 -2.84375 C 0.46875 -2.851562 0.46875 -2.863281 0.46875 -2.875 C 0.476562 -2.894531 0.492188 -2.90625 0.515625 -2.90625 C 0.535156 -2.914062 0.5625 -2.921875 0.59375 -2.921875 C 0.632812 -2.929688 0.675781 -2.9375 0.71875 -2.9375 C 0.769531 -2.9375 0.8125 -2.929688 0.84375 -2.921875 C 0.875 -2.921875 0.898438 -2.914062 0.921875 -2.90625 C 0.941406 -2.90625 0.957031 -2.894531 0.96875 -2.875 C 0.976562 -2.863281 0.984375 -2.851562 0.984375 -2.84375 Z M 1.03125 -3.78125 C 1.03125 -3.65625 1.007812 -3.570312 0.96875 -3.53125 C 0.925781 -3.488281 0.84375 -3.46875 0.71875 -3.46875 C 0.601562 -3.46875 0.519531 -3.488281 0.46875 -3.53125 C 0.425781 -3.570312 0.40625 -3.648438 0.40625 -3.765625 C 0.40625 -3.890625 0.425781 -3.972656 0.46875 -4.015625 C 0.519531 -4.054688 0.601562 -4.078125 0.71875 -4.078125 C 0.84375 -4.078125 0.925781 -4.054688 0.96875 -4.015625 C 1.007812 -3.972656 1.03125 -3.894531 1.03125 -3.78125 Z M 1.03125 -3.78125 "/></g></g><g transform="translate(22.161302, 20.007706)"><g><path d="M 1.90625 -0.28125 C 1.90625 -0.21875 1.898438 -0.171875 1.890625 -0.140625 C 1.890625 -0.109375 1.878906 -0.0820312 1.859375 -0.0625 C 1.835938 -0.0390625 1.8125 -0.0234375 1.78125 -0.015625 C 1.75 -0.00390625 1.710938 0.00390625 1.671875 0.015625 C 1.628906 0.0234375 1.582031 0.03125 1.53125 0.03125 C 1.488281 0.0390625 1.445312 0.046875 1.40625 0.046875 C 1.257812 0.046875 1.132812 0.03125 1.03125 0 C 0.925781 -0.0390625 0.835938 -0.0976562 0.765625 -0.171875 C 0.703125 -0.253906 0.65625 -0.351562 0.625 -0.46875 C 0.601562 -0.582031 0.59375 -0.722656 0.59375 -0.890625 L 0.59375 -2.5 L 0.203125 -2.5 C 0.171875 -2.5 0.144531 -2.515625 0.125 -2.546875 C 0.101562 -2.578125 0.09375 -2.632812 0.09375 -2.71875 C 0.09375 -2.75 0.09375 -2.773438 0.09375 -2.796875 C 0.101562 -2.828125 0.113281 -2.851562 0.125 -2.875 C 0.132812 -2.894531 0.144531 -2.90625 0.15625 -2.90625 C 0.175781 -2.914062 0.191406 -2.921875 0.203125 -2.921875 L 0.59375 -2.921875 L 0.59375 -3.578125 C 0.59375 -3.597656 0.59375 -3.613281 0.59375 -3.625 C 0.601562 -3.632812 0.617188 -3.644531 0.640625 -3.65625 C 0.660156 -3.664062 0.6875 -3.671875 0.71875 -3.671875 C 0.75 -3.679688 0.789062 -3.6875 0.84375 -3.6875 C 0.894531 -3.6875 0.9375 -3.679688 0.96875 -3.671875 C 1 -3.671875 1.023438 -3.664062 1.046875 -3.65625 C 1.066406 -3.644531 1.078125 -3.632812 1.078125 -3.625 C 1.085938 -3.613281 1.09375 -3.597656 1.09375 -3.578125 L 1.09375 -2.921875 L 1.8125 -2.921875 C 1.820312 -2.921875 1.832031 -2.914062 1.84375 -2.90625 C 1.863281 -2.90625 1.875 -2.894531 1.875 -2.875 C 1.882812 -2.851562 1.890625 -2.828125 1.890625 -2.796875 C 1.898438 -2.773438 1.90625 -2.75 1.90625 -2.71875 C 1.90625 -2.632812 1.894531 -2.578125 1.875 -2.546875 C 1.863281 -2.515625 1.84375 -2.5 1.8125 -2.5 L 1.09375 -2.5 L 1.09375 -0.953125 C 1.09375 -0.765625 1.117188 -0.617188 1.171875 -0.515625 C 1.234375 -0.421875 1.335938 -0.375 1.484375 -0.375 C 1.535156 -0.375 1.578125 -0.378906 1.609375 -0.390625 C 1.648438 -0.398438 1.679688 -0.410156 1.703125 -0.421875 C 1.734375 -0.429688 1.757812 -0.441406 1.78125 -0.453125 C 1.800781 -0.460938 1.820312 -0.46875 1.84375 -0.46875 C 1.851562 -0.46875 1.859375 -0.460938 1.859375 -0.453125 C 1.867188 -0.453125 1.875 -0.441406 1.875 -0.421875 C 1.882812 -0.410156 1.890625 -0.390625 1.890625 -0.359375 C 1.898438 -0.335938 1.90625 -0.3125 1.90625 -0.28125 Z M 1.90625 -0.28125 "/></g></g><g transform="translate(24.269251, 20.007706)"><g><path d="M 2.828125 -1.578125 C 2.828125 -1.492188 2.804688 -1.4375 2.765625 -1.40625 C 2.734375 -1.375 2.691406 -1.359375 2.640625 -1.359375 L 0.828125 -1.359375 C 0.828125 -1.203125 0.835938 -1.0625 0.859375 -0.9375 C 0.890625 -0.820312 0.941406 -0.71875 1.015625 -0.625 C 1.085938 -0.539062 1.179688 -0.472656 1.296875 -0.421875 C 1.410156 -0.378906 1.550781 -0.359375 1.71875 -0.359375 C 1.851562 -0.359375 1.96875 -0.367188 2.0625 -0.390625 C 2.164062 -0.410156 2.253906 -0.429688 2.328125 -0.453125 C 2.410156 -0.484375 2.472656 -0.507812 2.515625 -0.53125 C 2.566406 -0.550781 2.601562 -0.5625 2.625 -0.5625 C 2.644531 -0.5625 2.660156 -0.554688 2.671875 -0.546875 C 2.679688 -0.546875 2.6875 -0.535156 2.6875 -0.515625 C 2.695312 -0.503906 2.703125 -0.484375 2.703125 -0.453125 C 2.710938 -0.429688 2.71875 -0.398438 2.71875 -0.359375 C 2.71875 -0.335938 2.710938 -0.316406 2.703125 -0.296875 C 2.703125 -0.273438 2.703125 -0.253906 2.703125 -0.234375 C 2.703125 -0.222656 2.695312 -0.210938 2.6875 -0.203125 C 2.675781 -0.191406 2.664062 -0.179688 2.65625 -0.171875 C 2.644531 -0.160156 2.613281 -0.140625 2.5625 -0.109375 C 2.507812 -0.0859375 2.4375 -0.0625 2.34375 -0.03125 C 2.257812 -0.0078125 2.15625 0.0078125 2.03125 0.03125 C 1.914062 0.0507812 1.796875 0.0625 1.671875 0.0625 C 1.441406 0.0625 1.238281 0.03125 1.0625 -0.03125 C 0.894531 -0.09375 0.753906 -0.1875 0.640625 -0.3125 C 0.523438 -0.4375 0.4375 -0.59375 0.375 -0.78125 C 0.3125 -0.976562 0.28125 -1.203125 0.28125 -1.453125 C 0.28125 -1.691406 0.3125 -1.90625 0.375 -2.09375 C 0.4375 -2.28125 0.523438 -2.4375 0.640625 -2.5625 C 0.753906 -2.695312 0.894531 -2.800781 1.0625 -2.875 C 1.226562 -2.945312 1.410156 -2.984375 1.609375 -2.984375 C 1.828125 -2.984375 2.007812 -2.945312 2.15625 -2.875 C 2.3125 -2.800781 2.4375 -2.707031 2.53125 -2.59375 C 2.632812 -2.476562 2.707031 -2.335938 2.75 -2.171875 C 2.800781 -2.015625 2.828125 -1.847656 2.828125 -1.671875 Z M 2.328125 -1.734375 C 2.328125 -1.992188 2.265625 -2.195312 2.140625 -2.34375 C 2.015625 -2.5 1.832031 -2.578125 1.59375 -2.578125 C 1.46875 -2.578125 1.359375 -2.550781 1.265625 -2.5 C 1.171875 -2.457031 1.09375 -2.394531 1.03125 -2.3125 C 0.96875 -2.238281 0.914062 -2.148438 0.875 -2.046875 C 0.84375 -1.953125 0.828125 -1.847656 0.828125 -1.734375 Z M 2.328125 -1.734375 "/></g></g><g transform="translate(27.400448, 20.007706)"><g><path d="M 2.84375 -0.078125 C 2.84375 -0.0546875 2.835938 -0.0390625 2.828125 -0.03125 C 2.816406 -0.0195312 2.800781 -0.0078125 2.78125 0 C 2.769531 0 2.75 0 2.71875 0 C 2.695312 0.0078125 2.664062 0.015625 2.625 0.015625 C 2.582031 0.015625 2.546875 0.0078125 2.515625 0 C 2.484375 0 2.457031 0 2.4375 0 C 2.414062 -0.0078125 2.398438 -0.0195312 2.390625 -0.03125 C 2.390625 -0.0390625 2.390625 -0.0546875 2.390625 -0.078125 L 2.390625 -0.4375 C 2.242188 -0.28125 2.09375 -0.15625 1.9375 -0.0625 C 1.78125 0.0195312 1.609375 0.0625 1.421875 0.0625 C 1.210938 0.0625 1.035156 0.0234375 0.890625 -0.046875 C 0.753906 -0.128906 0.640625 -0.238281 0.546875 -0.375 C 0.460938 -0.507812 0.398438 -0.664062 0.359375 -0.84375 C 0.316406 -1.03125 0.296875 -1.222656 0.296875 -1.421875 C 0.296875 -1.660156 0.320312 -1.875 0.375 -2.0625 C 0.425781 -2.257812 0.5 -2.425781 0.59375 -2.5625 C 0.695312 -2.695312 0.820312 -2.800781 0.96875 -2.875 C 1.125 -2.945312 1.296875 -2.984375 1.484375 -2.984375 C 1.648438 -2.984375 1.800781 -2.945312 1.9375 -2.875 C 2.070312 -2.800781 2.203125 -2.695312 2.328125 -2.5625 L 2.328125 -4.171875 C 2.328125 -4.179688 2.332031 -4.191406 2.34375 -4.203125 C 2.351562 -4.222656 2.363281 -4.234375 2.375 -4.234375 C 2.394531 -4.242188 2.421875 -4.25 2.453125 -4.25 C 2.492188 -4.257812 2.535156 -4.265625 2.578125 -4.265625 C 2.628906 -4.265625 2.671875 -4.257812 2.703125 -4.25 C 2.742188 -4.25 2.769531 -4.242188 2.78125 -4.234375 C 2.800781 -4.234375 2.816406 -4.222656 2.828125 -4.203125 C 2.835938 -4.191406 2.84375 -4.179688 2.84375 -4.171875 Z M 2.328125 -2.015625 C 2.191406 -2.191406 2.054688 -2.320312 1.921875 -2.40625 C 1.796875 -2.5 1.664062 -2.546875 1.53125 -2.546875 C 1.40625 -2.546875 1.296875 -2.515625 1.203125 -2.453125 C 1.109375 -2.390625 1.03125 -2.304688 0.96875 -2.203125 C 0.914062 -2.109375 0.878906 -1.992188 0.859375 -1.859375 C 0.835938 -1.734375 0.828125 -1.609375 0.828125 -1.484375 C 0.828125 -1.335938 0.835938 -1.195312 0.859375 -1.0625 C 0.878906 -0.9375 0.914062 -0.820312 0.96875 -0.71875 C 1.019531 -0.613281 1.085938 -0.53125 1.171875 -0.46875 C 1.265625 -0.40625 1.378906 -0.375 1.515625 -0.375 C 1.578125 -0.375 1.640625 -0.382812 1.703125 -0.40625 C 1.765625 -0.425781 1.828125 -0.457031 1.890625 -0.5 C 1.960938 -0.539062 2.03125 -0.59375 2.09375 -0.65625 C 2.164062 -0.726562 2.242188 -0.816406 2.328125 -0.921875 Z M 2.328125 -2.015625 "/></g></g></g><g fill="#868e8d" fill-opacity="1"><g transform="translate(1.537322, 29.082882)"><g><path d="M 0.3125 0.453125 C 0.3125 0.472656 0.304688 0.488281 0.296875 0.5 C 0.285156 0.507812 0.273438 0.515625 0.265625 0.515625 C 0.253906 0.523438 0.238281 0.53125 0.21875 0.53125 C 0.195312 0.53125 0.175781 0.53125 0.15625 0.53125 C 0.125 0.53125 0.0976562 0.523438 0.078125 0.515625 C 0.0546875 0.515625 0.0390625 0.507812 0.03125 0.5 C 0.0195312 0.5 0.0078125 0.488281 0 0.46875 C 0 0.457031 0.00390625 0.445312 0.015625 0.4375 L 1.15625 -2.703125 C 1.164062 -2.722656 1.171875 -2.738281 1.171875 -2.75 C 1.179688 -2.757812 1.191406 -2.765625 1.203125 -2.765625 C 1.210938 -2.773438 1.226562 -2.78125 1.25 -2.78125 C 1.269531 -2.78125 1.296875 -2.78125 1.328125 -2.78125 C 1.359375 -2.78125 1.382812 -2.773438 1.40625 -2.765625 C 1.425781 -2.765625 1.441406 -2.757812 1.453125 -2.75 C 1.460938 -2.75 1.46875 -2.738281 1.46875 -2.71875 C 1.46875 -2.707031 1.46875 -2.695312 1.46875 -2.6875 Z M 0.3125 0.453125 "/></g></g><g transform="translate(3.030949, 29.082882)"><g/></g><g transform="translate(3.905221, 29.082882)"><g><path d="M 1.75 -0.125 C 1.75 -0.101562 1.75 -0.0820312 1.75 -0.0625 C 1.75 -0.0507812 1.742188 -0.0390625 1.734375 -0.03125 C 1.722656 -0.0195312 1.710938 -0.0078125 1.703125 0 C 1.703125 0 1.695312 0 1.6875 0 L 0.40625 0 C 0.394531 0 0.382812 0 0.375 0 C 0.375 -0.0078125 0.367188 -0.0195312 0.359375 -0.03125 C 0.347656 -0.0390625 0.34375 -0.0507812 0.34375 -0.0625 C 0.34375 -0.0820312 0.34375 -0.101562 0.34375 -0.125 C 0.34375 -0.144531 0.34375 -0.164062 0.34375 -0.1875 C 0.34375 -0.207031 0.34375 -0.222656 0.34375 -0.234375 C 0.351562 -0.242188 0.363281 -0.25 0.375 -0.25 C 0.382812 -0.257812 0.394531 -0.265625 0.40625 -0.265625 L 0.921875 -0.265625 L 0.921875 -2.125 L 0.4375 -1.84375 C 0.414062 -1.832031 0.394531 -1.820312 0.375 -1.8125 C 0.363281 -1.8125 0.351562 -1.816406 0.34375 -1.828125 C 0.34375 -1.835938 0.335938 -1.847656 0.328125 -1.859375 C 0.328125 -1.878906 0.328125 -1.90625 0.328125 -1.9375 C 0.328125 -1.957031 0.328125 -1.972656 0.328125 -1.984375 C 0.328125 -2.003906 0.328125 -2.019531 0.328125 -2.03125 C 0.335938 -2.039062 0.34375 -2.046875 0.34375 -2.046875 C 0.351562 -2.054688 0.367188 -2.066406 0.390625 -2.078125 L 0.953125 -2.4375 C 0.953125 -2.445312 0.957031 -2.453125 0.96875 -2.453125 C 0.976562 -2.453125 0.988281 -2.453125 1 -2.453125 C 1.007812 -2.460938 1.019531 -2.46875 1.03125 -2.46875 C 1.050781 -2.46875 1.070312 -2.46875 1.09375 -2.46875 C 1.125 -2.46875 1.148438 -2.460938 1.171875 -2.453125 C 1.191406 -2.453125 1.207031 -2.445312 1.21875 -2.4375 C 1.226562 -2.4375 1.234375 -2.429688 1.234375 -2.421875 C 1.242188 -2.421875 1.25 -2.414062 1.25 -2.40625 L 1.25 -0.265625 L 1.6875 -0.265625 C 1.695312 -0.265625 1.707031 -0.257812 1.71875 -0.25 C 1.726562 -0.25 1.734375 -0.242188 1.734375 -0.234375 C 1.742188 -0.222656 1.75 -0.207031 1.75 -0.1875 C 1.75 -0.164062 1.75 -0.144531 1.75 -0.125 Z M 1.75 -0.125 "/></g></g><g transform="translate(5.865252, 29.082882)"><g><path d="M 1.765625 -1.328125 C 1.765625 -1.210938 1.757812 -1.101562 1.75 -1 C 1.738281 -0.894531 1.71875 -0.789062 1.6875 -0.6875 C 1.65625 -0.582031 1.613281 -0.484375 1.5625 -0.390625 C 1.507812 -0.304688 1.441406 -0.234375 1.359375 -0.171875 C 1.285156 -0.109375 1.195312 -0.0546875 1.09375 -0.015625 C 0.988281 0.015625 0.863281 0.03125 0.71875 0.03125 C 0.664062 0.03125 0.613281 0.0234375 0.5625 0.015625 C 0.507812 0.015625 0.460938 0.0078125 0.421875 0 C 0.378906 -0.0078125 0.34375 -0.0195312 0.3125 -0.03125 C 0.289062 -0.0390625 0.273438 -0.0507812 0.265625 -0.0625 C 0.253906 -0.0703125 0.242188 -0.0859375 0.234375 -0.109375 C 0.222656 -0.128906 0.21875 -0.15625 0.21875 -0.1875 C 0.21875 -0.21875 0.21875 -0.238281 0.21875 -0.25 C 0.226562 -0.269531 0.234375 -0.285156 0.234375 -0.296875 C 0.242188 -0.304688 0.25 -0.3125 0.25 -0.3125 C 0.257812 -0.3125 0.269531 -0.3125 0.28125 -0.3125 C 0.289062 -0.3125 0.304688 -0.304688 0.328125 -0.296875 C 0.359375 -0.296875 0.390625 -0.285156 0.421875 -0.265625 C 0.460938 -0.253906 0.507812 -0.242188 0.5625 -0.234375 C 0.613281 -0.234375 0.671875 -0.234375 0.734375 -0.234375 C 0.859375 -0.234375 0.960938 -0.253906 1.046875 -0.296875 C 1.140625 -0.347656 1.210938 -0.410156 1.265625 -0.484375 C 1.328125 -0.566406 1.367188 -0.660156 1.390625 -0.765625 C 1.421875 -0.867188 1.4375 -0.976562 1.4375 -1.09375 C 1.375 -1.050781 1.296875 -1.015625 1.203125 -0.984375 C 1.109375 -0.960938 1 -0.953125 0.875 -0.953125 C 0.738281 -0.953125 0.625 -0.96875 0.53125 -1 C 0.4375 -1.039062 0.363281 -1.09375 0.3125 -1.15625 C 0.257812 -1.21875 0.21875 -1.289062 0.1875 -1.375 C 0.164062 -1.46875 0.15625 -1.566406 0.15625 -1.671875 C 0.15625 -1.773438 0.171875 -1.875 0.203125 -1.96875 C 0.234375 -2.070312 0.28125 -2.160156 0.34375 -2.234375 C 0.414062 -2.316406 0.503906 -2.378906 0.609375 -2.421875 C 0.710938 -2.460938 0.832031 -2.484375 0.96875 -2.484375 C 1.070312 -2.484375 1.160156 -2.46875 1.234375 -2.4375 C 1.316406 -2.414062 1.390625 -2.378906 1.453125 -2.328125 C 1.515625 -2.285156 1.5625 -2.226562 1.59375 -2.15625 C 1.632812 -2.09375 1.664062 -2.015625 1.6875 -1.921875 C 1.71875 -1.835938 1.738281 -1.742188 1.75 -1.640625 C 1.757812 -1.535156 1.765625 -1.429688 1.765625 -1.328125 Z M 1.4375 -1.359375 C 1.4375 -1.515625 1.425781 -1.648438 1.40625 -1.765625 C 1.382812 -1.878906 1.351562 -1.96875 1.3125 -2.03125 C 1.269531 -2.101562 1.21875 -2.148438 1.15625 -2.171875 C 1.09375 -2.203125 1.023438 -2.21875 0.953125 -2.21875 C 0.867188 -2.21875 0.796875 -2.203125 0.734375 -2.171875 C 0.679688 -2.148438 0.632812 -2.113281 0.59375 -2.0625 C 0.550781 -2.007812 0.519531 -1.953125 0.5 -1.890625 C 0.488281 -1.828125 0.484375 -1.765625 0.484375 -1.703125 C 0.484375 -1.617188 0.488281 -1.546875 0.5 -1.484375 C 0.519531 -1.429688 0.546875 -1.378906 0.578125 -1.328125 C 0.617188 -1.285156 0.664062 -1.253906 0.71875 -1.234375 C 0.78125 -1.210938 0.851562 -1.203125 0.9375 -1.203125 C 1.03125 -1.203125 1.117188 -1.210938 1.203125 -1.234375 C 1.296875 -1.265625 1.375 -1.304688 1.4375 -1.359375 Z M 1.4375 -1.359375 "/></g></g><g transform="translate(7.825284, 29.082882)"><g><path d="M 1.734375 -0.78125 C 1.734375 -0.65625 1.710938 -0.539062 1.671875 -0.4375 C 1.628906 -0.332031 1.566406 -0.242188 1.484375 -0.171875 C 1.398438 -0.109375 1.300781 -0.0546875 1.1875 -0.015625 C 1.082031 0.015625 0.960938 0.03125 0.828125 0.03125 C 0.742188 0.03125 0.664062 0.0234375 0.59375 0.015625 C 0.53125 0.00390625 0.472656 -0.00390625 0.421875 -0.015625 C 0.367188 -0.0351562 0.328125 -0.0507812 0.296875 -0.0625 C 0.265625 -0.0820312 0.242188 -0.09375 0.234375 -0.09375 C 0.222656 -0.101562 0.210938 -0.113281 0.203125 -0.125 C 0.203125 -0.132812 0.195312 -0.144531 0.1875 -0.15625 C 0.1875 -0.164062 0.1875 -0.175781 0.1875 -0.1875 C 0.1875 -0.207031 0.1875 -0.226562 0.1875 -0.25 C 0.1875 -0.269531 0.1875 -0.289062 0.1875 -0.3125 C 0.195312 -0.332031 0.203125 -0.347656 0.203125 -0.359375 C 0.210938 -0.367188 0.21875 -0.375 0.21875 -0.375 C 0.226562 -0.382812 0.238281 -0.390625 0.25 -0.390625 C 0.257812 -0.390625 0.273438 -0.378906 0.296875 -0.359375 C 0.328125 -0.347656 0.363281 -0.332031 0.40625 -0.3125 C 0.457031 -0.289062 0.515625 -0.269531 0.578125 -0.25 C 0.640625 -0.238281 0.71875 -0.234375 0.8125 -0.234375 C 0.894531 -0.234375 0.972656 -0.242188 1.046875 -0.265625 C 1.117188 -0.285156 1.179688 -0.316406 1.234375 -0.359375 C 1.285156 -0.398438 1.320312 -0.453125 1.34375 -0.515625 C 1.375 -0.578125 1.390625 -0.65625 1.390625 -0.75 C 1.390625 -0.832031 1.375 -0.898438 1.34375 -0.953125 C 1.320312 -1.015625 1.285156 -1.066406 1.234375 -1.109375 C 1.191406 -1.148438 1.128906 -1.179688 1.046875 -1.203125 C 0.972656 -1.222656 0.878906 -1.234375 0.765625 -1.234375 C 0.691406 -1.234375 0.625 -1.226562 0.5625 -1.21875 C 0.507812 -1.207031 0.460938 -1.203125 0.421875 -1.203125 C 0.378906 -1.203125 0.347656 -1.210938 0.328125 -1.234375 C 0.316406 -1.253906 0.3125 -1.285156 0.3125 -1.328125 L 0.3125 -2.328125 C 0.3125 -2.367188 0.320312 -2.398438 0.34375 -2.421875 C 0.363281 -2.441406 0.390625 -2.453125 0.421875 -2.453125 L 1.515625 -2.453125 C 1.523438 -2.453125 1.535156 -2.445312 1.546875 -2.4375 C 1.554688 -2.4375 1.5625 -2.425781 1.5625 -2.40625 C 1.570312 -2.394531 1.578125 -2.378906 1.578125 -2.359375 C 1.578125 -2.347656 1.578125 -2.332031 1.578125 -2.3125 C 1.578125 -2.257812 1.570312 -2.222656 1.5625 -2.203125 C 1.550781 -2.179688 1.535156 -2.171875 1.515625 -2.171875 L 0.59375 -2.171875 L 0.59375 -1.484375 C 0.644531 -1.484375 0.691406 -1.484375 0.734375 -1.484375 C 0.773438 -1.484375 0.828125 -1.484375 0.890625 -1.484375 C 1.035156 -1.484375 1.160156 -1.46875 1.265625 -1.4375 C 1.367188 -1.40625 1.453125 -1.359375 1.515625 -1.296875 C 1.585938 -1.234375 1.640625 -1.160156 1.671875 -1.078125 C 1.710938 -0.992188 1.734375 -0.894531 1.734375 -0.78125 Z M 1.734375 -0.78125 "/></g></g></g></svg>